G04 #@! TF.FileFunction,Soldermask,Top*
%FSLAX46Y46*%
G04 Gerber Fmt 4.6, Leading zero omitted, Abs format (unit mm)*
G04 Created by KiCad (PCBNEW (2016-03-23 BZR 6647, Git bc699c8)-product) date Sun 10 Apr 2016 18:41:19 CEST*
%MOMM*%
G01*
G04 APERTURE LIST*
%ADD10C,0.100000*%
%ADD11C,0.150000*%
%ADD12R,0.975000X1.450000*%
%ADD13R,1.924000X2.599640*%
%ADD14O,1.924000X2.599640*%
%ADD15R,1.924000X2.398980*%
%ADD16O,1.924000X2.398980*%
%ADD17R,2.599640X1.924000*%
%ADD18O,2.599640X1.924000*%
%ADD19R,1.799540X2.398980*%
%ADD20R,2.851100X1.700480*%
%ADD21C,1.299160*%
%ADD22R,2.432000X2.127200*%
%ADD23O,2.432000X2.127200*%
%ADD24C,2.127200*%
G04 APERTURE END LIST*
D10*
D11*
X197948385Y-78128726D02*
X195352726Y-75500000D01*
X200448266Y-80901017D02*
X197948385Y-78128726D01*
X202847375Y-83811335D02*
X200448266Y-80901017D01*
X205140919Y-86853867D02*
X202847375Y-83811335D01*
X207324318Y-90022535D02*
X205140919Y-86853867D01*
X209393210Y-93311010D02*
X207324318Y-90022535D01*
X211343462Y-96712723D02*
X209393210Y-93311010D01*
X213171179Y-100220879D02*
X211343462Y-96712723D01*
X214872709Y-103828470D02*
X213171179Y-100220879D01*
X216444654Y-107528291D02*
X214872709Y-103828470D01*
X217883874Y-111312950D02*
X216444654Y-107528291D01*
X219187494Y-115174887D02*
X217883874Y-111312950D01*
X220352910Y-119106388D02*
X219187494Y-115174887D01*
X221377794Y-123099601D02*
X220352910Y-119106388D01*
X222260098Y-127146548D02*
X221377794Y-123099601D01*
X222998061Y-131239145D02*
X222260098Y-127146548D01*
X223590208Y-135369218D02*
X222998061Y-131239145D01*
X224035356Y-139528516D02*
X223590208Y-135369218D01*
X224332617Y-143708731D02*
X224035356Y-139528516D01*
X224481396Y-147901513D02*
X224332617Y-143708731D01*
X224481396Y-152098487D02*
X224481396Y-147901513D01*
X224332617Y-156291269D02*
X224481396Y-152098487D01*
X224035356Y-160471484D02*
X224332617Y-156291269D01*
X223590208Y-164630782D02*
X224035356Y-160471484D01*
X222998061Y-168760855D02*
X223590208Y-164630782D01*
X222260098Y-172853452D02*
X222998061Y-168760855D01*
X221377794Y-176900399D02*
X222260098Y-172853452D01*
X220352910Y-180893612D02*
X221377794Y-176900399D01*
X219187494Y-184825113D02*
X220352910Y-180893612D01*
X217883874Y-188687050D02*
X219187494Y-184825113D01*
X216444654Y-192471709D02*
X217883874Y-188687050D01*
X214872709Y-196171530D02*
X216444654Y-192471709D01*
X213171179Y-199779121D02*
X214872709Y-196171530D01*
X211343462Y-203287277D02*
X213171179Y-199779121D01*
X209393210Y-206688990D02*
X211343462Y-203287277D01*
X207324318Y-209977465D02*
X209393210Y-206688990D01*
X205140919Y-213146133D02*
X207324318Y-209977465D01*
X202847375Y-216188665D02*
X205140919Y-213146133D01*
X200448266Y-219098983D02*
X202847375Y-216188665D01*
X197948385Y-221871274D02*
X200448266Y-219098983D01*
X195352726Y-224500000D02*
X197948385Y-221871274D01*
X104647274Y-224500000D02*
X195352726Y-224500000D01*
X102051615Y-221871274D02*
X104647274Y-224500000D01*
X99551734Y-219098983D02*
X102051615Y-221871274D01*
X97152625Y-216188665D02*
X99551734Y-219098983D01*
X94859081Y-213146133D02*
X97152625Y-216188665D01*
X92675682Y-209977465D02*
X94859081Y-213146133D01*
X90606790Y-206688990D02*
X92675682Y-209977465D01*
X88656538Y-203287277D02*
X90606790Y-206688990D01*
X86828821Y-199779121D02*
X88656538Y-203287277D01*
X85127291Y-196171530D02*
X86828821Y-199779121D01*
X83555346Y-192471709D02*
X85127291Y-196171530D01*
X82116126Y-188687050D02*
X83555346Y-192471709D01*
X80812506Y-184825113D02*
X82116126Y-188687050D01*
X79647090Y-180893612D02*
X80812506Y-184825113D01*
X78622206Y-176900399D02*
X79647090Y-180893612D01*
X77739902Y-172853452D02*
X78622206Y-176900399D01*
X77001939Y-168760855D02*
X77739902Y-172853452D01*
X76409792Y-164630782D02*
X77001939Y-168760855D01*
X75964644Y-160471484D02*
X76409792Y-164630782D01*
X75667383Y-156291269D02*
X75964644Y-160471484D01*
X75518604Y-152098487D02*
X75667383Y-156291269D01*
X75518604Y-147901513D02*
X75518604Y-152098487D01*
X75667383Y-143708731D02*
X75518604Y-147901513D01*
X75964644Y-139528516D02*
X75667383Y-143708731D01*
X76409792Y-135369218D02*
X75964644Y-139528516D01*
X77001939Y-131239145D02*
X76409792Y-135369218D01*
X77739902Y-127146548D02*
X77001939Y-131239145D01*
X78622206Y-123099601D02*
X77739902Y-127146548D01*
X79647090Y-119106388D02*
X78622206Y-123099601D01*
X80812506Y-115174887D02*
X79647090Y-119106388D01*
X82116126Y-111312950D02*
X80812506Y-115174887D01*
X83555346Y-107528291D02*
X82116126Y-111312950D01*
X85127291Y-103828470D02*
X83555346Y-107528291D01*
X86828821Y-100220879D02*
X85127291Y-103828470D01*
X88656538Y-96712723D02*
X86828821Y-100220879D01*
X90606790Y-93311010D02*
X88656538Y-96712723D01*
X92675682Y-90022535D02*
X90606790Y-93311010D01*
X94859081Y-86853867D02*
X92675682Y-90022535D01*
X97152625Y-83811335D02*
X94859081Y-86853867D01*
X99551734Y-80901017D02*
X97152625Y-83811335D01*
X102051615Y-78128726D02*
X99551734Y-80901017D01*
X104647274Y-75500000D02*
X102051615Y-78128726D01*
X195352726Y-75500000D02*
X104647274Y-75500000D01*
D12*
X185707990Y-119556767D03*
X186632990Y-119556767D03*
X186632990Y-121306767D03*
X185707990Y-121306767D03*
D13*
X107920000Y-208500000D03*
D14*
X110460000Y-208500000D03*
X113000000Y-208500000D03*
D12*
X150604070Y-99844611D03*
X151529070Y-99844611D03*
X151529070Y-101594611D03*
X150604070Y-101594611D03*
X167704173Y-99844611D03*
X168629173Y-99844611D03*
X168629173Y-101594611D03*
X167704173Y-101594611D03*
X175822828Y-99844611D03*
X176747828Y-99844611D03*
X176747828Y-101594611D03*
X175822828Y-101594611D03*
X182458753Y-99844611D03*
X183383753Y-99844611D03*
X183383753Y-101594611D03*
X182458753Y-101594611D03*
X188379480Y-99844611D03*
X189304480Y-99844611D03*
X189304480Y-101594611D03*
X188379480Y-101594611D03*
X193872473Y-99844611D03*
X194797473Y-99844611D03*
X194797473Y-101594611D03*
X193872473Y-101594611D03*
X199080212Y-99844611D03*
X200005212Y-99844611D03*
X200005212Y-101594611D03*
X199080212Y-101594611D03*
X204084459Y-99844611D03*
X205009459Y-99844611D03*
X205009459Y-101594611D03*
X204084459Y-101594611D03*
X208936668Y-99844611D03*
X209861668Y-99844611D03*
X209861668Y-101594611D03*
X208936668Y-101594611D03*
X158740103Y-106415330D03*
X159665103Y-106415330D03*
X159665103Y-108165330D03*
X158740103Y-108165330D03*
X169071531Y-106415330D03*
X169996531Y-106415330D03*
X169996531Y-108165330D03*
X169071531Y-108165330D03*
X176192121Y-106415330D03*
X177117121Y-106415330D03*
X177117121Y-108165330D03*
X176192121Y-108165330D03*
X182269125Y-106415330D03*
X183194125Y-106415330D03*
X183194125Y-108165330D03*
X182269125Y-108165330D03*
X187803016Y-106415330D03*
X188728016Y-106415330D03*
X188728016Y-108165330D03*
X187803016Y-108165330D03*
X193001740Y-106415330D03*
X193926740Y-106415330D03*
X193926740Y-108165330D03*
X193001740Y-108165330D03*
X197973340Y-106415330D03*
X198898340Y-106415330D03*
X198898340Y-108165330D03*
X197973340Y-108165330D03*
X202781477Y-106415330D03*
X203706477Y-106415330D03*
X203706477Y-108165330D03*
X202781477Y-108165330D03*
X207466867Y-106415330D03*
X208391867Y-106415330D03*
X208391867Y-108165330D03*
X207466867Y-108165330D03*
X212057113Y-106415330D03*
X212982113Y-106415330D03*
X212982113Y-108165330D03*
X212057113Y-108165330D03*
X161615975Y-112986048D03*
X162540975Y-112986048D03*
X162540975Y-114736048D03*
X161615975Y-114736048D03*
X169805209Y-112986048D03*
X170730209Y-112986048D03*
X170730209Y-114736048D03*
X169805209Y-114736048D03*
X176139576Y-112986048D03*
X177064576Y-112986048D03*
X177064576Y-114736048D03*
X176139576Y-114736048D03*
X181733166Y-112986048D03*
X182658166Y-112986048D03*
X182658166Y-114736048D03*
X181733166Y-114736048D03*
X186920001Y-112986048D03*
X187845001Y-112986048D03*
X187845001Y-114736048D03*
X186920001Y-114736048D03*
X191849931Y-112986048D03*
X192774931Y-112986048D03*
X192774931Y-114736048D03*
X191849931Y-114736048D03*
X196603754Y-112986048D03*
X197528754Y-112986048D03*
X197528754Y-114736048D03*
X196603754Y-114736048D03*
X201230079Y-112986048D03*
X202155079Y-112986048D03*
X202155079Y-114736048D03*
X201230079Y-114736048D03*
X205760388Y-112986048D03*
X206685388Y-112986048D03*
X206685388Y-114736048D03*
X205760388Y-114736048D03*
X210216192Y-112986048D03*
X211141192Y-112986048D03*
X211141192Y-114736048D03*
X210216192Y-114736048D03*
X214612796Y-112986048D03*
X215537796Y-112986048D03*
X215537796Y-114736048D03*
X214612796Y-114736048D03*
X163129502Y-119556767D03*
X164054502Y-119556767D03*
X164054502Y-121306767D03*
X163129502Y-121306767D03*
X169973570Y-119556767D03*
X170898570Y-119556767D03*
X170898570Y-121306767D03*
X169973570Y-121306767D03*
X175662649Y-119556767D03*
X176587649Y-119556767D03*
X176587649Y-121306767D03*
X175662649Y-121306767D03*
X180833089Y-119556767D03*
X181758089Y-119556767D03*
X181758089Y-121306767D03*
X180833089Y-121306767D03*
X190393280Y-119556767D03*
X191318280Y-119556767D03*
X191318280Y-121306767D03*
X190393280Y-121306767D03*
X194947689Y-119556767D03*
X195872689Y-119556767D03*
X195872689Y-121306767D03*
X194947689Y-121306767D03*
X199407087Y-119556767D03*
X200332087Y-119556767D03*
X200332087Y-121306767D03*
X199407087Y-121306767D03*
X203794906Y-119556767D03*
X204719906Y-119556767D03*
X204719906Y-121306767D03*
X203794906Y-121306767D03*
X208127231Y-119556767D03*
X209052231Y-119556767D03*
X209052231Y-121306767D03*
X208127231Y-121306767D03*
X212415533Y-119556767D03*
X213340533Y-119556767D03*
X213340533Y-121306767D03*
X212415533Y-121306767D03*
X216668249Y-119556767D03*
X217593249Y-119556767D03*
X217593249Y-121306767D03*
X216668249Y-121306767D03*
X163723648Y-126127485D03*
X164648648Y-126127485D03*
X164648648Y-127877485D03*
X163723648Y-127877485D03*
X169590860Y-126127485D03*
X170515860Y-126127485D03*
X170515860Y-127877485D03*
X169590860Y-127877485D03*
X174737256Y-126127485D03*
X175662256Y-126127485D03*
X175662256Y-127877485D03*
X174737256Y-127877485D03*
X179536136Y-126127485D03*
X180461136Y-126127485D03*
X180461136Y-127877485D03*
X179536136Y-127877485D03*
X184132422Y-126127485D03*
X185057422Y-126127485D03*
X185057422Y-127877485D03*
X184132422Y-127877485D03*
X188597698Y-126127485D03*
X189522698Y-126127485D03*
X189522698Y-127877485D03*
X188597698Y-127877485D03*
X192972388Y-126127485D03*
X193897388Y-126127485D03*
X193897388Y-127877485D03*
X192972388Y-127877485D03*
X197281400Y-126127485D03*
X198206400Y-126127485D03*
X198206400Y-127877485D03*
X197281400Y-127877485D03*
X201541062Y-126127485D03*
X202466062Y-126127485D03*
X202466062Y-127877485D03*
X201541062Y-127877485D03*
X205762591Y-126127485D03*
X206687591Y-126127485D03*
X206687591Y-127877485D03*
X205762591Y-127877485D03*
X209953982Y-126127485D03*
X210878982Y-126127485D03*
X210878982Y-127877485D03*
X209953982Y-127877485D03*
X214121103Y-126127485D03*
X215046103Y-126127485D03*
X215046103Y-127877485D03*
X214121103Y-127877485D03*
X218268368Y-126127485D03*
X219193368Y-126127485D03*
X219193368Y-127877485D03*
X218268368Y-127877485D03*
X168623957Y-132698204D03*
X169548957Y-132698204D03*
X169548957Y-134448204D03*
X168623957Y-134448204D03*
X173311084Y-132698204D03*
X174236084Y-132698204D03*
X174236084Y-134448204D03*
X173311084Y-134448204D03*
X177787699Y-132698204D03*
X178712699Y-132698204D03*
X178712699Y-134448204D03*
X177787699Y-134448204D03*
X182140632Y-132698204D03*
X183065632Y-132698204D03*
X183065632Y-134448204D03*
X182140632Y-134448204D03*
X186413707Y-132698204D03*
X187338707Y-132698204D03*
X187338707Y-134448204D03*
X186413707Y-134448204D03*
X190631844Y-132698204D03*
X191556844Y-132698204D03*
X191556844Y-134448204D03*
X190631844Y-134448204D03*
X194810401Y-132698204D03*
X195735401Y-132698204D03*
X195735401Y-134448204D03*
X194810401Y-134448204D03*
X198959419Y-132698204D03*
X199884419Y-132698204D03*
X199884419Y-134448204D03*
X198959419Y-134448204D03*
X203085763Y-132698204D03*
X204010763Y-132698204D03*
X204010763Y-134448204D03*
X203085763Y-134448204D03*
X207194303Y-132698204D03*
X208119303Y-132698204D03*
X208119303Y-134448204D03*
X207194303Y-134448204D03*
X211288592Y-132698204D03*
X212213592Y-132698204D03*
X212213592Y-134448204D03*
X211288592Y-134448204D03*
X215371290Y-132698204D03*
X216296290Y-132698204D03*
X216296290Y-134448204D03*
X215371290Y-134448204D03*
X219444426Y-132698204D03*
X220369426Y-132698204D03*
X220369426Y-134448204D03*
X219444426Y-134448204D03*
X166975957Y-139268922D03*
X167900957Y-139268922D03*
X167900957Y-141018922D03*
X166975957Y-141018922D03*
X171285838Y-139268922D03*
X172210838Y-139268922D03*
X172210838Y-141018922D03*
X171285838Y-141018922D03*
X175496712Y-139268922D03*
X176421712Y-139268922D03*
X176421712Y-141018922D03*
X175496712Y-141018922D03*
X179650141Y-139268922D03*
X180575141Y-139268922D03*
X180575141Y-141018922D03*
X179650141Y-141018922D03*
X183767043Y-139268922D03*
X184692043Y-139268922D03*
X184692043Y-141018922D03*
X183767043Y-141018922D03*
X187859191Y-139268922D03*
X188784191Y-139268922D03*
X188784191Y-141018922D03*
X187859191Y-141018922D03*
X191933756Y-139268922D03*
X192858756Y-139268922D03*
X192858756Y-141018922D03*
X191933756Y-141018922D03*
X195995362Y-139268922D03*
X196920362Y-139268922D03*
X196920362Y-141018922D03*
X195995362Y-141018922D03*
X200047137Y-139268922D03*
X200972137Y-139268922D03*
X200972137Y-141018922D03*
X200047137Y-141018922D03*
X204091270Y-139268922D03*
X205016270Y-139268922D03*
X205016270Y-141018922D03*
X204091270Y-141018922D03*
X208129345Y-139268922D03*
X209054345Y-139268922D03*
X209054345Y-141018922D03*
X208129345Y-141018922D03*
X212162533Y-139268922D03*
X213087533Y-139268922D03*
X213087533Y-141018922D03*
X212162533Y-141018922D03*
X216191721Y-139268922D03*
X217116721Y-139268922D03*
X217116721Y-141018922D03*
X216191721Y-141018922D03*
X220217594Y-139268922D03*
X221142594Y-139268922D03*
X221142594Y-141018922D03*
X220217594Y-141018922D03*
X168470235Y-145839641D03*
X169395235Y-145839641D03*
X169395235Y-147589641D03*
X168470235Y-147589641D03*
X172501361Y-145839641D03*
X173426361Y-145839641D03*
X173426361Y-147589641D03*
X172501361Y-147589641D03*
X176523225Y-145839641D03*
X177448225Y-145839641D03*
X177448225Y-147589641D03*
X176523225Y-147589641D03*
X180539432Y-145839641D03*
X181464432Y-145839641D03*
X181464432Y-147589641D03*
X180539432Y-147589641D03*
X184551929Y-145839641D03*
X185476929Y-145839641D03*
X185476929Y-147589641D03*
X184551929Y-147589641D03*
X188561861Y-145839641D03*
X189486861Y-145839641D03*
X189486861Y-147589641D03*
X188561861Y-147589641D03*
X192569943Y-145839641D03*
X193494943Y-145839641D03*
X193494943Y-147589641D03*
X192569943Y-147589641D03*
X196576650Y-145839641D03*
X197501650Y-145839641D03*
X197501650Y-147589641D03*
X196576650Y-147589641D03*
X200582305Y-145839641D03*
X201507305Y-145839641D03*
X201507305Y-147589641D03*
X200582305Y-147589641D03*
X204587137Y-145839641D03*
X205512137Y-145839641D03*
X205512137Y-147589641D03*
X204587137Y-147589641D03*
X208591314Y-145839641D03*
X209516314Y-145839641D03*
X209516314Y-147589641D03*
X208591314Y-147589641D03*
X212594961Y-145839641D03*
X213519961Y-145839641D03*
X213519961Y-147589641D03*
X212594961Y-147589641D03*
X216598173Y-145839641D03*
X217523173Y-145839641D03*
X217523173Y-147589641D03*
X216598173Y-147589641D03*
X220601023Y-145839641D03*
X221526023Y-145839641D03*
X221526023Y-147589641D03*
X220601023Y-147589641D03*
X168470235Y-152410359D03*
X169395235Y-152410359D03*
X169395235Y-154160359D03*
X168470235Y-154160359D03*
X172501361Y-152410359D03*
X173426361Y-152410359D03*
X173426361Y-154160359D03*
X172501361Y-154160359D03*
X176523225Y-152410359D03*
X177448225Y-152410359D03*
X177448225Y-154160359D03*
X176523225Y-154160359D03*
X180539432Y-152410359D03*
X181464432Y-152410359D03*
X181464432Y-154160359D03*
X180539432Y-154160359D03*
X184551929Y-152410359D03*
X185476929Y-152410359D03*
X185476929Y-154160359D03*
X184551929Y-154160359D03*
X188561861Y-152410359D03*
X189486861Y-152410359D03*
X189486861Y-154160359D03*
X188561861Y-154160359D03*
X192569943Y-152410359D03*
X193494943Y-152410359D03*
X193494943Y-154160359D03*
X192569943Y-154160359D03*
X196576650Y-152410359D03*
X197501650Y-152410359D03*
X197501650Y-154160359D03*
X196576650Y-154160359D03*
X200582305Y-152410359D03*
X201507305Y-152410359D03*
X201507305Y-154160359D03*
X200582305Y-154160359D03*
X204587137Y-152410359D03*
X205512137Y-152410359D03*
X205512137Y-154160359D03*
X204587137Y-154160359D03*
X208591314Y-152410359D03*
X209516314Y-152410359D03*
X209516314Y-154160359D03*
X208591314Y-154160359D03*
X212594961Y-152410359D03*
X213519961Y-152410359D03*
X213519961Y-154160359D03*
X212594961Y-154160359D03*
X216598173Y-152410359D03*
X217523173Y-152410359D03*
X217523173Y-154160359D03*
X216598173Y-154160359D03*
X220601023Y-152410359D03*
X221526023Y-152410359D03*
X221526023Y-154160359D03*
X220601023Y-154160359D03*
X166975957Y-158981078D03*
X167900957Y-158981078D03*
X167900957Y-160731078D03*
X166975957Y-160731078D03*
X171285838Y-158981078D03*
X172210838Y-158981078D03*
X172210838Y-160731078D03*
X171285838Y-160731078D03*
X175496712Y-158981078D03*
X176421712Y-158981078D03*
X176421712Y-160731078D03*
X175496712Y-160731078D03*
X179650141Y-158981078D03*
X180575141Y-158981078D03*
X180575141Y-160731078D03*
X179650141Y-160731078D03*
X183767043Y-158981078D03*
X184692043Y-158981078D03*
X184692043Y-160731078D03*
X183767043Y-160731078D03*
X187859191Y-158981078D03*
X188784191Y-158981078D03*
X188784191Y-160731078D03*
X187859191Y-160731078D03*
X191933756Y-158981078D03*
X192858756Y-158981078D03*
X192858756Y-160731078D03*
X191933756Y-160731078D03*
X195995362Y-158981078D03*
X196920362Y-158981078D03*
X196920362Y-160731078D03*
X195995362Y-160731078D03*
X200047137Y-158981078D03*
X200972137Y-158981078D03*
X200972137Y-160731078D03*
X200047137Y-160731078D03*
X204091270Y-158981078D03*
X205016270Y-158981078D03*
X205016270Y-160731078D03*
X204091270Y-160731078D03*
X208129345Y-158981078D03*
X209054345Y-158981078D03*
X209054345Y-160731078D03*
X208129345Y-160731078D03*
X212162533Y-158981078D03*
X213087533Y-158981078D03*
X213087533Y-160731078D03*
X212162533Y-160731078D03*
X216191721Y-158981078D03*
X217116721Y-158981078D03*
X217116721Y-160731078D03*
X216191721Y-160731078D03*
X220217594Y-158981078D03*
X221142594Y-158981078D03*
X221142594Y-160731078D03*
X220217594Y-160731078D03*
X168623957Y-165551796D03*
X169548957Y-165551796D03*
X169548957Y-167301796D03*
X168623957Y-167301796D03*
X173311084Y-165551796D03*
X174236084Y-165551796D03*
X174236084Y-167301796D03*
X173311084Y-167301796D03*
X177787699Y-165551796D03*
X178712699Y-165551796D03*
X178712699Y-167301796D03*
X177787699Y-167301796D03*
X182140632Y-165551796D03*
X183065632Y-165551796D03*
X183065632Y-167301796D03*
X182140632Y-167301796D03*
X186413707Y-165551796D03*
X187338707Y-165551796D03*
X187338707Y-167301796D03*
X186413707Y-167301796D03*
X190631844Y-165551796D03*
X191556844Y-165551796D03*
X191556844Y-167301796D03*
X190631844Y-167301796D03*
X194810401Y-165551796D03*
X195735401Y-165551796D03*
X195735401Y-167301796D03*
X194810401Y-167301796D03*
X198959419Y-165551796D03*
X199884419Y-165551796D03*
X199884419Y-167301796D03*
X198959419Y-167301796D03*
X203085763Y-165551796D03*
X204010763Y-165551796D03*
X204010763Y-167301796D03*
X203085763Y-167301796D03*
X207194303Y-165551796D03*
X208119303Y-165551796D03*
X208119303Y-167301796D03*
X207194303Y-167301796D03*
X211288592Y-165551796D03*
X212213592Y-165551796D03*
X212213592Y-167301796D03*
X211288592Y-167301796D03*
X215371290Y-165551796D03*
X216296290Y-165551796D03*
X216296290Y-167301796D03*
X215371290Y-167301796D03*
X219444426Y-165551796D03*
X220369426Y-165551796D03*
X220369426Y-167301796D03*
X219444426Y-167301796D03*
X163723648Y-172122515D03*
X164648648Y-172122515D03*
X164648648Y-173872515D03*
X163723648Y-173872515D03*
X169590860Y-172122515D03*
X170515860Y-172122515D03*
X170515860Y-173872515D03*
X169590860Y-173872515D03*
X174737256Y-172122515D03*
X175662256Y-172122515D03*
X175662256Y-173872515D03*
X174737256Y-173872515D03*
X179536136Y-172122515D03*
X180461136Y-172122515D03*
X180461136Y-173872515D03*
X179536136Y-173872515D03*
X184132422Y-172122515D03*
X185057422Y-172122515D03*
X185057422Y-173872515D03*
X184132422Y-173872515D03*
X188597698Y-172122515D03*
X189522698Y-172122515D03*
X189522698Y-173872515D03*
X188597698Y-173872515D03*
X192972388Y-172122515D03*
X193897388Y-172122515D03*
X193897388Y-173872515D03*
X192972388Y-173872515D03*
X197281400Y-172122515D03*
X198206400Y-172122515D03*
X198206400Y-173872515D03*
X197281400Y-173872515D03*
X201541062Y-172122515D03*
X202466062Y-172122515D03*
X202466062Y-173872515D03*
X201541062Y-173872515D03*
X205762591Y-172122515D03*
X206687591Y-172122515D03*
X206687591Y-173872515D03*
X205762591Y-173872515D03*
X209953982Y-172122515D03*
X210878982Y-172122515D03*
X210878982Y-173872515D03*
X209953982Y-173872515D03*
X214121103Y-172122515D03*
X215046103Y-172122515D03*
X215046103Y-173872515D03*
X214121103Y-173872515D03*
X218268368Y-172122515D03*
X219193368Y-172122515D03*
X219193368Y-173872515D03*
X218268368Y-173872515D03*
X163129502Y-178693233D03*
X164054502Y-178693233D03*
X164054502Y-180443233D03*
X163129502Y-180443233D03*
X169973570Y-178693233D03*
X170898570Y-178693233D03*
X170898570Y-180443233D03*
X169973570Y-180443233D03*
X175662649Y-178693233D03*
X176587649Y-178693233D03*
X176587649Y-180443233D03*
X175662649Y-180443233D03*
X180833089Y-178693233D03*
X181758089Y-178693233D03*
X181758089Y-180443233D03*
X180833089Y-180443233D03*
X185707990Y-178693233D03*
X186632990Y-178693233D03*
X186632990Y-180443233D03*
X185707990Y-180443233D03*
X190393280Y-178693233D03*
X191318280Y-178693233D03*
X191318280Y-180443233D03*
X190393280Y-180443233D03*
X194947689Y-178693233D03*
X195872689Y-178693233D03*
X195872689Y-180443233D03*
X194947689Y-180443233D03*
X199407087Y-178693233D03*
X200332087Y-178693233D03*
X200332087Y-180443233D03*
X199407087Y-180443233D03*
X203794906Y-178693233D03*
X204719906Y-178693233D03*
X204719906Y-180443233D03*
X203794906Y-180443233D03*
X208127231Y-178693233D03*
X209052231Y-178693233D03*
X209052231Y-180443233D03*
X208127231Y-180443233D03*
X212415533Y-178693233D03*
X213340533Y-178693233D03*
X213340533Y-180443233D03*
X212415533Y-180443233D03*
X216668249Y-178693233D03*
X217593249Y-178693233D03*
X217593249Y-180443233D03*
X216668249Y-180443233D03*
X161615975Y-185263952D03*
X162540975Y-185263952D03*
X162540975Y-187013952D03*
X161615975Y-187013952D03*
X169805209Y-185263952D03*
X170730209Y-185263952D03*
X170730209Y-187013952D03*
X169805209Y-187013952D03*
X176139576Y-185263952D03*
X177064576Y-185263952D03*
X177064576Y-187013952D03*
X176139576Y-187013952D03*
X181733166Y-185263952D03*
X182658166Y-185263952D03*
X182658166Y-187013952D03*
X181733166Y-187013952D03*
X186920001Y-185263952D03*
X187845001Y-185263952D03*
X187845001Y-187013952D03*
X186920001Y-187013952D03*
X191849931Y-185263952D03*
X192774931Y-185263952D03*
X192774931Y-187013952D03*
X191849931Y-187013952D03*
X196603754Y-185263952D03*
X197528754Y-185263952D03*
X197528754Y-187013952D03*
X196603754Y-187013952D03*
X201230079Y-185263952D03*
X202155079Y-185263952D03*
X202155079Y-187013952D03*
X201230079Y-187013952D03*
X205760388Y-185263952D03*
X206685388Y-185263952D03*
X206685388Y-187013952D03*
X205760388Y-187013952D03*
X210216192Y-185263952D03*
X211141192Y-185263952D03*
X211141192Y-187013952D03*
X210216192Y-187013952D03*
X214612796Y-185263952D03*
X215537796Y-185263952D03*
X215537796Y-187013952D03*
X214612796Y-187013952D03*
X158740103Y-191834670D03*
X159665103Y-191834670D03*
X159665103Y-193584670D03*
X158740103Y-193584670D03*
X169071531Y-191834670D03*
X169996531Y-191834670D03*
X169996531Y-193584670D03*
X169071531Y-193584670D03*
X176192121Y-191834670D03*
X177117121Y-191834670D03*
X177117121Y-193584670D03*
X176192121Y-193584670D03*
X182269125Y-191834670D03*
X183194125Y-191834670D03*
X183194125Y-193584670D03*
X182269125Y-193584670D03*
X187803016Y-191834670D03*
X188728016Y-191834670D03*
X188728016Y-193584670D03*
X187803016Y-193584670D03*
X193001740Y-191834670D03*
X193926740Y-191834670D03*
X193926740Y-193584670D03*
X193001740Y-193584670D03*
X197973340Y-191834670D03*
X198898340Y-191834670D03*
X198898340Y-193584670D03*
X197973340Y-193584670D03*
X202781477Y-191834670D03*
X203706477Y-191834670D03*
X203706477Y-193584670D03*
X202781477Y-193584670D03*
X207466867Y-191834670D03*
X208391867Y-191834670D03*
X208391867Y-193584670D03*
X207466867Y-193584670D03*
X212057113Y-191834670D03*
X212982113Y-191834670D03*
X212982113Y-193584670D03*
X212057113Y-193584670D03*
X150604070Y-198405389D03*
X151529070Y-198405389D03*
X151529070Y-200155389D03*
X150604070Y-200155389D03*
X167704173Y-198405389D03*
X168629173Y-198405389D03*
X168629173Y-200155389D03*
X167704173Y-200155389D03*
X175822828Y-198405389D03*
X176747828Y-198405389D03*
X176747828Y-200155389D03*
X175822828Y-200155389D03*
X182458753Y-198405389D03*
X183383753Y-198405389D03*
X183383753Y-200155389D03*
X182458753Y-200155389D03*
X188379480Y-198405389D03*
X189304480Y-198405389D03*
X189304480Y-200155389D03*
X188379480Y-200155389D03*
X193872473Y-198405389D03*
X194797473Y-198405389D03*
X194797473Y-200155389D03*
X193872473Y-200155389D03*
X199080212Y-198405389D03*
X200005212Y-198405389D03*
X200005212Y-200155389D03*
X199080212Y-200155389D03*
X204084459Y-198405389D03*
X205009459Y-198405389D03*
X205009459Y-200155389D03*
X204084459Y-200155389D03*
X208936668Y-198405389D03*
X209861668Y-198405389D03*
X209861668Y-200155389D03*
X208936668Y-200155389D03*
D15*
X143750000Y-163948920D03*
D16*
X143750000Y-160911080D03*
X141210000Y-163948920D03*
X141210000Y-160911080D03*
X138670000Y-163948920D03*
X138670000Y-160911080D03*
X136130000Y-163948920D03*
X136130000Y-160911080D03*
D17*
X126238000Y-182118000D03*
D18*
X126238000Y-184658000D03*
X126238000Y-187198000D03*
X126238000Y-189738000D03*
X126238000Y-192278000D03*
X126238000Y-194818000D03*
D13*
X117480000Y-208500000D03*
D14*
X120020000Y-208500000D03*
D19*
X80705740Y-152900680D03*
X80705740Y-147099320D03*
D20*
X77825380Y-152725420D03*
X77825380Y-147274580D03*
D21*
X99164806Y-210659142D02*
X98739142Y-211084806D01*
X98266781Y-209761117D02*
X97841117Y-210186781D01*
X100062832Y-211557168D02*
X99637168Y-211982832D01*
D22*
X122428000Y-182118000D03*
D23*
X122428000Y-184658000D03*
X122428000Y-187198000D03*
D10*
G36*
X129384414Y-96411846D02*
X127880256Y-97916004D01*
X126376098Y-96411846D01*
X127880256Y-94907688D01*
X129384414Y-96411846D01*
X129384414Y-96411846D01*
G37*
D24*
X126084205Y-94615795D02*
X126084205Y-94615795D01*
X126084205Y-98207897D02*
X126084205Y-98207897D01*
X124288154Y-96411846D02*
X124288154Y-96411846D01*
X124288154Y-100003948D02*
X124288154Y-100003948D01*
X122492102Y-98207897D02*
X122492102Y-98207897D01*
X122492102Y-101800000D02*
X122492102Y-101800000D01*
X120696051Y-100003948D02*
X120696051Y-100003948D01*
X120696051Y-103596051D02*
X120696051Y-103596051D01*
X118900000Y-101800000D02*
X118900000Y-101800000D01*
X118900000Y-105392102D02*
X118900000Y-105392102D01*
X117103949Y-103596051D02*
X117103949Y-103596051D01*
X117103949Y-107188153D02*
X117103949Y-107188153D01*
X115307897Y-105392102D02*
X115307897Y-105392102D01*
X115307897Y-108984205D02*
X115307897Y-108984205D01*
X113511846Y-107188153D02*
X113511846Y-107188153D01*
X113511846Y-110780256D02*
X113511846Y-110780256D01*
X111715795Y-108984205D02*
X111715795Y-108984205D01*
M02*
