M48
;DRILL file {KiCad (2016-03-23 BZR 6647, Git bc699c8)-product} date Sun 10 Apr 2016 18:41:33 CEST
;FORMAT={-:-/ absolute / inch / decimal}
FMAT,2
INCH,TZ
T1C0.012
T2C0.024
T3C0.026
T4C0.028
T5C0.039
T6C0.040
T7C0.138
%
G90
G05
M72
T1
X3.2276Y-5.8476
X3.244Y-6.0158
X3.2441Y-6.0551
X3.2441Y-6.0945
X3.2476Y-5.7079
X3.4431Y-6.0039
X3.4455Y-5.6988
X3.4792Y-6.0267
X3.4921Y-6.3622
X3.5004Y-5.4843
X3.5085Y-6.0564
X3.5342Y-6.0869
X3.5747Y-5.4558
X3.5747Y-5.5209
X3.6251Y-5.9965
X3.6268Y-6.2831
X3.7187Y-6.0564
X3.7196Y-5.6741
X3.7205Y-5.6102
X3.7205Y-5.9031
X3.7209Y-5.8528
X3.7213Y-5.7142
X3.7219Y-5.9979
X3.7231Y-6.0928
X3.7242Y-6.3645
X3.7275Y-6.3316
X3.7501Y-6.068
X3.7529Y-4.9975
X3.7536Y-4.9612
X3.7546Y-5.0372
X3.7626Y-6.4104
X3.7907Y-6.3224
X3.796Y-6.41
X3.8203Y-6.2437
X3.8294Y-6.5124
X3.8323Y-6.6823
X3.8408Y-5.8057
X3.8417Y-5.2831
X3.8484Y-5.502
X3.8636Y-6.2422
X3.878Y-7.9724
X3.878Y-8.0709
X3.8912Y-6.019
X3.8961Y-5.9814
X3.9045Y-6.2727
X3.9147Y-6.3947
X3.9202Y-6.303
X3.9533Y-6.5662
X3.9922Y-7.1788
X3.9961Y-7.2146
X3.9963Y-5.5031
X4.0312Y-6.4091
X4.0352Y-5.5027
X4.0354Y-7.6378
X4.0354Y-7.9429
X4.0453Y-7.5787
X4.0453Y-7.687
X4.0453Y-7.8839
X4.0453Y-8.002
X4.0642Y-6.4108
X4.1094Y-6.8707
X4.124Y-7.0669
X4.124Y-7.3228
X4.1537Y-5.5031
X4.179Y-5.7875
X4.1791Y-8.2327
X4.185Y-8.2717
X4.1913Y-4.7256
X4.1927Y-5.5027
X4.2028Y-6.5059
X4.2111Y-5.801
X4.2154Y-5.2484
X4.2303Y-8.2669
X4.2421Y-6.9882
X4.252Y-8.3563
X4.2618Y-7.1752
X4.2618Y-7.2146
X4.2815Y-8.3858
X4.2836Y-6.9395
X4.3201Y-6.6807
X4.3209Y-6.5059
X4.3248Y-5.5441
X4.3504Y-7.0374
X4.3504Y-8.4055
X4.3602Y-7.1457
X4.3689Y-5.9953
X4.3898Y-8.376
X4.3944Y-6.4112
X4.397Y-7.1468
X4.3984Y-6.6366
X4.4059Y-7.0376
X4.4063Y-5.248
X4.4091Y-5.9961
X4.4291Y-8.3563
X4.4362Y-6.5075
X4.4409Y-5.5079
X4.4482Y-7.6913
X4.4523Y-5.6429
X4.4606Y-6.4127
X4.4796Y-5.5083
X4.4936Y-6.411
X4.4943Y-5.6461
X4.5088Y-6.5099
X4.5106Y-7.6773
X4.5106Y-6.6768
X4.5189Y-5.5062
X4.5264Y-6.4074
X4.5289Y-5.8474
X4.5291Y-5.3559
X4.548Y-7.252
X4.5531Y-7.0154
X4.5665Y-6.5839
X4.5945Y-6.1929
X4.6148Y-5.5768
X4.6153Y-5.7186
X4.6158Y-6.1409
X4.6269Y-6.5369
X4.6271Y-6.2645
X4.6289Y-5.887
X4.6289Y-6.0336
X4.6291Y-6.1929
X4.6291Y-6.0736
X4.6295Y-5.8512
X4.6331Y-5.6146
X4.6373Y-6.582
X4.6412Y-5.4539
X4.6488Y-6.5088
X4.6518Y-6.6225
X4.6917Y-5.3575
X4.7118Y-7.3228
X4.73Y-6.3302
X4.7378Y-5.7413
X4.7473Y-7.5946
X4.75Y-5.3193
X4.848Y-6.2772
X4.8504Y-8.5579
X4.8547Y-5.615
X4.8988Y-6.2067
X4.9016Y-5.6496
X4.9415Y-7.9497
X4.9783Y-8.1516
X4.9791Y-7.9918
X5.0138Y-6.2024
X5.019Y-8.0333
X5.0213Y-4.324
X5.0322Y-8.0749
X5.0646Y-4.9929
X5.0657Y-8.2528
X5.0929Y-6.6898
X5.1073Y-8.2501
X5.1231Y-7.0115
X5.1272Y-5.165
X5.1363Y-6.6497
X5.1479Y-8.2481
X5.1487Y-3.763
X5.1541Y-4.447
X5.1547Y-4.3912
X5.1553Y-3.7066
X5.1561Y-4.3346
X5.1563Y-4.1672
X5.1563Y-4.223
X5.1572Y-4.2763
X5.188Y-4.4465
X5.1883Y-7.4849
X5.1889Y-4.3893
X5.1894Y-4.3323
X5.19Y-4.1675
X5.1903Y-4.2222
X5.1907Y-7.5335
X5.1911Y-4.2735
X5.1995Y-7.8975
X5.1996Y-7.3734
X5.2007Y-7.4222
X5.2016Y-7.7731
X5.2025Y-3.9732
X5.2072Y-7.8365
X5.2165Y-7.952
X5.2171Y-7.5548
X5.2184Y-7.5012
X5.2247Y-3.8999
X5.2252Y-3.398
X5.2258Y-7.4448
X5.2292Y-7.3898
X5.2324Y-4.4469
X5.2324Y-7.9025
X5.2326Y-4.3335
X5.2326Y-4.3915
X5.233Y-4.1662
X5.2347Y-4.2775
X5.2348Y-4.2225
X5.2358Y-7.7768
X5.238Y-3.9722
X5.2382Y-7.8366
X5.247Y-7.9576
X5.2481Y-7.5548
X5.2505Y-7.4998
X5.2568Y-7.4448
X5.2602Y-7.3898
X5.2643Y-3.9013
X5.2674Y-7.9025
X5.2686Y-7.7773
X5.2712Y-7.8355
X5.2796Y-7.9575
X5.2813Y-3.9701
X5.2858Y-7.3337
X5.2964Y-4.8723
X5.3021Y-3.9008
X5.3642Y-7.2976
X5.3673Y-7.9583
X5.3976Y-7.2984
X5.4028Y-7.9575
X5.4881Y-4.1888
X5.4882Y-4.0827
X5.4882Y-4.1181
X5.4882Y-4.1536
X5.4882Y-4.2244
X5.4882Y-7.5866
X5.4882Y-7.6221
X5.4882Y-7.6575
X5.4882Y-7.6929
X5.4883Y-7.7283
X5.5313Y-4.1888
X5.5314Y-4.2233
X5.5315Y-4.0827
X5.5315Y-4.1181
X5.5315Y-4.1536
X5.5315Y-7.5866
X5.5315Y-7.6221
X5.5315Y-7.6575
X5.5315Y-7.6929
X5.5315Y-7.7283
X5.5743Y-7.7283
X5.5746Y-4.1888
X5.5748Y-4.0827
X5.5748Y-4.1181
X5.5748Y-4.1536
X5.5748Y-7.5866
X5.5748Y-7.6221
X5.5748Y-7.6575
X5.5748Y-7.6929
X5.5749Y-4.2233
X5.5932Y-8.4063
X5.6113Y-8.3792
X5.6182Y-7.0688
X5.6182Y-4.521
X5.6262Y-8.4065
X5.6362Y-6.7637
X5.638Y-6.708
X5.6397Y-6.9651
X5.6397Y-7.0183
X5.6398Y-6.8183
X5.6414Y-6.9186
X5.6417Y-6.8681
X5.6432Y-7.0916
X5.6501Y-4.5235
X5.6552Y-5.0403
X5.6572Y-4.9883
X5.6577Y-4.8871
X5.658Y-4.8383
X5.659Y-4.6943
X5.6592Y-4.9449
X5.6599Y-4.741
X5.6608Y-4.7873
X5.6623Y-7.0396
X5.6683Y-6.9825
X5.6704Y-6.9294
X5.6708Y-6.8198
X5.6714Y-6.763
X5.6721Y-6.7064
X5.6726Y-6.8766
X5.6862Y-7.0944
X5.688Y-4.9919
X5.6882Y-5.0411
X5.6898Y-4.8837
X5.6902Y-4.9365
X5.6907Y-4.8225
X5.6923Y-4.7743
X5.6931Y-4.7224
X5.6937Y-4.518
X5.6937Y-4.6689
X5.7053Y-7.039
X5.7113Y-6.9839
X5.7138Y-6.8189
X5.7138Y-6.9289
X5.7145Y-6.761
X5.7158Y-6.706
X5.7166Y-6.8739
X5.7224Y-3.8646
X5.7312Y-5.0443
X5.7338Y-4.9893
X5.734Y-4.8793
X5.7344Y-4.9343
X5.7353Y-4.8243
X5.7362Y-4.7143
X5.7362Y-4.7693
X5.7367Y-4.6592
X5.7387Y-5.3943
X5.7428Y-7.927
X5.7445Y-3.8886
X5.7547Y-3.8332
X5.755Y-3.807
X5.7571Y-8.3016
X5.7594Y-8.4012
X5.7941Y-8.4025
X5.7955Y-3.3801
X5.7999Y-3.4135
X5.809Y-3.4576
X5.8173Y-7.3197
X5.8184Y-8.2557
X5.8205Y-8.3071
X5.8221Y-3.3435
X5.8294Y-6.0081
X5.8429Y-7.3433
X5.8432Y-8.4357
X5.8436Y-3.3759
X5.8455Y-8.4725
X5.8528Y-3.3279
X5.8549Y-3.4243
X5.8562Y-8.5033
X5.8708Y-5.7443
X5.8711Y-3.3555
X5.8785Y-3.8993
X5.8882Y-8.4291
X5.8903Y-8.4737
X5.8904Y-8.5048
X5.8907Y-3.2996
X5.891Y-5.7805
X5.8984Y-6.7728
X5.8993Y-3.3895
X5.9037Y-6.0584
X5.9098Y-5.5534
X5.9157Y-5.5083
X5.9167Y-3.3212
X5.9192Y-5.7133
X5.9235Y-6.7975
X5.9242Y-5.6777
X5.926Y-5.6264
X5.9353Y-5.7802
X5.9356Y-6.0597
X5.9369Y-6.1403
X5.9424Y-6.0045
X5.9432Y-8.427
X5.9435Y-5.492
X5.9444Y-5.5455
X5.9448Y-3.354
X5.9452Y-8.4716
X5.9459Y-8.5035
X5.9469Y-5.6544
X5.947Y-5.6006
X5.95Y-6.5353
X5.9507Y-6.4373
X5.9509Y-5.7109
X5.9518Y-6.482
X5.9526Y-6.5776
X5.9531Y-6.7954
X5.9661Y-7.7736
X5.9701Y-6.1407
X5.9721Y-6.1947
X5.9734Y-6.0063
X5.9807Y-6.0613
X5.9815Y-5.2801
X5.9826Y-8.5048
X5.9836Y-6.5763
X5.9846Y-6.468
X5.9849Y-6.5237
X5.9859Y-6.4174
X5.9865Y-5.4902
X5.9877Y-5.5455
X5.99Y-5.6017
X5.9906Y-5.6578
X5.9939Y-5.713
X5.9963Y-3.9314
X5.9986Y-8.4264
X6.0017Y-6.1398
X6.0021Y-8.4719
X6.0024Y-5.2476
X6.0031Y-6.1964
X6.0127Y-5.2926
X6.0146Y-6.5799
X6.0159Y-6.0608
X6.0159Y-6.523
X6.016Y-5.9921
X6.0162Y-6.468
X6.0172Y-6.4121
X6.0228Y-6.7917
X6.0349Y-5.2476
X6.0393Y-4.7596
X6.0394Y-4.6536
X6.0394Y-4.689
X6.0394Y-4.7245
X6.0394Y-7.0158
X6.0394Y-7.0512
X6.0394Y-7.0866
X6.0394Y-7.1221
X6.0394Y-7.1575
X6.0403Y-4.7944
X6.0412Y-5.9707
X6.0439Y-5.2997
X6.0512Y-3.6386
X6.0512Y-3.6819
X6.0512Y-3.7252
X6.0512Y-8.0866
X6.0512Y-8.1299
X6.0512Y-8.1732
X6.068Y-5.2466
X6.0825Y-4.7596
X6.0826Y-4.6535
X6.0826Y-4.689
X6.0826Y-4.7942
X6.0827Y-4.7245
X6.0827Y-7.0158
X6.0827Y-7.0512
X6.0827Y-7.0866
X6.0827Y-7.1221
X6.0827Y-7.1575
X6.0866Y-3.6386
X6.0866Y-3.6819
X6.0866Y-3.7252
X6.0866Y-8.0866
X6.0866Y-8.1299
X6.0866Y-8.1732
X6.1181Y-6.5898
X6.122Y-3.6386
X6.122Y-3.6819
X6.122Y-3.7252
X6.122Y-8.0866
X6.122Y-8.1299
X6.122Y-8.1732
X6.1258Y-4.7596
X6.126Y-4.6536
X6.126Y-4.689
X6.126Y-4.7245
X6.126Y-7.0158
X6.126Y-7.0512
X6.126Y-7.0866
X6.126Y-7.1221
X6.126Y-7.1575
X6.126Y-4.7942
X6.1276Y-3.3555
X6.1394Y-4.4688
X6.1398Y-4.0756
X6.1469Y-6.5894
X6.1575Y-3.6386
X6.1575Y-3.6819
X6.1575Y-3.7252
X6.1575Y-8.0866
X6.1575Y-8.1299
X6.1575Y-8.1732
X6.1705Y-5.9968
X6.1714Y-4.4745
X6.1729Y-5.964
X6.1811Y-7.7472
X6.1929Y-3.6386
X6.1929Y-3.6819
X6.1929Y-3.7252
X6.1929Y-8.0866
X6.1929Y-8.1299
X6.1929Y-8.1732
X6.2161Y-5.024
X6.2165Y-5.0591
X6.2169Y-8.4063
X6.2357Y-5.5466
X6.2358Y-5.4406
X6.2358Y-5.476
X6.2358Y-5.5115
X6.2358Y-5.5823
X6.2361Y-6.3344
X6.2362Y-6.2284
X6.2362Y-6.2638
X6.2362Y-6.2993
X6.2362Y-6.3701
X6.2529Y-8.4401
X6.2654Y-8.4719
X6.271Y-3.3735
X6.2729Y-3.4064
X6.279Y-5.5466
X6.2791Y-5.5812
X6.2791Y-5.4406
X6.2791Y-5.476
X6.2791Y-5.5115
X6.2794Y-6.3344
X6.2795Y-6.369
X6.2795Y-6.2284
X6.2795Y-6.2638
X6.2795Y-6.2993
X6.2953Y-6.7917
X6.2953Y-3.3458
X6.3077Y-8.4741
X6.3109Y-8.3944
X6.3146Y-8.4311
X6.3223Y-5.5466
X6.3224Y-5.4406
X6.3224Y-5.476
X6.3224Y-5.5115
X6.3225Y-5.5812
X6.3227Y-6.3344
X6.3228Y-6.2284
X6.3228Y-6.2638
X6.3228Y-6.2993
X6.3229Y-6.369
X6.3334Y-3.4164
X6.3391Y-3.3804
X6.3415Y-5.0575
X6.3507Y-3.3495
X6.3543Y-8.396
X6.3598Y-8.4637
X6.3633Y-8.4289
X6.3736Y-5.8394
X6.376Y-5.8098
X6.3884Y-3.4217
X6.3895Y-8.607
X6.3903Y-3.3894
X6.3948Y-3.3507
X6.4017Y-8.4446
X6.4091Y-8.4144
X6.4093Y-8.3796
X6.4115Y-3.8145
X6.4126Y-3.8429
X6.4173Y-7.2563
X6.4184Y-8.2587
X6.4211Y-8.2927
X6.4272Y-4.4508
X6.4303Y-5.2205
X6.4344Y-3.3974
X6.4347Y-3.4299
X6.4362Y-3.4608
X6.4378Y-8.5569
X6.4705Y-5.9535
X6.4787Y-5.2391
X6.4886Y-7.0305
X6.4945Y-5.8406
X6.5062Y-6.7707
X6.5079Y-4.9646
X6.524Y-4.5409
X6.5614Y-3.7394
X6.587Y-3.739
X6.5917Y-8.3402
X6.5994Y-8.4975
X6.6043Y-8.3106
X6.6083Y-3.8287
X6.6256Y-5.0823
X6.6277Y-8.5234
X6.637Y-5.4878
X6.637Y-7.7808
X6.6474Y-8.4983
X6.6526Y-3.93
X6.6642Y-3.395
X6.6651Y-3.3631
X6.6653Y-3.4385
X6.6668Y-6.2573
X6.6957Y-5.7598
X6.6979Y-3.3654
X6.7018Y-5.224
X6.7064Y-5.9867
X6.7072Y-3.3962
X6.7077Y-6.533
X6.7165Y-4.1953
X6.7203Y-3.4398
X6.7248Y-7.5638
X6.7364Y-6.7752
X6.7472Y-7.27
X6.7606Y-4.7142
X6.7776Y-6.9496
X6.8043Y-5.4811
X6.8169Y-4.7776
X6.8221Y-6.256
X6.8308Y-8.472
X6.8318Y-8.441
X6.8321Y-8.41
X6.8386Y-8.0866
X6.8386Y-8.1299
X6.8386Y-8.1732
X6.839Y-3.6378
X6.839Y-3.6811
X6.839Y-3.7244
X6.8575Y-5.9854
X6.8575Y-5.7472
X6.874Y-8.0866
X6.874Y-8.1299
X6.874Y-8.1732
X6.8744Y-3.6378
X6.8744Y-3.6811
X6.8744Y-3.7244
X6.8776Y-7.7303
X6.8791Y-5.2488
X6.8811Y-8.4752
X6.8839Y-4.835
X6.8854Y-8.4435
X6.8871Y-8.4112
X6.889Y-4.415
X6.9094Y-8.0866
X6.9094Y-8.1299
X6.9094Y-8.1732
X6.9098Y-3.6378
X6.9098Y-3.6811
X6.9098Y-3.7244
X6.9099Y-6.739
X6.9171Y-8.4773
X6.9256Y-6.4732
X6.9307Y-3.3499
X6.9309Y-8.4464
X6.9349Y-3.3848
X6.9402Y-3.4191
X6.9417Y-4.9661
X6.9429Y-8.4136
X6.9449Y-8.0866
X6.9449Y-8.1299
X6.9449Y-8.1732
X6.9453Y-3.6378
X6.9453Y-3.6811
X6.9453Y-3.7244
X6.9648Y-8.4742
X6.972Y-5.5047
X6.9744Y-6.2568
X6.9767Y-3.3316
X6.978Y-7.0378
X6.9798Y-3.9451
X6.9803Y-8.0866
X6.9803Y-8.1299
X6.9803Y-8.1732
X6.9807Y-3.6378
X6.9807Y-3.6811
X6.9807Y-3.7244
X6.9859Y-3.3613
X6.9882Y-8.4486
X6.9957Y-3.3914
X6.9988Y-4.1943
X6.9995Y-8.4155
X7.0042Y-8.4757
X7.0094Y-6.474
X7.0161Y-5.7421
X7.0173Y-5.9854
X7.0354Y-7.5055
X7.0365Y-3.3436
X7.0378Y-4.243
X7.0387Y-3.3806
X7.044Y-7.5625
X7.0506Y-3.4124
X7.0545Y-8.4176
X7.0567Y-8.6232
X7.0591Y-5.2323
X7.0604Y-8.4654
X7.0609Y-4.2182
X7.0719Y-7.541
X7.0806Y-3.3551
X7.0872Y-3.3867
X7.0882Y-3.2413
X7.0912Y-7.5013
X7.0953Y-6.7331
X7.1038Y-8.4531
X7.106Y-3.4191
X7.1084Y-4.2345
X7.1197Y-6.4732
X7.1296Y-8.394
X7.1302Y-3.3804
X7.1311Y-5.5039
X7.1314Y-8.4266
X7.1326Y-6.2502
X7.1339Y-4.951
X7.1494Y-3.4048
X7.1626Y-3.4329
X7.1652Y-6.2555
X7.1666Y-4.9462
X7.1718Y-5.7533
X7.1726Y-8.3942
X7.1743Y-4.9771
X7.1744Y-5.9858
X7.1748Y-6.7714
X7.1783Y-5.4922
X7.1845Y-7.0069
X7.186Y-6.2785
X7.1862Y-4.7339
X7.1878Y-5.5237
X7.1983Y-8.3723
X7.1997Y-3.8452
X7.2004Y-3.8134
X7.2039Y-6.7831
X7.2053Y-6.3027
X7.208Y-5.7551
X7.2138Y-5.7131
X7.2146Y-5.4881
X7.2164Y-4.4474
X7.2197Y-7.3035
X7.2205Y-8.3497
X7.2248Y-6.7602
X7.2278Y-3.8636
X7.2306Y-4.958
X7.2332Y-4.5411
X7.2348Y-6.0389
X7.2361Y-3.5085
X7.2373Y-5.2285
X7.2386Y-4.1915
X7.2425Y-5.7274
X7.2429Y-7.5583
X7.2547Y-7.7976
X7.26Y-3.5329
X7.2655Y-4.5318
X7.2673Y-6.1035
X7.2686Y-3.5032
X7.2721Y-6.9223
X7.2726Y-7.1787
X7.2827Y-8.3536
X7.2931Y-6.2838
X7.2988Y-4.5097
X7.2996Y-5.5189
X7.3016Y-6.102
X7.3051Y-4.9591
X7.3051Y-8.3311
X7.3173Y-7.1823
X7.3199Y-6.7661
X7.3203Y-5.4559
X7.3232Y-3.7801
X7.3257Y-6.2889
X7.3288Y-5.0095
X7.3291Y-5.9858
X7.3305Y-5.7406
X7.3339Y-6.9937
X7.3382Y-3.8161
X7.3383Y-3.8457
X7.3417Y-6.0719
X7.3529Y-4.9862
X7.3532Y-5.7952
X7.3562Y-6.2941
X7.3682Y-6.7409
X7.3701Y-4.7157
X7.3701Y-6.3219
X7.3745Y-7.1882
X7.376Y-6.4728
X7.3763Y-5.4989
X7.3793Y-8.3572
X7.3834Y-5.7474
X7.3902Y-6.7689
X7.3988Y-4.402
X7.3992Y-5.7207
X7.3998Y-6.9774
X7.4001Y-6.0099
X7.4026Y-8.2607
X7.4028Y-8.2949
X7.4035Y-5.3358
X7.4052Y-5.2294
X7.407Y-8.3917
X7.4083Y-4.9732
X7.4146Y-7.1271
X7.4244Y-7.2957
X7.4246Y-8.4172
X7.4256Y-4.7488
X7.4259Y-6.736
X7.4268Y-4.7807
X7.4287Y-7.5114
X7.4315Y-5.3182
X7.4355Y-7.1697
X7.4374Y-7.9224
X7.4385Y-6.9581
X7.4424Y-6.4735
X7.4495Y-4.4766
X7.4501Y-8.3885
X7.4559Y-7.1443
X7.4569Y-4.5084
X7.457Y-5.5234
X7.4573Y-5.4866
X7.4579Y-6.2878
X7.459Y-6.9918
X7.4602Y-6.1059
X7.4616Y-8.4411
X7.4621Y-4.2852
X7.4631Y-3.4429
X7.4634Y-3.3997
X7.4643Y-4.7318
X7.465Y-6.7346
X7.4672Y-5.3182
X7.4777Y-7.2831
X7.4787Y-8.4669
X7.4818Y-6.4475
X7.4819Y-7.8225
X7.4824Y-5.9919
X7.485Y-5.4213
X7.4863Y-6.9013
X7.4876Y-4.0206
X7.4878Y-3.3689
X7.4878Y-4.9693
X7.4894Y-5.7442
X7.4921Y-6.2874
X7.4961Y-6.8465
X7.4996Y-7.2147
X7.5032Y-6.7069
X7.5053Y-7.2971
X7.5096Y-6.811
X7.5118Y-5.0609
X7.5125Y-5.8145
X7.5157Y-5.4928
X7.5161Y-4.4818
X7.5196Y-3.3655
X7.5204Y-3.4423
X7.5213Y-6.9783
X7.5213Y-3.398
X7.522Y-6.3008
X7.5228Y-7.267
X7.5235Y-6.9206
X7.528Y-6.8606
X7.5311Y-6.3331
X7.5325Y-6.7294
X7.5336Y-5.7833
X7.5354Y-4.4016
X7.541Y-5.0507
X7.5428Y-6.4564
X7.5445Y-7.2007
X7.5533Y-5.7458
X7.5547Y-4.7303
X7.5661Y-7.2229
X7.5665Y-7.0509
X7.5688Y-5.025
X7.5721Y-5.2278
X7.5735Y-4.6762
X7.5735Y-6.7427
X7.5791Y-5.9618
X7.5798Y-4.7957
X7.5807Y-6.1059
X7.5937Y-6.9742
X7.5941Y-7.0232
X7.5968Y-4.8326
X7.6005Y-7.0777
X7.6025Y-4.6654
X7.6054Y-6.4507
X7.6056Y-5.2784
X7.608Y-6.6634
X7.6094Y-4.9015
X7.6139Y-6.5097
X7.6165Y-5.9618
X7.6173Y-7.2878
X7.6177Y-6.1051
X7.6181Y-5.5282
X7.6217Y-6.2878
X7.6217Y-6.9882
X7.6224Y-5.4836
X7.6228Y-4.7895
X7.6256Y-3.6378
X7.6256Y-3.6811
X7.6256Y-3.7244
X7.626Y-8.0866
X7.626Y-8.1299
X7.626Y-8.1732
X7.6268Y-5.4127
X7.6271Y-5.3214
X7.6288Y-6.7319
X7.633Y-4.4929
X7.6409Y-6.4645
X7.641Y-4.6934
X7.6428Y-8.3885
X7.6442Y-5.7408
X7.6458Y-6.6574
X7.6472Y-4.8976
X7.6492Y-6.9713
X7.6499Y-5.8581
X7.6567Y-4.4728
X7.6572Y-8.4306
X7.6579Y-6.3276
X7.6594Y-6.6948
X7.66Y-5.8126
X7.6602Y-7.7713
X7.661Y-3.6378
X7.661Y-3.6811
X7.661Y-3.7244
X7.6614Y-8.0866
X7.6614Y-8.1299
X7.6614Y-8.1732
X7.6623Y-4.6004
X7.6626Y-6.2898
X7.6635Y-4.9714
X7.6719Y-6.7919
X7.6739Y-5.0688
X7.6766Y-6.8241
X7.6782Y-8.4573
X7.6799Y-7.2335
X7.684Y-4.8811
X7.686Y-5.4835
X7.6873Y-4.4934
X7.6885Y-6.8542
X7.6898Y-6.328
X7.6918Y-3.3498
X7.6925Y-5.3337
X7.6929Y-6.6422
X7.6964Y-3.6378
X7.6964Y-3.6811
X7.6964Y-3.7244
X7.6968Y-8.0866
X7.6968Y-8.1299
X7.6968Y-8.1732
X7.6978Y-8.392
X7.7005Y-3.3196
X7.7039Y-4.0402
X7.711Y-7.598
X7.7111Y-5.7618
X7.7128Y-5.0606
X7.7128Y-4.6004
X7.7128Y-8.4274
X7.7138Y-6.4621
X7.718Y-5.1036
X7.718Y-3.2893
X7.7192Y-6.6258
X7.7226Y-6.6753
X7.7306Y-8.4582
X7.7319Y-3.6378
X7.7319Y-3.6811
X7.7319Y-3.7244
X7.7323Y-8.0866
X7.7323Y-8.1299
X7.7323Y-8.1732
X7.7352Y-4.9104
X7.7357Y-5.2248
X7.7374Y-5.963
X7.738Y-6.1065
X7.7385Y-7.0354
X7.7385Y-4.7138
X7.742Y-5.2821
X7.7421Y-5.0398
X7.7423Y-3.3783
X7.7486Y-3.3436
X7.7528Y-8.3866
X7.7532Y-3.3062
X7.754Y-6.4879
X7.7542Y-5.1171
X7.7585Y-8.4238
X7.7597Y-4.669
X7.7605Y-6.6502
X7.7673Y-3.6378
X7.7673Y-3.6811
X7.7673Y-3.7244
X7.7677Y-8.0866
X7.7677Y-8.1299
X7.7677Y-8.1732
X7.7686Y-6.6192
X7.7689Y-4.9157
X7.7729Y-8.4544
X7.7732Y-3.9984
X7.7744Y-6.1065
X7.7768Y-5.9638
X7.7772Y-5.3051
X7.7776Y-5.4846
X7.782Y-3.4178
X7.7827Y-5.5236
X7.7844Y-4.6207
X7.787Y-6.2894
X7.7915Y-6.6489
X7.7925Y-4.6791
X7.7997Y-3.376
X7.8012Y-3.344
X7.8019Y-5.2751
X7.8047Y-6.5471
X7.8047Y-5.7394
X7.8049Y-5.0857
X7.8051Y-6.5031
X7.8074Y-5.1457
X7.8079Y-4.413
X7.8086Y-8.3862
X7.8091Y-7.5043
X7.8108Y-6.7391
X7.8142Y-8.4183
X7.8173Y-4.7051
X7.8214Y-8.4504
X7.8244Y-5.5704
X7.8285Y-4.9669
X7.837Y-3.4179
X7.8459Y-5.5265
X7.8469Y-3.383
X7.8484Y-6.2579
X7.849Y-5.1208
X7.8494Y-3.3493
X7.8518Y-4.9113
X7.8583Y-5.0119
X7.8626Y-5.1633
X7.8687Y-6.4759
X7.8689Y-5.7618
X7.874Y-7.7713
X7.8752Y-6.3642
X7.8781Y-6.628
X7.88Y-8.4488
X7.88Y-5.1211
X7.8804Y-8.3869
X7.8806Y-6.6589
X7.8819Y-8.4179
X7.8846Y-4.6661
X7.892Y-3.4198
X7.8937Y-4.1949
X7.8961Y-5.9598
X7.8966Y-6.1285
X7.8996Y-5.2274
X7.9012Y-3.387
X7.9018Y-3.3546
X7.9063Y-6.6769
X7.9096Y-5.0884
X7.9126Y-6.3638
X7.9137Y-6.526
X7.9185Y-7.0346
X7.9258Y-6.6453
X7.9294Y-6.6009
X7.9331Y-6.1071
X7.9341Y-5.166
X7.9346Y-5.9614
X7.935Y-3.4565
X7.935Y-3.4217
X7.9354Y-8.4203
X7.936Y-6.5502
X7.9361Y-3.3875
X7.9375Y-5.6172
X7.9389Y-6.2659
X7.939Y-5.4886
X7.9398Y-5.5514
X7.9443Y-8.3894
X7.9462Y-6.4664
X7.9463Y-5.3081
X7.9464Y-8.358
X7.9502Y-6.3104
X7.9594Y-5.7409
X7.9603Y-5.8105
X7.9624Y-6.2004
X7.9646Y-5.1356
X7.9688Y-6.6566
X7.9705Y-6.1522
X7.9706Y-8.3335
X7.9725Y-5.3499
X7.977Y-5.1794
X7.9844Y-7.2906
X7.9875Y-8.3066
X7.9913Y-5.8092
X7.992Y-4.447
X7.9938Y-6.4766
X7.9978Y-6.6435
X7.9986Y-6.7725
X8.0005Y-6.3652
X8.0009Y-4.9645
X8.003Y-6.4249
X8.006Y-5.552
X8.0155Y-6.125
X8.0169Y-3.8106
X8.0169Y-3.8461
X8.0183Y-5.3462
X8.022Y-7.5118
X8.0289Y-5.7524
X8.0382Y-4.324
X8.0393Y-6.4195
X8.0395Y-5.416
X8.0408Y-6.4552
X8.0453Y-4.5055
X8.049Y-5.1559
X8.0504Y-6.7213
X8.0537Y-5.3831
X8.0551Y-5.9634
X8.0559Y-5.2228
X8.0824Y-5.4255
X8.0854Y-7.0354
X8.0887Y-3.8885
X8.0913Y-5.9642
X8.0941Y-7.8106
X8.098Y-6.2602
X8.1016Y-5.4774
X8.1016Y-5.5517
X8.1106Y-6.3537
X8.1165Y-4.4075
X8.1204Y-5.7403
X8.1207Y-5.8077
X8.1277Y-5.5061
X8.137Y-7.2575
X8.1448Y-5.8272
X8.1479Y-6.2563
X8.1495Y-5.5313
X8.15Y-6.3289
X8.1661Y-4.9701
X8.1711Y-5.6845
X8.1724Y-5.1819
X8.1734Y-6.0955
X8.1906Y-4.1453
X8.1953Y-6.4795
X8.2051Y-6.9909
X8.2141Y-5.8533
X8.2318Y-6.22
X8.2442Y-3.891
X8.2453Y-6.3745
X8.2461Y-5.4263
X8.2474Y-5.8669
X8.2485Y-5.9633
X8.2559Y-4.7232
X8.2616Y-5.4856
X8.263Y-7.6071
X8.265Y-7.7783
X8.2799Y-5.7389
X8.2831Y-5.9975
X8.2891Y-6.078
X8.3028Y-7.2528
X8.3051Y-5.584
X8.3068Y-5.5256
X8.3157Y-6.2575
X8.317Y-6.3402
X8.3205Y-5.7057
X8.3263Y-6.7169
X8.3398Y-6.0178
X8.3653Y-4.5522
X8.3653Y-4.6083
X8.3686Y-6.4722
X8.3699Y-5.8473
X8.3733Y-6.1145
X8.3792Y-5.2218
X8.3914Y-6.2173
X8.398Y-5.4362
X8.4039Y-4.1862
X8.4039Y-5.8654
X8.4083Y-5.9642
X8.413Y-7.552
X8.4146Y-7.
X8.4147Y-6.9019
X8.4185Y-6.5062
X8.4341Y-5.7416
X8.4374Y-6.0418
X8.4576Y-6.9448
X8.465Y-6.889
X8.4679Y-6.662
X8.4745Y-5.159
X8.4858Y-7.2547
X8.4863Y-4.4051
X8.49Y-6.7732
X8.495Y-5.1139
X8.5028Y-6.1392
X8.5039Y-6.4331
X8.5087Y-5.447
X8.5123Y-6.1723
X8.5126Y-6.8803
X8.5146Y-6.6623
X8.5165Y-6.4772
X8.5233Y-4.9648
X8.5245Y-4.8945
X8.5248Y-6.6217
X8.527Y-6.1164
X8.5295Y-5.7024
X8.5407Y-4.9978
X8.5449Y-5.0307
X8.5471Y-5.2228
X8.5472Y-6.3618
X8.5489Y-5.2791
X8.5587Y-5.0786
X8.5604Y-4.8331
X8.563Y-6.9756
X8.5654Y-5.9646
X8.5654Y-4.6654
X8.5736Y-6.2602
X8.5765Y-5.3655
X8.5785Y-5.4821
X8.5905Y-5.733
X8.5906Y-5.5374
X8.5906Y-5.8122
X8.5937Y-7.0354
X8.5977Y-6.5724
X8.5997Y-5.1818
X8.6012Y-5.8465
X8.6054Y-5.0818
X8.6108Y-6.1053
X8.6138Y-5.1175
X8.6147Y-6.9091
X8.6209Y-5.5661
X8.6265Y-6.3264
X8.6313Y-6.7379
X8.6317Y-4.9275
X8.6359Y-6.1271
X8.6367Y-5.4676
X8.6439Y-6.6982
X8.6477Y-5.6
X8.6575Y-6.0996
X8.658Y-6.4316
X8.6689Y-6.6319
X8.676Y-5.1887
X8.6768Y-5.7029
X8.6776Y-6.4807
X8.6874Y-6.3787
X8.689Y-5.3315
X8.7067Y-6.2213
X8.7105Y-5.4392
X8.7122Y-5.5878
X8.7217Y-5.9622
X8.7248Y-5.8484
X8.7286Y-5.7031
T2
X3.8604Y-8.2667
X3.8957Y-8.302
X3.9311Y-8.3374
T5
X4.2488Y-8.2087
X4.3488Y-8.2087
X4.4488Y-8.2087
X4.6252Y-8.2087
X4.7252Y-8.2087
X4.97Y-7.17
X4.97Y-7.27
X4.97Y-7.37
X4.97Y-7.47
X4.97Y-7.57
X4.97Y-7.67
X5.3594Y-6.3449
X5.3594Y-6.4449
X5.4594Y-6.3449
X5.4594Y-6.4449
X5.5594Y-6.3449
X5.5594Y-6.4449
X5.6594Y-6.3449
X5.6594Y-6.4449
T6
X4.3983Y-4.2907
X4.469Y-4.22
X4.469Y-4.3614
X4.5397Y-4.1493
X4.5397Y-4.2907
X4.6104Y-4.0786
X4.6104Y-4.22
X4.6811Y-4.0079
X4.6811Y-4.1493
X4.7518Y-3.9372
X4.7518Y-4.0786
X4.82Y-7.17
X4.82Y-7.27
X4.82Y-7.37
X4.8225Y-3.8665
X4.8225Y-4.0079
X4.8932Y-3.7957
X4.8932Y-3.9372
X4.9639Y-3.725
X4.9639Y-3.8665
X5.0347Y-3.7957
T7
X4.5079Y-3.2283
X4.5079Y-8.5827
X7.3031Y-3.2283
X7.3031Y-8.5827
T3
X3.1695Y-5.81G85X3.1852Y-5.81
G05
X3.1695Y-6.001G85X3.1852Y-6.001
G05
T4
X3.0483Y-5.7982G85X3.0679Y-5.7982
G05
X3.0483Y-6.0128G85X3.0679Y-6.0128
G05
T0
M30
