G04 #@! TF.FileFunction,Profile,NP*
%FSLAX46Y46*%
G04 Gerber Fmt 4.6, Leading zero omitted, Abs format (unit mm)*
G04 Created by KiCad (PCBNEW (2016-03-23 BZR 6647, Git bc699c8)-product) date Sun 10 Apr 2016 18:41:19 CEST*
%MOMM*%
G01*
G04 APERTURE LIST*
%ADD10C,0.100000*%
%ADD11C,0.150000*%
G04 APERTURE END LIST*
D10*
D11*
X197948385Y-78128726D02*
X195352726Y-75500000D01*
X200448266Y-80901017D02*
X197948385Y-78128726D01*
X202847375Y-83811335D02*
X200448266Y-80901017D01*
X205140919Y-86853867D02*
X202847375Y-83811335D01*
X207324318Y-90022535D02*
X205140919Y-86853867D01*
X209393210Y-93311010D02*
X207324318Y-90022535D01*
X211343462Y-96712723D02*
X209393210Y-93311010D01*
X213171179Y-100220879D02*
X211343462Y-96712723D01*
X214872709Y-103828470D02*
X213171179Y-100220879D01*
X216444654Y-107528291D02*
X214872709Y-103828470D01*
X217883874Y-111312950D02*
X216444654Y-107528291D01*
X219187494Y-115174887D02*
X217883874Y-111312950D01*
X220352910Y-119106388D02*
X219187494Y-115174887D01*
X221377794Y-123099601D02*
X220352910Y-119106388D01*
X222260098Y-127146548D02*
X221377794Y-123099601D01*
X222998061Y-131239145D02*
X222260098Y-127146548D01*
X223590208Y-135369218D02*
X222998061Y-131239145D01*
X224035356Y-139528516D02*
X223590208Y-135369218D01*
X224332617Y-143708731D02*
X224035356Y-139528516D01*
X224481396Y-147901513D02*
X224332617Y-143708731D01*
X224481396Y-152098487D02*
X224481396Y-147901513D01*
X224332617Y-156291269D02*
X224481396Y-152098487D01*
X224035356Y-160471484D02*
X224332617Y-156291269D01*
X223590208Y-164630782D02*
X224035356Y-160471484D01*
X222998061Y-168760855D02*
X223590208Y-164630782D01*
X222260098Y-172853452D02*
X222998061Y-168760855D01*
X221377794Y-176900399D02*
X222260098Y-172853452D01*
X220352910Y-180893612D02*
X221377794Y-176900399D01*
X219187494Y-184825113D02*
X220352910Y-180893612D01*
X217883874Y-188687050D02*
X219187494Y-184825113D01*
X216444654Y-192471709D02*
X217883874Y-188687050D01*
X214872709Y-196171530D02*
X216444654Y-192471709D01*
X213171179Y-199779121D02*
X214872709Y-196171530D01*
X211343462Y-203287277D02*
X213171179Y-199779121D01*
X209393210Y-206688990D02*
X211343462Y-203287277D01*
X207324318Y-209977465D02*
X209393210Y-206688990D01*
X205140919Y-213146133D02*
X207324318Y-209977465D01*
X202847375Y-216188665D02*
X205140919Y-213146133D01*
X200448266Y-219098983D02*
X202847375Y-216188665D01*
X197948385Y-221871274D02*
X200448266Y-219098983D01*
X195352726Y-224500000D02*
X197948385Y-221871274D01*
X104647274Y-224500000D02*
X195352726Y-224500000D01*
X102051615Y-221871274D02*
X104647274Y-224500000D01*
X99551734Y-219098983D02*
X102051615Y-221871274D01*
X97152625Y-216188665D02*
X99551734Y-219098983D01*
X94859081Y-213146133D02*
X97152625Y-216188665D01*
X92675682Y-209977465D02*
X94859081Y-213146133D01*
X90606790Y-206688990D02*
X92675682Y-209977465D01*
X88656538Y-203287277D02*
X90606790Y-206688990D01*
X86828821Y-199779121D02*
X88656538Y-203287277D01*
X85127291Y-196171530D02*
X86828821Y-199779121D01*
X83555346Y-192471709D02*
X85127291Y-196171530D01*
X82116126Y-188687050D02*
X83555346Y-192471709D01*
X80812506Y-184825113D02*
X82116126Y-188687050D01*
X79647090Y-180893612D02*
X80812506Y-184825113D01*
X78622206Y-176900399D02*
X79647090Y-180893612D01*
X77739902Y-172853452D02*
X78622206Y-176900399D01*
X77001939Y-168760855D02*
X77739902Y-172853452D01*
X76409792Y-164630782D02*
X77001939Y-168760855D01*
X75964644Y-160471484D02*
X76409792Y-164630782D01*
X75667383Y-156291269D02*
X75964644Y-160471484D01*
X75518604Y-152098487D02*
X75667383Y-156291269D01*
X75518604Y-147901513D02*
X75518604Y-152098487D01*
X75667383Y-143708731D02*
X75518604Y-147901513D01*
X75964644Y-139528516D02*
X75667383Y-143708731D01*
X76409792Y-135369218D02*
X75964644Y-139528516D01*
X77001939Y-131239145D02*
X76409792Y-135369218D01*
X77739902Y-127146548D02*
X77001939Y-131239145D01*
X78622206Y-123099601D02*
X77739902Y-127146548D01*
X79647090Y-119106388D02*
X78622206Y-123099601D01*
X80812506Y-115174887D02*
X79647090Y-119106388D01*
X82116126Y-111312950D02*
X80812506Y-115174887D01*
X83555346Y-107528291D02*
X82116126Y-111312950D01*
X85127291Y-103828470D02*
X83555346Y-107528291D01*
X86828821Y-100220879D02*
X85127291Y-103828470D01*
X88656538Y-96712723D02*
X86828821Y-100220879D01*
X90606790Y-93311010D02*
X88656538Y-96712723D01*
X92675682Y-90022535D02*
X90606790Y-93311010D01*
X94859081Y-86853867D02*
X92675682Y-90022535D01*
X97152625Y-83811335D02*
X94859081Y-86853867D01*
X99551734Y-80901017D02*
X97152625Y-83811335D01*
X102051615Y-78128726D02*
X99551734Y-80901017D01*
X104647274Y-75500000D02*
X102051615Y-78128726D01*
X195352726Y-75500000D02*
X104647274Y-75500000D01*
M02*
