G04 #@! TF.FileFunction,Legend,Top*
%FSLAX46Y46*%
G04 Gerber Fmt 4.6, Leading zero omitted, Abs format (unit mm)*
G04 Created by KiCad (PCBNEW (2016-03-23 BZR 6647, Git bc699c8)-product) date Tue 29 Mar 2016 10:28:28 CEST*
%MOMM*%
G01*
G04 APERTURE LIST*
%ADD10C,0.100000*%
%ADD11C,0.150000*%
%ADD12C,0.200000*%
%ADD13C,0.304800*%
%ADD14C,0.050800*%
%ADD15C,0.127000*%
G04 APERTURE END LIST*
D10*
D11*
X107190476Y-210552380D02*
X107190476Y-211361904D01*
X107228571Y-211457142D01*
X107266666Y-211504761D01*
X107342857Y-211552380D01*
X107495238Y-211552380D01*
X107571428Y-211504761D01*
X107609523Y-211457142D01*
X107647619Y-211361904D01*
X107647619Y-210552380D01*
X107990476Y-211504761D02*
X108104761Y-211552380D01*
X108295238Y-211552380D01*
X108371428Y-211504761D01*
X108409523Y-211457142D01*
X108447619Y-211361904D01*
X108447619Y-211266666D01*
X108409523Y-211171428D01*
X108371428Y-211123809D01*
X108295238Y-211076190D01*
X108142857Y-211028571D01*
X108066666Y-210980952D01*
X108028571Y-210933333D01*
X107990476Y-210838095D01*
X107990476Y-210742857D01*
X108028571Y-210647619D01*
X108066666Y-210600000D01*
X108142857Y-210552380D01*
X108333333Y-210552380D01*
X108447619Y-210600000D01*
X109057142Y-211028571D02*
X109171428Y-211076190D01*
X109209523Y-211123809D01*
X109247619Y-211219047D01*
X109247619Y-211361904D01*
X109209523Y-211457142D01*
X109171428Y-211504761D01*
X109095238Y-211552380D01*
X108790476Y-211552380D01*
X108790476Y-210552380D01*
X109057142Y-210552380D01*
X109133333Y-210600000D01*
X109171428Y-210647619D01*
X109209523Y-210742857D01*
X109209523Y-210838095D01*
X109171428Y-210933333D01*
X109133333Y-210980952D01*
X109057142Y-211028571D01*
X108790476Y-211028571D01*
X112209523Y-211028571D02*
X112323809Y-211076190D01*
X112361904Y-211123809D01*
X112400000Y-211219047D01*
X112400000Y-211361904D01*
X112361904Y-211457142D01*
X112323809Y-211504761D01*
X112247619Y-211552380D01*
X111942857Y-211552380D01*
X111942857Y-210552380D01*
X112209523Y-210552380D01*
X112285714Y-210600000D01*
X112323809Y-210647619D01*
X112361904Y-210742857D01*
X112361904Y-210838095D01*
X112323809Y-210933333D01*
X112285714Y-210980952D01*
X112209523Y-211028571D01*
X111942857Y-211028571D01*
X112704761Y-211266666D02*
X113085714Y-211266666D01*
X112628571Y-211552380D02*
X112895238Y-210552380D01*
X113161904Y-211552380D01*
X113314285Y-210552380D02*
X113771428Y-210552380D01*
X113542857Y-211552380D02*
X113542857Y-210552380D01*
X197948385Y-78128726D02*
X195352726Y-75500000D01*
X200448266Y-80901017D02*
X197948385Y-78128726D01*
X202847375Y-83811335D02*
X200448266Y-80901017D01*
X205140919Y-86853867D02*
X202847375Y-83811335D01*
X207324318Y-90022535D02*
X205140919Y-86853867D01*
X209393210Y-93311010D02*
X207324318Y-90022535D01*
X211343462Y-96712723D02*
X209393210Y-93311010D01*
X213171179Y-100220879D02*
X211343462Y-96712723D01*
X214872709Y-103828470D02*
X213171179Y-100220879D01*
X216444654Y-107528291D02*
X214872709Y-103828470D01*
X217883874Y-111312950D02*
X216444654Y-107528291D01*
X219187494Y-115174887D02*
X217883874Y-111312950D01*
X220352910Y-119106388D02*
X219187494Y-115174887D01*
X221377794Y-123099601D02*
X220352910Y-119106388D01*
X222260098Y-127146548D02*
X221377794Y-123099601D01*
X222998061Y-131239145D02*
X222260098Y-127146548D01*
X223590208Y-135369218D02*
X222998061Y-131239145D01*
X224035356Y-139528516D02*
X223590208Y-135369218D01*
X224332617Y-143708731D02*
X224035356Y-139528516D01*
X224481396Y-147901513D02*
X224332617Y-143708731D01*
X224481396Y-152098487D02*
X224481396Y-147901513D01*
X224332617Y-156291269D02*
X224481396Y-152098487D01*
X224035356Y-160471484D02*
X224332617Y-156291269D01*
X223590208Y-164630782D02*
X224035356Y-160471484D01*
X222998061Y-168760855D02*
X223590208Y-164630782D01*
X222260098Y-172853452D02*
X222998061Y-168760855D01*
X221377794Y-176900399D02*
X222260098Y-172853452D01*
X220352910Y-180893612D02*
X221377794Y-176900399D01*
X219187494Y-184825113D02*
X220352910Y-180893612D01*
X217883874Y-188687050D02*
X219187494Y-184825113D01*
X216444654Y-192471709D02*
X217883874Y-188687050D01*
X214872709Y-196171530D02*
X216444654Y-192471709D01*
X213171179Y-199779121D02*
X214872709Y-196171530D01*
X211343462Y-203287277D02*
X213171179Y-199779121D01*
X209393210Y-206688990D02*
X211343462Y-203287277D01*
X207324318Y-209977465D02*
X209393210Y-206688990D01*
X205140919Y-213146133D02*
X207324318Y-209977465D01*
X202847375Y-216188665D02*
X205140919Y-213146133D01*
X200448266Y-219098983D02*
X202847375Y-216188665D01*
X197948385Y-221871274D02*
X200448266Y-219098983D01*
X195352726Y-224500000D02*
X197948385Y-221871274D01*
X104647274Y-224500000D02*
X195352726Y-224500000D01*
X102051615Y-221871274D02*
X104647274Y-224500000D01*
X99551734Y-219098983D02*
X102051615Y-221871274D01*
X97152625Y-216188665D02*
X99551734Y-219098983D01*
X94859081Y-213146133D02*
X97152625Y-216188665D01*
X92675682Y-209977465D02*
X94859081Y-213146133D01*
X90606790Y-206688990D02*
X92675682Y-209977465D01*
X88656538Y-203287277D02*
X90606790Y-206688990D01*
X86828821Y-199779121D02*
X88656538Y-203287277D01*
X85127291Y-196171530D02*
X86828821Y-199779121D01*
X83555346Y-192471709D02*
X85127291Y-196171530D01*
X82116126Y-188687050D02*
X83555346Y-192471709D01*
X80812506Y-184825113D02*
X82116126Y-188687050D01*
X79647090Y-180893612D02*
X80812506Y-184825113D01*
X78622206Y-176900399D02*
X79647090Y-180893612D01*
X77739902Y-172853452D02*
X78622206Y-176900399D01*
X77001939Y-168760855D02*
X77739902Y-172853452D01*
X76409792Y-164630782D02*
X77001939Y-168760855D01*
X75964644Y-160471484D02*
X76409792Y-164630782D01*
X75667383Y-156291269D02*
X75964644Y-160471484D01*
X75518604Y-152098487D02*
X75667383Y-156291269D01*
X75518604Y-147901513D02*
X75518604Y-152098487D01*
X75667383Y-143708731D02*
X75518604Y-147901513D01*
X75964644Y-139528516D02*
X75667383Y-143708731D01*
X76409792Y-135369218D02*
X75964644Y-139528516D01*
X77001939Y-131239145D02*
X76409792Y-135369218D01*
X77739902Y-127146548D02*
X77001939Y-131239145D01*
X78622206Y-123099601D02*
X77739902Y-127146548D01*
X79647090Y-119106388D02*
X78622206Y-123099601D01*
X80812506Y-115174887D02*
X79647090Y-119106388D01*
X82116126Y-111312950D02*
X80812506Y-115174887D01*
X83555346Y-107528291D02*
X82116126Y-111312950D01*
X85127291Y-103828470D02*
X83555346Y-107528291D01*
X86828821Y-100220879D02*
X85127291Y-103828470D01*
X88656538Y-96712723D02*
X86828821Y-100220879D01*
X90606790Y-93311010D02*
X88656538Y-96712723D01*
X92675682Y-90022535D02*
X90606790Y-93311010D01*
X94859081Y-86853867D02*
X92675682Y-90022535D01*
X97152625Y-83811335D02*
X94859081Y-86853867D01*
X99551734Y-80901017D02*
X97152625Y-83811335D01*
X102051615Y-78128726D02*
X99551734Y-80901017D01*
X104647274Y-75500000D02*
X102051615Y-78128726D01*
X195352726Y-75500000D02*
X104647274Y-75500000D01*
D12*
X151000000Y-150000000D02*
G75*
G03X151000000Y-150000000I-1000000J0D01*
G01*
D11*
X186070490Y-118681767D02*
X186270490Y-118681767D01*
X185620490Y-121231767D02*
X185420490Y-121231767D01*
X186420490Y-121231767D02*
X185920490Y-121231767D01*
X186920490Y-121231767D02*
X186720490Y-121231767D01*
X186720490Y-119631767D02*
X186920490Y-119631767D01*
X185920490Y-119631767D02*
X186420490Y-119631767D01*
X185420490Y-119631767D02*
X185620490Y-119631767D01*
X185620490Y-119631767D02*
G75*
G03X185920490Y-119631767I150000J150000D01*
G01*
X186420490Y-119631767D02*
G75*
G03X186720490Y-119631767I150000J150000D01*
G01*
X186720490Y-121231767D02*
G75*
G03X186420490Y-121231767I-150000J-150000D01*
G01*
X185920490Y-121231767D02*
G75*
G03X185620490Y-121231767I-150000J-150000D01*
G01*
X185420490Y-121231767D02*
X185420490Y-119631767D01*
X186920490Y-119631767D02*
X186920490Y-121231767D01*
D13*
X109190000Y-209770000D02*
X109190000Y-207230000D01*
X106650000Y-207230000D02*
X114270000Y-207230000D01*
X114270000Y-207230000D02*
X114270000Y-209770000D01*
X114270000Y-209770000D02*
X106650000Y-209770000D01*
X106650000Y-209770000D02*
X106650000Y-207230000D01*
D11*
X150966570Y-98969611D02*
X151166570Y-98969611D01*
X150516570Y-101519611D02*
X150316570Y-101519611D01*
X151316570Y-101519611D02*
X150816570Y-101519611D01*
X151816570Y-101519611D02*
X151616570Y-101519611D01*
X151616570Y-99919611D02*
X151816570Y-99919611D01*
X150816570Y-99919611D02*
X151316570Y-99919611D01*
X150316570Y-99919611D02*
X150516570Y-99919611D01*
X150516570Y-99919611D02*
G75*
G03X150816570Y-99919611I150000J150000D01*
G01*
X151316570Y-99919611D02*
G75*
G03X151616570Y-99919611I150000J150000D01*
G01*
X151616570Y-101519611D02*
G75*
G03X151316570Y-101519611I-150000J-150000D01*
G01*
X150816570Y-101519611D02*
G75*
G03X150516570Y-101519611I-150000J-150000D01*
G01*
X150316570Y-101519611D02*
X150316570Y-99919611D01*
X151816570Y-99919611D02*
X151816570Y-101519611D01*
X168066673Y-98969611D02*
X168266673Y-98969611D01*
X167616673Y-101519611D02*
X167416673Y-101519611D01*
X168416673Y-101519611D02*
X167916673Y-101519611D01*
X168916673Y-101519611D02*
X168716673Y-101519611D01*
X168716673Y-99919611D02*
X168916673Y-99919611D01*
X167916673Y-99919611D02*
X168416673Y-99919611D01*
X167416673Y-99919611D02*
X167616673Y-99919611D01*
X167616673Y-99919611D02*
G75*
G03X167916673Y-99919611I150000J150000D01*
G01*
X168416673Y-99919611D02*
G75*
G03X168716673Y-99919611I150000J150000D01*
G01*
X168716673Y-101519611D02*
G75*
G03X168416673Y-101519611I-150000J-150000D01*
G01*
X167916673Y-101519611D02*
G75*
G03X167616673Y-101519611I-150000J-150000D01*
G01*
X167416673Y-101519611D02*
X167416673Y-99919611D01*
X168916673Y-99919611D02*
X168916673Y-101519611D01*
X176185328Y-98969611D02*
X176385328Y-98969611D01*
X175735328Y-101519611D02*
X175535328Y-101519611D01*
X176535328Y-101519611D02*
X176035328Y-101519611D01*
X177035328Y-101519611D02*
X176835328Y-101519611D01*
X176835328Y-99919611D02*
X177035328Y-99919611D01*
X176035328Y-99919611D02*
X176535328Y-99919611D01*
X175535328Y-99919611D02*
X175735328Y-99919611D01*
X175735328Y-99919611D02*
G75*
G03X176035328Y-99919611I150000J150000D01*
G01*
X176535328Y-99919611D02*
G75*
G03X176835328Y-99919611I150000J150000D01*
G01*
X176835328Y-101519611D02*
G75*
G03X176535328Y-101519611I-150000J-150000D01*
G01*
X176035328Y-101519611D02*
G75*
G03X175735328Y-101519611I-150000J-150000D01*
G01*
X175535328Y-101519611D02*
X175535328Y-99919611D01*
X177035328Y-99919611D02*
X177035328Y-101519611D01*
X182821253Y-98969611D02*
X183021253Y-98969611D01*
X182371253Y-101519611D02*
X182171253Y-101519611D01*
X183171253Y-101519611D02*
X182671253Y-101519611D01*
X183671253Y-101519611D02*
X183471253Y-101519611D01*
X183471253Y-99919611D02*
X183671253Y-99919611D01*
X182671253Y-99919611D02*
X183171253Y-99919611D01*
X182171253Y-99919611D02*
X182371253Y-99919611D01*
X182371253Y-99919611D02*
G75*
G03X182671253Y-99919611I150000J150000D01*
G01*
X183171253Y-99919611D02*
G75*
G03X183471253Y-99919611I150000J150000D01*
G01*
X183471253Y-101519611D02*
G75*
G03X183171253Y-101519611I-150000J-150000D01*
G01*
X182671253Y-101519611D02*
G75*
G03X182371253Y-101519611I-150000J-150000D01*
G01*
X182171253Y-101519611D02*
X182171253Y-99919611D01*
X183671253Y-99919611D02*
X183671253Y-101519611D01*
X188741980Y-98969611D02*
X188941980Y-98969611D01*
X188291980Y-101519611D02*
X188091980Y-101519611D01*
X189091980Y-101519611D02*
X188591980Y-101519611D01*
X189591980Y-101519611D02*
X189391980Y-101519611D01*
X189391980Y-99919611D02*
X189591980Y-99919611D01*
X188591980Y-99919611D02*
X189091980Y-99919611D01*
X188091980Y-99919611D02*
X188291980Y-99919611D01*
X188291980Y-99919611D02*
G75*
G03X188591980Y-99919611I150000J150000D01*
G01*
X189091980Y-99919611D02*
G75*
G03X189391980Y-99919611I150000J150000D01*
G01*
X189391980Y-101519611D02*
G75*
G03X189091980Y-101519611I-150000J-150000D01*
G01*
X188591980Y-101519611D02*
G75*
G03X188291980Y-101519611I-150000J-150000D01*
G01*
X188091980Y-101519611D02*
X188091980Y-99919611D01*
X189591980Y-99919611D02*
X189591980Y-101519611D01*
X194234973Y-98969611D02*
X194434973Y-98969611D01*
X193784973Y-101519611D02*
X193584973Y-101519611D01*
X194584973Y-101519611D02*
X194084973Y-101519611D01*
X195084973Y-101519611D02*
X194884973Y-101519611D01*
X194884973Y-99919611D02*
X195084973Y-99919611D01*
X194084973Y-99919611D02*
X194584973Y-99919611D01*
X193584973Y-99919611D02*
X193784973Y-99919611D01*
X193784973Y-99919611D02*
G75*
G03X194084973Y-99919611I150000J150000D01*
G01*
X194584973Y-99919611D02*
G75*
G03X194884973Y-99919611I150000J150000D01*
G01*
X194884973Y-101519611D02*
G75*
G03X194584973Y-101519611I-150000J-150000D01*
G01*
X194084973Y-101519611D02*
G75*
G03X193784973Y-101519611I-150000J-150000D01*
G01*
X193584973Y-101519611D02*
X193584973Y-99919611D01*
X195084973Y-99919611D02*
X195084973Y-101519611D01*
X199442712Y-98969611D02*
X199642712Y-98969611D01*
X198992712Y-101519611D02*
X198792712Y-101519611D01*
X199792712Y-101519611D02*
X199292712Y-101519611D01*
X200292712Y-101519611D02*
X200092712Y-101519611D01*
X200092712Y-99919611D02*
X200292712Y-99919611D01*
X199292712Y-99919611D02*
X199792712Y-99919611D01*
X198792712Y-99919611D02*
X198992712Y-99919611D01*
X198992712Y-99919611D02*
G75*
G03X199292712Y-99919611I150000J150000D01*
G01*
X199792712Y-99919611D02*
G75*
G03X200092712Y-99919611I150000J150000D01*
G01*
X200092712Y-101519611D02*
G75*
G03X199792712Y-101519611I-150000J-150000D01*
G01*
X199292712Y-101519611D02*
G75*
G03X198992712Y-101519611I-150000J-150000D01*
G01*
X198792712Y-101519611D02*
X198792712Y-99919611D01*
X200292712Y-99919611D02*
X200292712Y-101519611D01*
X204446959Y-98969611D02*
X204646959Y-98969611D01*
X203996959Y-101519611D02*
X203796959Y-101519611D01*
X204796959Y-101519611D02*
X204296959Y-101519611D01*
X205296959Y-101519611D02*
X205096959Y-101519611D01*
X205096959Y-99919611D02*
X205296959Y-99919611D01*
X204296959Y-99919611D02*
X204796959Y-99919611D01*
X203796959Y-99919611D02*
X203996959Y-99919611D01*
X203996959Y-99919611D02*
G75*
G03X204296959Y-99919611I150000J150000D01*
G01*
X204796959Y-99919611D02*
G75*
G03X205096959Y-99919611I150000J150000D01*
G01*
X205096959Y-101519611D02*
G75*
G03X204796959Y-101519611I-150000J-150000D01*
G01*
X204296959Y-101519611D02*
G75*
G03X203996959Y-101519611I-150000J-150000D01*
G01*
X203796959Y-101519611D02*
X203796959Y-99919611D01*
X205296959Y-99919611D02*
X205296959Y-101519611D01*
X209299168Y-98969611D02*
X209499168Y-98969611D01*
X208849168Y-101519611D02*
X208649168Y-101519611D01*
X209649168Y-101519611D02*
X209149168Y-101519611D01*
X210149168Y-101519611D02*
X209949168Y-101519611D01*
X209949168Y-99919611D02*
X210149168Y-99919611D01*
X209149168Y-99919611D02*
X209649168Y-99919611D01*
X208649168Y-99919611D02*
X208849168Y-99919611D01*
X208849168Y-99919611D02*
G75*
G03X209149168Y-99919611I150000J150000D01*
G01*
X209649168Y-99919611D02*
G75*
G03X209949168Y-99919611I150000J150000D01*
G01*
X209949168Y-101519611D02*
G75*
G03X209649168Y-101519611I-150000J-150000D01*
G01*
X209149168Y-101519611D02*
G75*
G03X208849168Y-101519611I-150000J-150000D01*
G01*
X208649168Y-101519611D02*
X208649168Y-99919611D01*
X210149168Y-99919611D02*
X210149168Y-101519611D01*
X159102603Y-105540330D02*
X159302603Y-105540330D01*
X158652603Y-108090330D02*
X158452603Y-108090330D01*
X159452603Y-108090330D02*
X158952603Y-108090330D01*
X159952603Y-108090330D02*
X159752603Y-108090330D01*
X159752603Y-106490330D02*
X159952603Y-106490330D01*
X158952603Y-106490330D02*
X159452603Y-106490330D01*
X158452603Y-106490330D02*
X158652603Y-106490330D01*
X158652603Y-106490330D02*
G75*
G03X158952603Y-106490330I150000J150000D01*
G01*
X159452603Y-106490330D02*
G75*
G03X159752603Y-106490330I150000J150000D01*
G01*
X159752603Y-108090330D02*
G75*
G03X159452603Y-108090330I-150000J-150000D01*
G01*
X158952603Y-108090330D02*
G75*
G03X158652603Y-108090330I-150000J-150000D01*
G01*
X158452603Y-108090330D02*
X158452603Y-106490330D01*
X159952603Y-106490330D02*
X159952603Y-108090330D01*
X169434031Y-105540330D02*
X169634031Y-105540330D01*
X168984031Y-108090330D02*
X168784031Y-108090330D01*
X169784031Y-108090330D02*
X169284031Y-108090330D01*
X170284031Y-108090330D02*
X170084031Y-108090330D01*
X170084031Y-106490330D02*
X170284031Y-106490330D01*
X169284031Y-106490330D02*
X169784031Y-106490330D01*
X168784031Y-106490330D02*
X168984031Y-106490330D01*
X168984031Y-106490330D02*
G75*
G03X169284031Y-106490330I150000J150000D01*
G01*
X169784031Y-106490330D02*
G75*
G03X170084031Y-106490330I150000J150000D01*
G01*
X170084031Y-108090330D02*
G75*
G03X169784031Y-108090330I-150000J-150000D01*
G01*
X169284031Y-108090330D02*
G75*
G03X168984031Y-108090330I-150000J-150000D01*
G01*
X168784031Y-108090330D02*
X168784031Y-106490330D01*
X170284031Y-106490330D02*
X170284031Y-108090330D01*
X176554621Y-105540330D02*
X176754621Y-105540330D01*
X176104621Y-108090330D02*
X175904621Y-108090330D01*
X176904621Y-108090330D02*
X176404621Y-108090330D01*
X177404621Y-108090330D02*
X177204621Y-108090330D01*
X177204621Y-106490330D02*
X177404621Y-106490330D01*
X176404621Y-106490330D02*
X176904621Y-106490330D01*
X175904621Y-106490330D02*
X176104621Y-106490330D01*
X176104621Y-106490330D02*
G75*
G03X176404621Y-106490330I150000J150000D01*
G01*
X176904621Y-106490330D02*
G75*
G03X177204621Y-106490330I150000J150000D01*
G01*
X177204621Y-108090330D02*
G75*
G03X176904621Y-108090330I-150000J-150000D01*
G01*
X176404621Y-108090330D02*
G75*
G03X176104621Y-108090330I-150000J-150000D01*
G01*
X175904621Y-108090330D02*
X175904621Y-106490330D01*
X177404621Y-106490330D02*
X177404621Y-108090330D01*
X182631625Y-105540330D02*
X182831625Y-105540330D01*
X182181625Y-108090330D02*
X181981625Y-108090330D01*
X182981625Y-108090330D02*
X182481625Y-108090330D01*
X183481625Y-108090330D02*
X183281625Y-108090330D01*
X183281625Y-106490330D02*
X183481625Y-106490330D01*
X182481625Y-106490330D02*
X182981625Y-106490330D01*
X181981625Y-106490330D02*
X182181625Y-106490330D01*
X182181625Y-106490330D02*
G75*
G03X182481625Y-106490330I150000J150000D01*
G01*
X182981625Y-106490330D02*
G75*
G03X183281625Y-106490330I150000J150000D01*
G01*
X183281625Y-108090330D02*
G75*
G03X182981625Y-108090330I-150000J-150000D01*
G01*
X182481625Y-108090330D02*
G75*
G03X182181625Y-108090330I-150000J-150000D01*
G01*
X181981625Y-108090330D02*
X181981625Y-106490330D01*
X183481625Y-106490330D02*
X183481625Y-108090330D01*
X188165516Y-105540330D02*
X188365516Y-105540330D01*
X187715516Y-108090330D02*
X187515516Y-108090330D01*
X188515516Y-108090330D02*
X188015516Y-108090330D01*
X189015516Y-108090330D02*
X188815516Y-108090330D01*
X188815516Y-106490330D02*
X189015516Y-106490330D01*
X188015516Y-106490330D02*
X188515516Y-106490330D01*
X187515516Y-106490330D02*
X187715516Y-106490330D01*
X187715516Y-106490330D02*
G75*
G03X188015516Y-106490330I150000J150000D01*
G01*
X188515516Y-106490330D02*
G75*
G03X188815516Y-106490330I150000J150000D01*
G01*
X188815516Y-108090330D02*
G75*
G03X188515516Y-108090330I-150000J-150000D01*
G01*
X188015516Y-108090330D02*
G75*
G03X187715516Y-108090330I-150000J-150000D01*
G01*
X187515516Y-108090330D02*
X187515516Y-106490330D01*
X189015516Y-106490330D02*
X189015516Y-108090330D01*
X193364240Y-105540330D02*
X193564240Y-105540330D01*
X192914240Y-108090330D02*
X192714240Y-108090330D01*
X193714240Y-108090330D02*
X193214240Y-108090330D01*
X194214240Y-108090330D02*
X194014240Y-108090330D01*
X194014240Y-106490330D02*
X194214240Y-106490330D01*
X193214240Y-106490330D02*
X193714240Y-106490330D01*
X192714240Y-106490330D02*
X192914240Y-106490330D01*
X192914240Y-106490330D02*
G75*
G03X193214240Y-106490330I150000J150000D01*
G01*
X193714240Y-106490330D02*
G75*
G03X194014240Y-106490330I150000J150000D01*
G01*
X194014240Y-108090330D02*
G75*
G03X193714240Y-108090330I-150000J-150000D01*
G01*
X193214240Y-108090330D02*
G75*
G03X192914240Y-108090330I-150000J-150000D01*
G01*
X192714240Y-108090330D02*
X192714240Y-106490330D01*
X194214240Y-106490330D02*
X194214240Y-108090330D01*
X198335840Y-105540330D02*
X198535840Y-105540330D01*
X197885840Y-108090330D02*
X197685840Y-108090330D01*
X198685840Y-108090330D02*
X198185840Y-108090330D01*
X199185840Y-108090330D02*
X198985840Y-108090330D01*
X198985840Y-106490330D02*
X199185840Y-106490330D01*
X198185840Y-106490330D02*
X198685840Y-106490330D01*
X197685840Y-106490330D02*
X197885840Y-106490330D01*
X197885840Y-106490330D02*
G75*
G03X198185840Y-106490330I150000J150000D01*
G01*
X198685840Y-106490330D02*
G75*
G03X198985840Y-106490330I150000J150000D01*
G01*
X198985840Y-108090330D02*
G75*
G03X198685840Y-108090330I-150000J-150000D01*
G01*
X198185840Y-108090330D02*
G75*
G03X197885840Y-108090330I-150000J-150000D01*
G01*
X197685840Y-108090330D02*
X197685840Y-106490330D01*
X199185840Y-106490330D02*
X199185840Y-108090330D01*
X203143977Y-105540330D02*
X203343977Y-105540330D01*
X202693977Y-108090330D02*
X202493977Y-108090330D01*
X203493977Y-108090330D02*
X202993977Y-108090330D01*
X203993977Y-108090330D02*
X203793977Y-108090330D01*
X203793977Y-106490330D02*
X203993977Y-106490330D01*
X202993977Y-106490330D02*
X203493977Y-106490330D01*
X202493977Y-106490330D02*
X202693977Y-106490330D01*
X202693977Y-106490330D02*
G75*
G03X202993977Y-106490330I150000J150000D01*
G01*
X203493977Y-106490330D02*
G75*
G03X203793977Y-106490330I150000J150000D01*
G01*
X203793977Y-108090330D02*
G75*
G03X203493977Y-108090330I-150000J-150000D01*
G01*
X202993977Y-108090330D02*
G75*
G03X202693977Y-108090330I-150000J-150000D01*
G01*
X202493977Y-108090330D02*
X202493977Y-106490330D01*
X203993977Y-106490330D02*
X203993977Y-108090330D01*
X207829367Y-105540330D02*
X208029367Y-105540330D01*
X207379367Y-108090330D02*
X207179367Y-108090330D01*
X208179367Y-108090330D02*
X207679367Y-108090330D01*
X208679367Y-108090330D02*
X208479367Y-108090330D01*
X208479367Y-106490330D02*
X208679367Y-106490330D01*
X207679367Y-106490330D02*
X208179367Y-106490330D01*
X207179367Y-106490330D02*
X207379367Y-106490330D01*
X207379367Y-106490330D02*
G75*
G03X207679367Y-106490330I150000J150000D01*
G01*
X208179367Y-106490330D02*
G75*
G03X208479367Y-106490330I150000J150000D01*
G01*
X208479367Y-108090330D02*
G75*
G03X208179367Y-108090330I-150000J-150000D01*
G01*
X207679367Y-108090330D02*
G75*
G03X207379367Y-108090330I-150000J-150000D01*
G01*
X207179367Y-108090330D02*
X207179367Y-106490330D01*
X208679367Y-106490330D02*
X208679367Y-108090330D01*
X212419613Y-105540330D02*
X212619613Y-105540330D01*
X211969613Y-108090330D02*
X211769613Y-108090330D01*
X212769613Y-108090330D02*
X212269613Y-108090330D01*
X213269613Y-108090330D02*
X213069613Y-108090330D01*
X213069613Y-106490330D02*
X213269613Y-106490330D01*
X212269613Y-106490330D02*
X212769613Y-106490330D01*
X211769613Y-106490330D02*
X211969613Y-106490330D01*
X211969613Y-106490330D02*
G75*
G03X212269613Y-106490330I150000J150000D01*
G01*
X212769613Y-106490330D02*
G75*
G03X213069613Y-106490330I150000J150000D01*
G01*
X213069613Y-108090330D02*
G75*
G03X212769613Y-108090330I-150000J-150000D01*
G01*
X212269613Y-108090330D02*
G75*
G03X211969613Y-108090330I-150000J-150000D01*
G01*
X211769613Y-108090330D02*
X211769613Y-106490330D01*
X213269613Y-106490330D02*
X213269613Y-108090330D01*
X161978475Y-112111048D02*
X162178475Y-112111048D01*
X161528475Y-114661048D02*
X161328475Y-114661048D01*
X162328475Y-114661048D02*
X161828475Y-114661048D01*
X162828475Y-114661048D02*
X162628475Y-114661048D01*
X162628475Y-113061048D02*
X162828475Y-113061048D01*
X161828475Y-113061048D02*
X162328475Y-113061048D01*
X161328475Y-113061048D02*
X161528475Y-113061048D01*
X161528475Y-113061048D02*
G75*
G03X161828475Y-113061048I150000J150000D01*
G01*
X162328475Y-113061048D02*
G75*
G03X162628475Y-113061048I150000J150000D01*
G01*
X162628475Y-114661048D02*
G75*
G03X162328475Y-114661048I-150000J-150000D01*
G01*
X161828475Y-114661048D02*
G75*
G03X161528475Y-114661048I-150000J-150000D01*
G01*
X161328475Y-114661048D02*
X161328475Y-113061048D01*
X162828475Y-113061048D02*
X162828475Y-114661048D01*
X170167709Y-112111048D02*
X170367709Y-112111048D01*
X169717709Y-114661048D02*
X169517709Y-114661048D01*
X170517709Y-114661048D02*
X170017709Y-114661048D01*
X171017709Y-114661048D02*
X170817709Y-114661048D01*
X170817709Y-113061048D02*
X171017709Y-113061048D01*
X170017709Y-113061048D02*
X170517709Y-113061048D01*
X169517709Y-113061048D02*
X169717709Y-113061048D01*
X169717709Y-113061048D02*
G75*
G03X170017709Y-113061048I150000J150000D01*
G01*
X170517709Y-113061048D02*
G75*
G03X170817709Y-113061048I150000J150000D01*
G01*
X170817709Y-114661048D02*
G75*
G03X170517709Y-114661048I-150000J-150000D01*
G01*
X170017709Y-114661048D02*
G75*
G03X169717709Y-114661048I-150000J-150000D01*
G01*
X169517709Y-114661048D02*
X169517709Y-113061048D01*
X171017709Y-113061048D02*
X171017709Y-114661048D01*
X176502076Y-112111048D02*
X176702076Y-112111048D01*
X176052076Y-114661048D02*
X175852076Y-114661048D01*
X176852076Y-114661048D02*
X176352076Y-114661048D01*
X177352076Y-114661048D02*
X177152076Y-114661048D01*
X177152076Y-113061048D02*
X177352076Y-113061048D01*
X176352076Y-113061048D02*
X176852076Y-113061048D01*
X175852076Y-113061048D02*
X176052076Y-113061048D01*
X176052076Y-113061048D02*
G75*
G03X176352076Y-113061048I150000J150000D01*
G01*
X176852076Y-113061048D02*
G75*
G03X177152076Y-113061048I150000J150000D01*
G01*
X177152076Y-114661048D02*
G75*
G03X176852076Y-114661048I-150000J-150000D01*
G01*
X176352076Y-114661048D02*
G75*
G03X176052076Y-114661048I-150000J-150000D01*
G01*
X175852076Y-114661048D02*
X175852076Y-113061048D01*
X177352076Y-113061048D02*
X177352076Y-114661048D01*
X182095666Y-112111048D02*
X182295666Y-112111048D01*
X181645666Y-114661048D02*
X181445666Y-114661048D01*
X182445666Y-114661048D02*
X181945666Y-114661048D01*
X182945666Y-114661048D02*
X182745666Y-114661048D01*
X182745666Y-113061048D02*
X182945666Y-113061048D01*
X181945666Y-113061048D02*
X182445666Y-113061048D01*
X181445666Y-113061048D02*
X181645666Y-113061048D01*
X181645666Y-113061048D02*
G75*
G03X181945666Y-113061048I150000J150000D01*
G01*
X182445666Y-113061048D02*
G75*
G03X182745666Y-113061048I150000J150000D01*
G01*
X182745666Y-114661048D02*
G75*
G03X182445666Y-114661048I-150000J-150000D01*
G01*
X181945666Y-114661048D02*
G75*
G03X181645666Y-114661048I-150000J-150000D01*
G01*
X181445666Y-114661048D02*
X181445666Y-113061048D01*
X182945666Y-113061048D02*
X182945666Y-114661048D01*
X187282501Y-112111048D02*
X187482501Y-112111048D01*
X186832501Y-114661048D02*
X186632501Y-114661048D01*
X187632501Y-114661048D02*
X187132501Y-114661048D01*
X188132501Y-114661048D02*
X187932501Y-114661048D01*
X187932501Y-113061048D02*
X188132501Y-113061048D01*
X187132501Y-113061048D02*
X187632501Y-113061048D01*
X186632501Y-113061048D02*
X186832501Y-113061048D01*
X186832501Y-113061048D02*
G75*
G03X187132501Y-113061048I150000J150000D01*
G01*
X187632501Y-113061048D02*
G75*
G03X187932501Y-113061048I150000J150000D01*
G01*
X187932501Y-114661048D02*
G75*
G03X187632501Y-114661048I-150000J-150000D01*
G01*
X187132501Y-114661048D02*
G75*
G03X186832501Y-114661048I-150000J-150000D01*
G01*
X186632501Y-114661048D02*
X186632501Y-113061048D01*
X188132501Y-113061048D02*
X188132501Y-114661048D01*
X192212431Y-112111048D02*
X192412431Y-112111048D01*
X191762431Y-114661048D02*
X191562431Y-114661048D01*
X192562431Y-114661048D02*
X192062431Y-114661048D01*
X193062431Y-114661048D02*
X192862431Y-114661048D01*
X192862431Y-113061048D02*
X193062431Y-113061048D01*
X192062431Y-113061048D02*
X192562431Y-113061048D01*
X191562431Y-113061048D02*
X191762431Y-113061048D01*
X191762431Y-113061048D02*
G75*
G03X192062431Y-113061048I150000J150000D01*
G01*
X192562431Y-113061048D02*
G75*
G03X192862431Y-113061048I150000J150000D01*
G01*
X192862431Y-114661048D02*
G75*
G03X192562431Y-114661048I-150000J-150000D01*
G01*
X192062431Y-114661048D02*
G75*
G03X191762431Y-114661048I-150000J-150000D01*
G01*
X191562431Y-114661048D02*
X191562431Y-113061048D01*
X193062431Y-113061048D02*
X193062431Y-114661048D01*
X196966254Y-112111048D02*
X197166254Y-112111048D01*
X196516254Y-114661048D02*
X196316254Y-114661048D01*
X197316254Y-114661048D02*
X196816254Y-114661048D01*
X197816254Y-114661048D02*
X197616254Y-114661048D01*
X197616254Y-113061048D02*
X197816254Y-113061048D01*
X196816254Y-113061048D02*
X197316254Y-113061048D01*
X196316254Y-113061048D02*
X196516254Y-113061048D01*
X196516254Y-113061048D02*
G75*
G03X196816254Y-113061048I150000J150000D01*
G01*
X197316254Y-113061048D02*
G75*
G03X197616254Y-113061048I150000J150000D01*
G01*
X197616254Y-114661048D02*
G75*
G03X197316254Y-114661048I-150000J-150000D01*
G01*
X196816254Y-114661048D02*
G75*
G03X196516254Y-114661048I-150000J-150000D01*
G01*
X196316254Y-114661048D02*
X196316254Y-113061048D01*
X197816254Y-113061048D02*
X197816254Y-114661048D01*
X201592579Y-112111048D02*
X201792579Y-112111048D01*
X201142579Y-114661048D02*
X200942579Y-114661048D01*
X201942579Y-114661048D02*
X201442579Y-114661048D01*
X202442579Y-114661048D02*
X202242579Y-114661048D01*
X202242579Y-113061048D02*
X202442579Y-113061048D01*
X201442579Y-113061048D02*
X201942579Y-113061048D01*
X200942579Y-113061048D02*
X201142579Y-113061048D01*
X201142579Y-113061048D02*
G75*
G03X201442579Y-113061048I150000J150000D01*
G01*
X201942579Y-113061048D02*
G75*
G03X202242579Y-113061048I150000J150000D01*
G01*
X202242579Y-114661048D02*
G75*
G03X201942579Y-114661048I-150000J-150000D01*
G01*
X201442579Y-114661048D02*
G75*
G03X201142579Y-114661048I-150000J-150000D01*
G01*
X200942579Y-114661048D02*
X200942579Y-113061048D01*
X202442579Y-113061048D02*
X202442579Y-114661048D01*
X206122888Y-112111048D02*
X206322888Y-112111048D01*
X205672888Y-114661048D02*
X205472888Y-114661048D01*
X206472888Y-114661048D02*
X205972888Y-114661048D01*
X206972888Y-114661048D02*
X206772888Y-114661048D01*
X206772888Y-113061048D02*
X206972888Y-113061048D01*
X205972888Y-113061048D02*
X206472888Y-113061048D01*
X205472888Y-113061048D02*
X205672888Y-113061048D01*
X205672888Y-113061048D02*
G75*
G03X205972888Y-113061048I150000J150000D01*
G01*
X206472888Y-113061048D02*
G75*
G03X206772888Y-113061048I150000J150000D01*
G01*
X206772888Y-114661048D02*
G75*
G03X206472888Y-114661048I-150000J-150000D01*
G01*
X205972888Y-114661048D02*
G75*
G03X205672888Y-114661048I-150000J-150000D01*
G01*
X205472888Y-114661048D02*
X205472888Y-113061048D01*
X206972888Y-113061048D02*
X206972888Y-114661048D01*
X210578692Y-112111048D02*
X210778692Y-112111048D01*
X210128692Y-114661048D02*
X209928692Y-114661048D01*
X210928692Y-114661048D02*
X210428692Y-114661048D01*
X211428692Y-114661048D02*
X211228692Y-114661048D01*
X211228692Y-113061048D02*
X211428692Y-113061048D01*
X210428692Y-113061048D02*
X210928692Y-113061048D01*
X209928692Y-113061048D02*
X210128692Y-113061048D01*
X210128692Y-113061048D02*
G75*
G03X210428692Y-113061048I150000J150000D01*
G01*
X210928692Y-113061048D02*
G75*
G03X211228692Y-113061048I150000J150000D01*
G01*
X211228692Y-114661048D02*
G75*
G03X210928692Y-114661048I-150000J-150000D01*
G01*
X210428692Y-114661048D02*
G75*
G03X210128692Y-114661048I-150000J-150000D01*
G01*
X209928692Y-114661048D02*
X209928692Y-113061048D01*
X211428692Y-113061048D02*
X211428692Y-114661048D01*
X214975296Y-112111048D02*
X215175296Y-112111048D01*
X214525296Y-114661048D02*
X214325296Y-114661048D01*
X215325296Y-114661048D02*
X214825296Y-114661048D01*
X215825296Y-114661048D02*
X215625296Y-114661048D01*
X215625296Y-113061048D02*
X215825296Y-113061048D01*
X214825296Y-113061048D02*
X215325296Y-113061048D01*
X214325296Y-113061048D02*
X214525296Y-113061048D01*
X214525296Y-113061048D02*
G75*
G03X214825296Y-113061048I150000J150000D01*
G01*
X215325296Y-113061048D02*
G75*
G03X215625296Y-113061048I150000J150000D01*
G01*
X215625296Y-114661048D02*
G75*
G03X215325296Y-114661048I-150000J-150000D01*
G01*
X214825296Y-114661048D02*
G75*
G03X214525296Y-114661048I-150000J-150000D01*
G01*
X214325296Y-114661048D02*
X214325296Y-113061048D01*
X215825296Y-113061048D02*
X215825296Y-114661048D01*
X163492002Y-118681767D02*
X163692002Y-118681767D01*
X163042002Y-121231767D02*
X162842002Y-121231767D01*
X163842002Y-121231767D02*
X163342002Y-121231767D01*
X164342002Y-121231767D02*
X164142002Y-121231767D01*
X164142002Y-119631767D02*
X164342002Y-119631767D01*
X163342002Y-119631767D02*
X163842002Y-119631767D01*
X162842002Y-119631767D02*
X163042002Y-119631767D01*
X163042002Y-119631767D02*
G75*
G03X163342002Y-119631767I150000J150000D01*
G01*
X163842002Y-119631767D02*
G75*
G03X164142002Y-119631767I150000J150000D01*
G01*
X164142002Y-121231767D02*
G75*
G03X163842002Y-121231767I-150000J-150000D01*
G01*
X163342002Y-121231767D02*
G75*
G03X163042002Y-121231767I-150000J-150000D01*
G01*
X162842002Y-121231767D02*
X162842002Y-119631767D01*
X164342002Y-119631767D02*
X164342002Y-121231767D01*
X170336070Y-118681767D02*
X170536070Y-118681767D01*
X169886070Y-121231767D02*
X169686070Y-121231767D01*
X170686070Y-121231767D02*
X170186070Y-121231767D01*
X171186070Y-121231767D02*
X170986070Y-121231767D01*
X170986070Y-119631767D02*
X171186070Y-119631767D01*
X170186070Y-119631767D02*
X170686070Y-119631767D01*
X169686070Y-119631767D02*
X169886070Y-119631767D01*
X169886070Y-119631767D02*
G75*
G03X170186070Y-119631767I150000J150000D01*
G01*
X170686070Y-119631767D02*
G75*
G03X170986070Y-119631767I150000J150000D01*
G01*
X170986070Y-121231767D02*
G75*
G03X170686070Y-121231767I-150000J-150000D01*
G01*
X170186070Y-121231767D02*
G75*
G03X169886070Y-121231767I-150000J-150000D01*
G01*
X169686070Y-121231767D02*
X169686070Y-119631767D01*
X171186070Y-119631767D02*
X171186070Y-121231767D01*
X176025149Y-118681767D02*
X176225149Y-118681767D01*
X175575149Y-121231767D02*
X175375149Y-121231767D01*
X176375149Y-121231767D02*
X175875149Y-121231767D01*
X176875149Y-121231767D02*
X176675149Y-121231767D01*
X176675149Y-119631767D02*
X176875149Y-119631767D01*
X175875149Y-119631767D02*
X176375149Y-119631767D01*
X175375149Y-119631767D02*
X175575149Y-119631767D01*
X175575149Y-119631767D02*
G75*
G03X175875149Y-119631767I150000J150000D01*
G01*
X176375149Y-119631767D02*
G75*
G03X176675149Y-119631767I150000J150000D01*
G01*
X176675149Y-121231767D02*
G75*
G03X176375149Y-121231767I-150000J-150000D01*
G01*
X175875149Y-121231767D02*
G75*
G03X175575149Y-121231767I-150000J-150000D01*
G01*
X175375149Y-121231767D02*
X175375149Y-119631767D01*
X176875149Y-119631767D02*
X176875149Y-121231767D01*
X181195589Y-118681767D02*
X181395589Y-118681767D01*
X180745589Y-121231767D02*
X180545589Y-121231767D01*
X181545589Y-121231767D02*
X181045589Y-121231767D01*
X182045589Y-121231767D02*
X181845589Y-121231767D01*
X181845589Y-119631767D02*
X182045589Y-119631767D01*
X181045589Y-119631767D02*
X181545589Y-119631767D01*
X180545589Y-119631767D02*
X180745589Y-119631767D01*
X180745589Y-119631767D02*
G75*
G03X181045589Y-119631767I150000J150000D01*
G01*
X181545589Y-119631767D02*
G75*
G03X181845589Y-119631767I150000J150000D01*
G01*
X181845589Y-121231767D02*
G75*
G03X181545589Y-121231767I-150000J-150000D01*
G01*
X181045589Y-121231767D02*
G75*
G03X180745589Y-121231767I-150000J-150000D01*
G01*
X180545589Y-121231767D02*
X180545589Y-119631767D01*
X182045589Y-119631767D02*
X182045589Y-121231767D01*
X190755780Y-118681767D02*
X190955780Y-118681767D01*
X190305780Y-121231767D02*
X190105780Y-121231767D01*
X191105780Y-121231767D02*
X190605780Y-121231767D01*
X191605780Y-121231767D02*
X191405780Y-121231767D01*
X191405780Y-119631767D02*
X191605780Y-119631767D01*
X190605780Y-119631767D02*
X191105780Y-119631767D01*
X190105780Y-119631767D02*
X190305780Y-119631767D01*
X190305780Y-119631767D02*
G75*
G03X190605780Y-119631767I150000J150000D01*
G01*
X191105780Y-119631767D02*
G75*
G03X191405780Y-119631767I150000J150000D01*
G01*
X191405780Y-121231767D02*
G75*
G03X191105780Y-121231767I-150000J-150000D01*
G01*
X190605780Y-121231767D02*
G75*
G03X190305780Y-121231767I-150000J-150000D01*
G01*
X190105780Y-121231767D02*
X190105780Y-119631767D01*
X191605780Y-119631767D02*
X191605780Y-121231767D01*
X195310189Y-118681767D02*
X195510189Y-118681767D01*
X194860189Y-121231767D02*
X194660189Y-121231767D01*
X195660189Y-121231767D02*
X195160189Y-121231767D01*
X196160189Y-121231767D02*
X195960189Y-121231767D01*
X195960189Y-119631767D02*
X196160189Y-119631767D01*
X195160189Y-119631767D02*
X195660189Y-119631767D01*
X194660189Y-119631767D02*
X194860189Y-119631767D01*
X194860189Y-119631767D02*
G75*
G03X195160189Y-119631767I150000J150000D01*
G01*
X195660189Y-119631767D02*
G75*
G03X195960189Y-119631767I150000J150000D01*
G01*
X195960189Y-121231767D02*
G75*
G03X195660189Y-121231767I-150000J-150000D01*
G01*
X195160189Y-121231767D02*
G75*
G03X194860189Y-121231767I-150000J-150000D01*
G01*
X194660189Y-121231767D02*
X194660189Y-119631767D01*
X196160189Y-119631767D02*
X196160189Y-121231767D01*
X199769587Y-118681767D02*
X199969587Y-118681767D01*
X199319587Y-121231767D02*
X199119587Y-121231767D01*
X200119587Y-121231767D02*
X199619587Y-121231767D01*
X200619587Y-121231767D02*
X200419587Y-121231767D01*
X200419587Y-119631767D02*
X200619587Y-119631767D01*
X199619587Y-119631767D02*
X200119587Y-119631767D01*
X199119587Y-119631767D02*
X199319587Y-119631767D01*
X199319587Y-119631767D02*
G75*
G03X199619587Y-119631767I150000J150000D01*
G01*
X200119587Y-119631767D02*
G75*
G03X200419587Y-119631767I150000J150000D01*
G01*
X200419587Y-121231767D02*
G75*
G03X200119587Y-121231767I-150000J-150000D01*
G01*
X199619587Y-121231767D02*
G75*
G03X199319587Y-121231767I-150000J-150000D01*
G01*
X199119587Y-121231767D02*
X199119587Y-119631767D01*
X200619587Y-119631767D02*
X200619587Y-121231767D01*
X204157406Y-118681767D02*
X204357406Y-118681767D01*
X203707406Y-121231767D02*
X203507406Y-121231767D01*
X204507406Y-121231767D02*
X204007406Y-121231767D01*
X205007406Y-121231767D02*
X204807406Y-121231767D01*
X204807406Y-119631767D02*
X205007406Y-119631767D01*
X204007406Y-119631767D02*
X204507406Y-119631767D01*
X203507406Y-119631767D02*
X203707406Y-119631767D01*
X203707406Y-119631767D02*
G75*
G03X204007406Y-119631767I150000J150000D01*
G01*
X204507406Y-119631767D02*
G75*
G03X204807406Y-119631767I150000J150000D01*
G01*
X204807406Y-121231767D02*
G75*
G03X204507406Y-121231767I-150000J-150000D01*
G01*
X204007406Y-121231767D02*
G75*
G03X203707406Y-121231767I-150000J-150000D01*
G01*
X203507406Y-121231767D02*
X203507406Y-119631767D01*
X205007406Y-119631767D02*
X205007406Y-121231767D01*
X208489731Y-118681767D02*
X208689731Y-118681767D01*
X208039731Y-121231767D02*
X207839731Y-121231767D01*
X208839731Y-121231767D02*
X208339731Y-121231767D01*
X209339731Y-121231767D02*
X209139731Y-121231767D01*
X209139731Y-119631767D02*
X209339731Y-119631767D01*
X208339731Y-119631767D02*
X208839731Y-119631767D01*
X207839731Y-119631767D02*
X208039731Y-119631767D01*
X208039731Y-119631767D02*
G75*
G03X208339731Y-119631767I150000J150000D01*
G01*
X208839731Y-119631767D02*
G75*
G03X209139731Y-119631767I150000J150000D01*
G01*
X209139731Y-121231767D02*
G75*
G03X208839731Y-121231767I-150000J-150000D01*
G01*
X208339731Y-121231767D02*
G75*
G03X208039731Y-121231767I-150000J-150000D01*
G01*
X207839731Y-121231767D02*
X207839731Y-119631767D01*
X209339731Y-119631767D02*
X209339731Y-121231767D01*
X212778033Y-118681767D02*
X212978033Y-118681767D01*
X212328033Y-121231767D02*
X212128033Y-121231767D01*
X213128033Y-121231767D02*
X212628033Y-121231767D01*
X213628033Y-121231767D02*
X213428033Y-121231767D01*
X213428033Y-119631767D02*
X213628033Y-119631767D01*
X212628033Y-119631767D02*
X213128033Y-119631767D01*
X212128033Y-119631767D02*
X212328033Y-119631767D01*
X212328033Y-119631767D02*
G75*
G03X212628033Y-119631767I150000J150000D01*
G01*
X213128033Y-119631767D02*
G75*
G03X213428033Y-119631767I150000J150000D01*
G01*
X213428033Y-121231767D02*
G75*
G03X213128033Y-121231767I-150000J-150000D01*
G01*
X212628033Y-121231767D02*
G75*
G03X212328033Y-121231767I-150000J-150000D01*
G01*
X212128033Y-121231767D02*
X212128033Y-119631767D01*
X213628033Y-119631767D02*
X213628033Y-121231767D01*
X217030749Y-118681767D02*
X217230749Y-118681767D01*
X216580749Y-121231767D02*
X216380749Y-121231767D01*
X217380749Y-121231767D02*
X216880749Y-121231767D01*
X217880749Y-121231767D02*
X217680749Y-121231767D01*
X217680749Y-119631767D02*
X217880749Y-119631767D01*
X216880749Y-119631767D02*
X217380749Y-119631767D01*
X216380749Y-119631767D02*
X216580749Y-119631767D01*
X216580749Y-119631767D02*
G75*
G03X216880749Y-119631767I150000J150000D01*
G01*
X217380749Y-119631767D02*
G75*
G03X217680749Y-119631767I150000J150000D01*
G01*
X217680749Y-121231767D02*
G75*
G03X217380749Y-121231767I-150000J-150000D01*
G01*
X216880749Y-121231767D02*
G75*
G03X216580749Y-121231767I-150000J-150000D01*
G01*
X216380749Y-121231767D02*
X216380749Y-119631767D01*
X217880749Y-119631767D02*
X217880749Y-121231767D01*
X164086148Y-125252485D02*
X164286148Y-125252485D01*
X163636148Y-127802485D02*
X163436148Y-127802485D01*
X164436148Y-127802485D02*
X163936148Y-127802485D01*
X164936148Y-127802485D02*
X164736148Y-127802485D01*
X164736148Y-126202485D02*
X164936148Y-126202485D01*
X163936148Y-126202485D02*
X164436148Y-126202485D01*
X163436148Y-126202485D02*
X163636148Y-126202485D01*
X163636148Y-126202485D02*
G75*
G03X163936148Y-126202485I150000J150000D01*
G01*
X164436148Y-126202485D02*
G75*
G03X164736148Y-126202485I150000J150000D01*
G01*
X164736148Y-127802485D02*
G75*
G03X164436148Y-127802485I-150000J-150000D01*
G01*
X163936148Y-127802485D02*
G75*
G03X163636148Y-127802485I-150000J-150000D01*
G01*
X163436148Y-127802485D02*
X163436148Y-126202485D01*
X164936148Y-126202485D02*
X164936148Y-127802485D01*
X169953360Y-125252485D02*
X170153360Y-125252485D01*
X169503360Y-127802485D02*
X169303360Y-127802485D01*
X170303360Y-127802485D02*
X169803360Y-127802485D01*
X170803360Y-127802485D02*
X170603360Y-127802485D01*
X170603360Y-126202485D02*
X170803360Y-126202485D01*
X169803360Y-126202485D02*
X170303360Y-126202485D01*
X169303360Y-126202485D02*
X169503360Y-126202485D01*
X169503360Y-126202485D02*
G75*
G03X169803360Y-126202485I150000J150000D01*
G01*
X170303360Y-126202485D02*
G75*
G03X170603360Y-126202485I150000J150000D01*
G01*
X170603360Y-127802485D02*
G75*
G03X170303360Y-127802485I-150000J-150000D01*
G01*
X169803360Y-127802485D02*
G75*
G03X169503360Y-127802485I-150000J-150000D01*
G01*
X169303360Y-127802485D02*
X169303360Y-126202485D01*
X170803360Y-126202485D02*
X170803360Y-127802485D01*
X175099756Y-125252485D02*
X175299756Y-125252485D01*
X174649756Y-127802485D02*
X174449756Y-127802485D01*
X175449756Y-127802485D02*
X174949756Y-127802485D01*
X175949756Y-127802485D02*
X175749756Y-127802485D01*
X175749756Y-126202485D02*
X175949756Y-126202485D01*
X174949756Y-126202485D02*
X175449756Y-126202485D01*
X174449756Y-126202485D02*
X174649756Y-126202485D01*
X174649756Y-126202485D02*
G75*
G03X174949756Y-126202485I150000J150000D01*
G01*
X175449756Y-126202485D02*
G75*
G03X175749756Y-126202485I150000J150000D01*
G01*
X175749756Y-127802485D02*
G75*
G03X175449756Y-127802485I-150000J-150000D01*
G01*
X174949756Y-127802485D02*
G75*
G03X174649756Y-127802485I-150000J-150000D01*
G01*
X174449756Y-127802485D02*
X174449756Y-126202485D01*
X175949756Y-126202485D02*
X175949756Y-127802485D01*
X179898636Y-125252485D02*
X180098636Y-125252485D01*
X179448636Y-127802485D02*
X179248636Y-127802485D01*
X180248636Y-127802485D02*
X179748636Y-127802485D01*
X180748636Y-127802485D02*
X180548636Y-127802485D01*
X180548636Y-126202485D02*
X180748636Y-126202485D01*
X179748636Y-126202485D02*
X180248636Y-126202485D01*
X179248636Y-126202485D02*
X179448636Y-126202485D01*
X179448636Y-126202485D02*
G75*
G03X179748636Y-126202485I150000J150000D01*
G01*
X180248636Y-126202485D02*
G75*
G03X180548636Y-126202485I150000J150000D01*
G01*
X180548636Y-127802485D02*
G75*
G03X180248636Y-127802485I-150000J-150000D01*
G01*
X179748636Y-127802485D02*
G75*
G03X179448636Y-127802485I-150000J-150000D01*
G01*
X179248636Y-127802485D02*
X179248636Y-126202485D01*
X180748636Y-126202485D02*
X180748636Y-127802485D01*
X184494922Y-125252485D02*
X184694922Y-125252485D01*
X184044922Y-127802485D02*
X183844922Y-127802485D01*
X184844922Y-127802485D02*
X184344922Y-127802485D01*
X185344922Y-127802485D02*
X185144922Y-127802485D01*
X185144922Y-126202485D02*
X185344922Y-126202485D01*
X184344922Y-126202485D02*
X184844922Y-126202485D01*
X183844922Y-126202485D02*
X184044922Y-126202485D01*
X184044922Y-126202485D02*
G75*
G03X184344922Y-126202485I150000J150000D01*
G01*
X184844922Y-126202485D02*
G75*
G03X185144922Y-126202485I150000J150000D01*
G01*
X185144922Y-127802485D02*
G75*
G03X184844922Y-127802485I-150000J-150000D01*
G01*
X184344922Y-127802485D02*
G75*
G03X184044922Y-127802485I-150000J-150000D01*
G01*
X183844922Y-127802485D02*
X183844922Y-126202485D01*
X185344922Y-126202485D02*
X185344922Y-127802485D01*
X188960198Y-125252485D02*
X189160198Y-125252485D01*
X188510198Y-127802485D02*
X188310198Y-127802485D01*
X189310198Y-127802485D02*
X188810198Y-127802485D01*
X189810198Y-127802485D02*
X189610198Y-127802485D01*
X189610198Y-126202485D02*
X189810198Y-126202485D01*
X188810198Y-126202485D02*
X189310198Y-126202485D01*
X188310198Y-126202485D02*
X188510198Y-126202485D01*
X188510198Y-126202485D02*
G75*
G03X188810198Y-126202485I150000J150000D01*
G01*
X189310198Y-126202485D02*
G75*
G03X189610198Y-126202485I150000J150000D01*
G01*
X189610198Y-127802485D02*
G75*
G03X189310198Y-127802485I-150000J-150000D01*
G01*
X188810198Y-127802485D02*
G75*
G03X188510198Y-127802485I-150000J-150000D01*
G01*
X188310198Y-127802485D02*
X188310198Y-126202485D01*
X189810198Y-126202485D02*
X189810198Y-127802485D01*
X193334888Y-125252485D02*
X193534888Y-125252485D01*
X192884888Y-127802485D02*
X192684888Y-127802485D01*
X193684888Y-127802485D02*
X193184888Y-127802485D01*
X194184888Y-127802485D02*
X193984888Y-127802485D01*
X193984888Y-126202485D02*
X194184888Y-126202485D01*
X193184888Y-126202485D02*
X193684888Y-126202485D01*
X192684888Y-126202485D02*
X192884888Y-126202485D01*
X192884888Y-126202485D02*
G75*
G03X193184888Y-126202485I150000J150000D01*
G01*
X193684888Y-126202485D02*
G75*
G03X193984888Y-126202485I150000J150000D01*
G01*
X193984888Y-127802485D02*
G75*
G03X193684888Y-127802485I-150000J-150000D01*
G01*
X193184888Y-127802485D02*
G75*
G03X192884888Y-127802485I-150000J-150000D01*
G01*
X192684888Y-127802485D02*
X192684888Y-126202485D01*
X194184888Y-126202485D02*
X194184888Y-127802485D01*
X197643900Y-125252485D02*
X197843900Y-125252485D01*
X197193900Y-127802485D02*
X196993900Y-127802485D01*
X197993900Y-127802485D02*
X197493900Y-127802485D01*
X198493900Y-127802485D02*
X198293900Y-127802485D01*
X198293900Y-126202485D02*
X198493900Y-126202485D01*
X197493900Y-126202485D02*
X197993900Y-126202485D01*
X196993900Y-126202485D02*
X197193900Y-126202485D01*
X197193900Y-126202485D02*
G75*
G03X197493900Y-126202485I150000J150000D01*
G01*
X197993900Y-126202485D02*
G75*
G03X198293900Y-126202485I150000J150000D01*
G01*
X198293900Y-127802485D02*
G75*
G03X197993900Y-127802485I-150000J-150000D01*
G01*
X197493900Y-127802485D02*
G75*
G03X197193900Y-127802485I-150000J-150000D01*
G01*
X196993900Y-127802485D02*
X196993900Y-126202485D01*
X198493900Y-126202485D02*
X198493900Y-127802485D01*
X201903562Y-125252485D02*
X202103562Y-125252485D01*
X201453562Y-127802485D02*
X201253562Y-127802485D01*
X202253562Y-127802485D02*
X201753562Y-127802485D01*
X202753562Y-127802485D02*
X202553562Y-127802485D01*
X202553562Y-126202485D02*
X202753562Y-126202485D01*
X201753562Y-126202485D02*
X202253562Y-126202485D01*
X201253562Y-126202485D02*
X201453562Y-126202485D01*
X201453562Y-126202485D02*
G75*
G03X201753562Y-126202485I150000J150000D01*
G01*
X202253562Y-126202485D02*
G75*
G03X202553562Y-126202485I150000J150000D01*
G01*
X202553562Y-127802485D02*
G75*
G03X202253562Y-127802485I-150000J-150000D01*
G01*
X201753562Y-127802485D02*
G75*
G03X201453562Y-127802485I-150000J-150000D01*
G01*
X201253562Y-127802485D02*
X201253562Y-126202485D01*
X202753562Y-126202485D02*
X202753562Y-127802485D01*
X206125091Y-125252485D02*
X206325091Y-125252485D01*
X205675091Y-127802485D02*
X205475091Y-127802485D01*
X206475091Y-127802485D02*
X205975091Y-127802485D01*
X206975091Y-127802485D02*
X206775091Y-127802485D01*
X206775091Y-126202485D02*
X206975091Y-126202485D01*
X205975091Y-126202485D02*
X206475091Y-126202485D01*
X205475091Y-126202485D02*
X205675091Y-126202485D01*
X205675091Y-126202485D02*
G75*
G03X205975091Y-126202485I150000J150000D01*
G01*
X206475091Y-126202485D02*
G75*
G03X206775091Y-126202485I150000J150000D01*
G01*
X206775091Y-127802485D02*
G75*
G03X206475091Y-127802485I-150000J-150000D01*
G01*
X205975091Y-127802485D02*
G75*
G03X205675091Y-127802485I-150000J-150000D01*
G01*
X205475091Y-127802485D02*
X205475091Y-126202485D01*
X206975091Y-126202485D02*
X206975091Y-127802485D01*
X210316482Y-125252485D02*
X210516482Y-125252485D01*
X209866482Y-127802485D02*
X209666482Y-127802485D01*
X210666482Y-127802485D02*
X210166482Y-127802485D01*
X211166482Y-127802485D02*
X210966482Y-127802485D01*
X210966482Y-126202485D02*
X211166482Y-126202485D01*
X210166482Y-126202485D02*
X210666482Y-126202485D01*
X209666482Y-126202485D02*
X209866482Y-126202485D01*
X209866482Y-126202485D02*
G75*
G03X210166482Y-126202485I150000J150000D01*
G01*
X210666482Y-126202485D02*
G75*
G03X210966482Y-126202485I150000J150000D01*
G01*
X210966482Y-127802485D02*
G75*
G03X210666482Y-127802485I-150000J-150000D01*
G01*
X210166482Y-127802485D02*
G75*
G03X209866482Y-127802485I-150000J-150000D01*
G01*
X209666482Y-127802485D02*
X209666482Y-126202485D01*
X211166482Y-126202485D02*
X211166482Y-127802485D01*
X214483603Y-125252485D02*
X214683603Y-125252485D01*
X214033603Y-127802485D02*
X213833603Y-127802485D01*
X214833603Y-127802485D02*
X214333603Y-127802485D01*
X215333603Y-127802485D02*
X215133603Y-127802485D01*
X215133603Y-126202485D02*
X215333603Y-126202485D01*
X214333603Y-126202485D02*
X214833603Y-126202485D01*
X213833603Y-126202485D02*
X214033603Y-126202485D01*
X214033603Y-126202485D02*
G75*
G03X214333603Y-126202485I150000J150000D01*
G01*
X214833603Y-126202485D02*
G75*
G03X215133603Y-126202485I150000J150000D01*
G01*
X215133603Y-127802485D02*
G75*
G03X214833603Y-127802485I-150000J-150000D01*
G01*
X214333603Y-127802485D02*
G75*
G03X214033603Y-127802485I-150000J-150000D01*
G01*
X213833603Y-127802485D02*
X213833603Y-126202485D01*
X215333603Y-126202485D02*
X215333603Y-127802485D01*
X218630868Y-125252485D02*
X218830868Y-125252485D01*
X218180868Y-127802485D02*
X217980868Y-127802485D01*
X218980868Y-127802485D02*
X218480868Y-127802485D01*
X219480868Y-127802485D02*
X219280868Y-127802485D01*
X219280868Y-126202485D02*
X219480868Y-126202485D01*
X218480868Y-126202485D02*
X218980868Y-126202485D01*
X217980868Y-126202485D02*
X218180868Y-126202485D01*
X218180868Y-126202485D02*
G75*
G03X218480868Y-126202485I150000J150000D01*
G01*
X218980868Y-126202485D02*
G75*
G03X219280868Y-126202485I150000J150000D01*
G01*
X219280868Y-127802485D02*
G75*
G03X218980868Y-127802485I-150000J-150000D01*
G01*
X218480868Y-127802485D02*
G75*
G03X218180868Y-127802485I-150000J-150000D01*
G01*
X217980868Y-127802485D02*
X217980868Y-126202485D01*
X219480868Y-126202485D02*
X219480868Y-127802485D01*
X168986457Y-131823204D02*
X169186457Y-131823204D01*
X168536457Y-134373204D02*
X168336457Y-134373204D01*
X169336457Y-134373204D02*
X168836457Y-134373204D01*
X169836457Y-134373204D02*
X169636457Y-134373204D01*
X169636457Y-132773204D02*
X169836457Y-132773204D01*
X168836457Y-132773204D02*
X169336457Y-132773204D01*
X168336457Y-132773204D02*
X168536457Y-132773204D01*
X168536457Y-132773204D02*
G75*
G03X168836457Y-132773204I150000J150000D01*
G01*
X169336457Y-132773204D02*
G75*
G03X169636457Y-132773204I150000J150000D01*
G01*
X169636457Y-134373204D02*
G75*
G03X169336457Y-134373204I-150000J-150000D01*
G01*
X168836457Y-134373204D02*
G75*
G03X168536457Y-134373204I-150000J-150000D01*
G01*
X168336457Y-134373204D02*
X168336457Y-132773204D01*
X169836457Y-132773204D02*
X169836457Y-134373204D01*
X173673584Y-131823204D02*
X173873584Y-131823204D01*
X173223584Y-134373204D02*
X173023584Y-134373204D01*
X174023584Y-134373204D02*
X173523584Y-134373204D01*
X174523584Y-134373204D02*
X174323584Y-134373204D01*
X174323584Y-132773204D02*
X174523584Y-132773204D01*
X173523584Y-132773204D02*
X174023584Y-132773204D01*
X173023584Y-132773204D02*
X173223584Y-132773204D01*
X173223584Y-132773204D02*
G75*
G03X173523584Y-132773204I150000J150000D01*
G01*
X174023584Y-132773204D02*
G75*
G03X174323584Y-132773204I150000J150000D01*
G01*
X174323584Y-134373204D02*
G75*
G03X174023584Y-134373204I-150000J-150000D01*
G01*
X173523584Y-134373204D02*
G75*
G03X173223584Y-134373204I-150000J-150000D01*
G01*
X173023584Y-134373204D02*
X173023584Y-132773204D01*
X174523584Y-132773204D02*
X174523584Y-134373204D01*
X178150199Y-131823204D02*
X178350199Y-131823204D01*
X177700199Y-134373204D02*
X177500199Y-134373204D01*
X178500199Y-134373204D02*
X178000199Y-134373204D01*
X179000199Y-134373204D02*
X178800199Y-134373204D01*
X178800199Y-132773204D02*
X179000199Y-132773204D01*
X178000199Y-132773204D02*
X178500199Y-132773204D01*
X177500199Y-132773204D02*
X177700199Y-132773204D01*
X177700199Y-132773204D02*
G75*
G03X178000199Y-132773204I150000J150000D01*
G01*
X178500199Y-132773204D02*
G75*
G03X178800199Y-132773204I150000J150000D01*
G01*
X178800199Y-134373204D02*
G75*
G03X178500199Y-134373204I-150000J-150000D01*
G01*
X178000199Y-134373204D02*
G75*
G03X177700199Y-134373204I-150000J-150000D01*
G01*
X177500199Y-134373204D02*
X177500199Y-132773204D01*
X179000199Y-132773204D02*
X179000199Y-134373204D01*
X182503132Y-131823204D02*
X182703132Y-131823204D01*
X182053132Y-134373204D02*
X181853132Y-134373204D01*
X182853132Y-134373204D02*
X182353132Y-134373204D01*
X183353132Y-134373204D02*
X183153132Y-134373204D01*
X183153132Y-132773204D02*
X183353132Y-132773204D01*
X182353132Y-132773204D02*
X182853132Y-132773204D01*
X181853132Y-132773204D02*
X182053132Y-132773204D01*
X182053132Y-132773204D02*
G75*
G03X182353132Y-132773204I150000J150000D01*
G01*
X182853132Y-132773204D02*
G75*
G03X183153132Y-132773204I150000J150000D01*
G01*
X183153132Y-134373204D02*
G75*
G03X182853132Y-134373204I-150000J-150000D01*
G01*
X182353132Y-134373204D02*
G75*
G03X182053132Y-134373204I-150000J-150000D01*
G01*
X181853132Y-134373204D02*
X181853132Y-132773204D01*
X183353132Y-132773204D02*
X183353132Y-134373204D01*
X186776207Y-131823204D02*
X186976207Y-131823204D01*
X186326207Y-134373204D02*
X186126207Y-134373204D01*
X187126207Y-134373204D02*
X186626207Y-134373204D01*
X187626207Y-134373204D02*
X187426207Y-134373204D01*
X187426207Y-132773204D02*
X187626207Y-132773204D01*
X186626207Y-132773204D02*
X187126207Y-132773204D01*
X186126207Y-132773204D02*
X186326207Y-132773204D01*
X186326207Y-132773204D02*
G75*
G03X186626207Y-132773204I150000J150000D01*
G01*
X187126207Y-132773204D02*
G75*
G03X187426207Y-132773204I150000J150000D01*
G01*
X187426207Y-134373204D02*
G75*
G03X187126207Y-134373204I-150000J-150000D01*
G01*
X186626207Y-134373204D02*
G75*
G03X186326207Y-134373204I-150000J-150000D01*
G01*
X186126207Y-134373204D02*
X186126207Y-132773204D01*
X187626207Y-132773204D02*
X187626207Y-134373204D01*
X190994344Y-131823204D02*
X191194344Y-131823204D01*
X190544344Y-134373204D02*
X190344344Y-134373204D01*
X191344344Y-134373204D02*
X190844344Y-134373204D01*
X191844344Y-134373204D02*
X191644344Y-134373204D01*
X191644344Y-132773204D02*
X191844344Y-132773204D01*
X190844344Y-132773204D02*
X191344344Y-132773204D01*
X190344344Y-132773204D02*
X190544344Y-132773204D01*
X190544344Y-132773204D02*
G75*
G03X190844344Y-132773204I150000J150000D01*
G01*
X191344344Y-132773204D02*
G75*
G03X191644344Y-132773204I150000J150000D01*
G01*
X191644344Y-134373204D02*
G75*
G03X191344344Y-134373204I-150000J-150000D01*
G01*
X190844344Y-134373204D02*
G75*
G03X190544344Y-134373204I-150000J-150000D01*
G01*
X190344344Y-134373204D02*
X190344344Y-132773204D01*
X191844344Y-132773204D02*
X191844344Y-134373204D01*
X195172901Y-131823204D02*
X195372901Y-131823204D01*
X194722901Y-134373204D02*
X194522901Y-134373204D01*
X195522901Y-134373204D02*
X195022901Y-134373204D01*
X196022901Y-134373204D02*
X195822901Y-134373204D01*
X195822901Y-132773204D02*
X196022901Y-132773204D01*
X195022901Y-132773204D02*
X195522901Y-132773204D01*
X194522901Y-132773204D02*
X194722901Y-132773204D01*
X194722901Y-132773204D02*
G75*
G03X195022901Y-132773204I150000J150000D01*
G01*
X195522901Y-132773204D02*
G75*
G03X195822901Y-132773204I150000J150000D01*
G01*
X195822901Y-134373204D02*
G75*
G03X195522901Y-134373204I-150000J-150000D01*
G01*
X195022901Y-134373204D02*
G75*
G03X194722901Y-134373204I-150000J-150000D01*
G01*
X194522901Y-134373204D02*
X194522901Y-132773204D01*
X196022901Y-132773204D02*
X196022901Y-134373204D01*
X199321919Y-131823204D02*
X199521919Y-131823204D01*
X198871919Y-134373204D02*
X198671919Y-134373204D01*
X199671919Y-134373204D02*
X199171919Y-134373204D01*
X200171919Y-134373204D02*
X199971919Y-134373204D01*
X199971919Y-132773204D02*
X200171919Y-132773204D01*
X199171919Y-132773204D02*
X199671919Y-132773204D01*
X198671919Y-132773204D02*
X198871919Y-132773204D01*
X198871919Y-132773204D02*
G75*
G03X199171919Y-132773204I150000J150000D01*
G01*
X199671919Y-132773204D02*
G75*
G03X199971919Y-132773204I150000J150000D01*
G01*
X199971919Y-134373204D02*
G75*
G03X199671919Y-134373204I-150000J-150000D01*
G01*
X199171919Y-134373204D02*
G75*
G03X198871919Y-134373204I-150000J-150000D01*
G01*
X198671919Y-134373204D02*
X198671919Y-132773204D01*
X200171919Y-132773204D02*
X200171919Y-134373204D01*
X203448263Y-131823204D02*
X203648263Y-131823204D01*
X202998263Y-134373204D02*
X202798263Y-134373204D01*
X203798263Y-134373204D02*
X203298263Y-134373204D01*
X204298263Y-134373204D02*
X204098263Y-134373204D01*
X204098263Y-132773204D02*
X204298263Y-132773204D01*
X203298263Y-132773204D02*
X203798263Y-132773204D01*
X202798263Y-132773204D02*
X202998263Y-132773204D01*
X202998263Y-132773204D02*
G75*
G03X203298263Y-132773204I150000J150000D01*
G01*
X203798263Y-132773204D02*
G75*
G03X204098263Y-132773204I150000J150000D01*
G01*
X204098263Y-134373204D02*
G75*
G03X203798263Y-134373204I-150000J-150000D01*
G01*
X203298263Y-134373204D02*
G75*
G03X202998263Y-134373204I-150000J-150000D01*
G01*
X202798263Y-134373204D02*
X202798263Y-132773204D01*
X204298263Y-132773204D02*
X204298263Y-134373204D01*
X207556803Y-131823204D02*
X207756803Y-131823204D01*
X207106803Y-134373204D02*
X206906803Y-134373204D01*
X207906803Y-134373204D02*
X207406803Y-134373204D01*
X208406803Y-134373204D02*
X208206803Y-134373204D01*
X208206803Y-132773204D02*
X208406803Y-132773204D01*
X207406803Y-132773204D02*
X207906803Y-132773204D01*
X206906803Y-132773204D02*
X207106803Y-132773204D01*
X207106803Y-132773204D02*
G75*
G03X207406803Y-132773204I150000J150000D01*
G01*
X207906803Y-132773204D02*
G75*
G03X208206803Y-132773204I150000J150000D01*
G01*
X208206803Y-134373204D02*
G75*
G03X207906803Y-134373204I-150000J-150000D01*
G01*
X207406803Y-134373204D02*
G75*
G03X207106803Y-134373204I-150000J-150000D01*
G01*
X206906803Y-134373204D02*
X206906803Y-132773204D01*
X208406803Y-132773204D02*
X208406803Y-134373204D01*
X211651092Y-131823204D02*
X211851092Y-131823204D01*
X211201092Y-134373204D02*
X211001092Y-134373204D01*
X212001092Y-134373204D02*
X211501092Y-134373204D01*
X212501092Y-134373204D02*
X212301092Y-134373204D01*
X212301092Y-132773204D02*
X212501092Y-132773204D01*
X211501092Y-132773204D02*
X212001092Y-132773204D01*
X211001092Y-132773204D02*
X211201092Y-132773204D01*
X211201092Y-132773204D02*
G75*
G03X211501092Y-132773204I150000J150000D01*
G01*
X212001092Y-132773204D02*
G75*
G03X212301092Y-132773204I150000J150000D01*
G01*
X212301092Y-134373204D02*
G75*
G03X212001092Y-134373204I-150000J-150000D01*
G01*
X211501092Y-134373204D02*
G75*
G03X211201092Y-134373204I-150000J-150000D01*
G01*
X211001092Y-134373204D02*
X211001092Y-132773204D01*
X212501092Y-132773204D02*
X212501092Y-134373204D01*
X215733790Y-131823204D02*
X215933790Y-131823204D01*
X215283790Y-134373204D02*
X215083790Y-134373204D01*
X216083790Y-134373204D02*
X215583790Y-134373204D01*
X216583790Y-134373204D02*
X216383790Y-134373204D01*
X216383790Y-132773204D02*
X216583790Y-132773204D01*
X215583790Y-132773204D02*
X216083790Y-132773204D01*
X215083790Y-132773204D02*
X215283790Y-132773204D01*
X215283790Y-132773204D02*
G75*
G03X215583790Y-132773204I150000J150000D01*
G01*
X216083790Y-132773204D02*
G75*
G03X216383790Y-132773204I150000J150000D01*
G01*
X216383790Y-134373204D02*
G75*
G03X216083790Y-134373204I-150000J-150000D01*
G01*
X215583790Y-134373204D02*
G75*
G03X215283790Y-134373204I-150000J-150000D01*
G01*
X215083790Y-134373204D02*
X215083790Y-132773204D01*
X216583790Y-132773204D02*
X216583790Y-134373204D01*
X219806926Y-131823204D02*
X220006926Y-131823204D01*
X219356926Y-134373204D02*
X219156926Y-134373204D01*
X220156926Y-134373204D02*
X219656926Y-134373204D01*
X220656926Y-134373204D02*
X220456926Y-134373204D01*
X220456926Y-132773204D02*
X220656926Y-132773204D01*
X219656926Y-132773204D02*
X220156926Y-132773204D01*
X219156926Y-132773204D02*
X219356926Y-132773204D01*
X219356926Y-132773204D02*
G75*
G03X219656926Y-132773204I150000J150000D01*
G01*
X220156926Y-132773204D02*
G75*
G03X220456926Y-132773204I150000J150000D01*
G01*
X220456926Y-134373204D02*
G75*
G03X220156926Y-134373204I-150000J-150000D01*
G01*
X219656926Y-134373204D02*
G75*
G03X219356926Y-134373204I-150000J-150000D01*
G01*
X219156926Y-134373204D02*
X219156926Y-132773204D01*
X220656926Y-132773204D02*
X220656926Y-134373204D01*
X167338457Y-138393922D02*
X167538457Y-138393922D01*
X166888457Y-140943922D02*
X166688457Y-140943922D01*
X167688457Y-140943922D02*
X167188457Y-140943922D01*
X168188457Y-140943922D02*
X167988457Y-140943922D01*
X167988457Y-139343922D02*
X168188457Y-139343922D01*
X167188457Y-139343922D02*
X167688457Y-139343922D01*
X166688457Y-139343922D02*
X166888457Y-139343922D01*
X166888457Y-139343922D02*
G75*
G03X167188457Y-139343922I150000J150000D01*
G01*
X167688457Y-139343922D02*
G75*
G03X167988457Y-139343922I150000J150000D01*
G01*
X167988457Y-140943922D02*
G75*
G03X167688457Y-140943922I-150000J-150000D01*
G01*
X167188457Y-140943922D02*
G75*
G03X166888457Y-140943922I-150000J-150000D01*
G01*
X166688457Y-140943922D02*
X166688457Y-139343922D01*
X168188457Y-139343922D02*
X168188457Y-140943922D01*
X171648338Y-138393922D02*
X171848338Y-138393922D01*
X171198338Y-140943922D02*
X170998338Y-140943922D01*
X171998338Y-140943922D02*
X171498338Y-140943922D01*
X172498338Y-140943922D02*
X172298338Y-140943922D01*
X172298338Y-139343922D02*
X172498338Y-139343922D01*
X171498338Y-139343922D02*
X171998338Y-139343922D01*
X170998338Y-139343922D02*
X171198338Y-139343922D01*
X171198338Y-139343922D02*
G75*
G03X171498338Y-139343922I150000J150000D01*
G01*
X171998338Y-139343922D02*
G75*
G03X172298338Y-139343922I150000J150000D01*
G01*
X172298338Y-140943922D02*
G75*
G03X171998338Y-140943922I-150000J-150000D01*
G01*
X171498338Y-140943922D02*
G75*
G03X171198338Y-140943922I-150000J-150000D01*
G01*
X170998338Y-140943922D02*
X170998338Y-139343922D01*
X172498338Y-139343922D02*
X172498338Y-140943922D01*
X175859212Y-138393922D02*
X176059212Y-138393922D01*
X175409212Y-140943922D02*
X175209212Y-140943922D01*
X176209212Y-140943922D02*
X175709212Y-140943922D01*
X176709212Y-140943922D02*
X176509212Y-140943922D01*
X176509212Y-139343922D02*
X176709212Y-139343922D01*
X175709212Y-139343922D02*
X176209212Y-139343922D01*
X175209212Y-139343922D02*
X175409212Y-139343922D01*
X175409212Y-139343922D02*
G75*
G03X175709212Y-139343922I150000J150000D01*
G01*
X176209212Y-139343922D02*
G75*
G03X176509212Y-139343922I150000J150000D01*
G01*
X176509212Y-140943922D02*
G75*
G03X176209212Y-140943922I-150000J-150000D01*
G01*
X175709212Y-140943922D02*
G75*
G03X175409212Y-140943922I-150000J-150000D01*
G01*
X175209212Y-140943922D02*
X175209212Y-139343922D01*
X176709212Y-139343922D02*
X176709212Y-140943922D01*
X180012641Y-138393922D02*
X180212641Y-138393922D01*
X179562641Y-140943922D02*
X179362641Y-140943922D01*
X180362641Y-140943922D02*
X179862641Y-140943922D01*
X180862641Y-140943922D02*
X180662641Y-140943922D01*
X180662641Y-139343922D02*
X180862641Y-139343922D01*
X179862641Y-139343922D02*
X180362641Y-139343922D01*
X179362641Y-139343922D02*
X179562641Y-139343922D01*
X179562641Y-139343922D02*
G75*
G03X179862641Y-139343922I150000J150000D01*
G01*
X180362641Y-139343922D02*
G75*
G03X180662641Y-139343922I150000J150000D01*
G01*
X180662641Y-140943922D02*
G75*
G03X180362641Y-140943922I-150000J-150000D01*
G01*
X179862641Y-140943922D02*
G75*
G03X179562641Y-140943922I-150000J-150000D01*
G01*
X179362641Y-140943922D02*
X179362641Y-139343922D01*
X180862641Y-139343922D02*
X180862641Y-140943922D01*
X184129543Y-138393922D02*
X184329543Y-138393922D01*
X183679543Y-140943922D02*
X183479543Y-140943922D01*
X184479543Y-140943922D02*
X183979543Y-140943922D01*
X184979543Y-140943922D02*
X184779543Y-140943922D01*
X184779543Y-139343922D02*
X184979543Y-139343922D01*
X183979543Y-139343922D02*
X184479543Y-139343922D01*
X183479543Y-139343922D02*
X183679543Y-139343922D01*
X183679543Y-139343922D02*
G75*
G03X183979543Y-139343922I150000J150000D01*
G01*
X184479543Y-139343922D02*
G75*
G03X184779543Y-139343922I150000J150000D01*
G01*
X184779543Y-140943922D02*
G75*
G03X184479543Y-140943922I-150000J-150000D01*
G01*
X183979543Y-140943922D02*
G75*
G03X183679543Y-140943922I-150000J-150000D01*
G01*
X183479543Y-140943922D02*
X183479543Y-139343922D01*
X184979543Y-139343922D02*
X184979543Y-140943922D01*
X188221691Y-138393922D02*
X188421691Y-138393922D01*
X187771691Y-140943922D02*
X187571691Y-140943922D01*
X188571691Y-140943922D02*
X188071691Y-140943922D01*
X189071691Y-140943922D02*
X188871691Y-140943922D01*
X188871691Y-139343922D02*
X189071691Y-139343922D01*
X188071691Y-139343922D02*
X188571691Y-139343922D01*
X187571691Y-139343922D02*
X187771691Y-139343922D01*
X187771691Y-139343922D02*
G75*
G03X188071691Y-139343922I150000J150000D01*
G01*
X188571691Y-139343922D02*
G75*
G03X188871691Y-139343922I150000J150000D01*
G01*
X188871691Y-140943922D02*
G75*
G03X188571691Y-140943922I-150000J-150000D01*
G01*
X188071691Y-140943922D02*
G75*
G03X187771691Y-140943922I-150000J-150000D01*
G01*
X187571691Y-140943922D02*
X187571691Y-139343922D01*
X189071691Y-139343922D02*
X189071691Y-140943922D01*
X192296256Y-138393922D02*
X192496256Y-138393922D01*
X191846256Y-140943922D02*
X191646256Y-140943922D01*
X192646256Y-140943922D02*
X192146256Y-140943922D01*
X193146256Y-140943922D02*
X192946256Y-140943922D01*
X192946256Y-139343922D02*
X193146256Y-139343922D01*
X192146256Y-139343922D02*
X192646256Y-139343922D01*
X191646256Y-139343922D02*
X191846256Y-139343922D01*
X191846256Y-139343922D02*
G75*
G03X192146256Y-139343922I150000J150000D01*
G01*
X192646256Y-139343922D02*
G75*
G03X192946256Y-139343922I150000J150000D01*
G01*
X192946256Y-140943922D02*
G75*
G03X192646256Y-140943922I-150000J-150000D01*
G01*
X192146256Y-140943922D02*
G75*
G03X191846256Y-140943922I-150000J-150000D01*
G01*
X191646256Y-140943922D02*
X191646256Y-139343922D01*
X193146256Y-139343922D02*
X193146256Y-140943922D01*
X196357862Y-138393922D02*
X196557862Y-138393922D01*
X195907862Y-140943922D02*
X195707862Y-140943922D01*
X196707862Y-140943922D02*
X196207862Y-140943922D01*
X197207862Y-140943922D02*
X197007862Y-140943922D01*
X197007862Y-139343922D02*
X197207862Y-139343922D01*
X196207862Y-139343922D02*
X196707862Y-139343922D01*
X195707862Y-139343922D02*
X195907862Y-139343922D01*
X195907862Y-139343922D02*
G75*
G03X196207862Y-139343922I150000J150000D01*
G01*
X196707862Y-139343922D02*
G75*
G03X197007862Y-139343922I150000J150000D01*
G01*
X197007862Y-140943922D02*
G75*
G03X196707862Y-140943922I-150000J-150000D01*
G01*
X196207862Y-140943922D02*
G75*
G03X195907862Y-140943922I-150000J-150000D01*
G01*
X195707862Y-140943922D02*
X195707862Y-139343922D01*
X197207862Y-139343922D02*
X197207862Y-140943922D01*
X200409637Y-138393922D02*
X200609637Y-138393922D01*
X199959637Y-140943922D02*
X199759637Y-140943922D01*
X200759637Y-140943922D02*
X200259637Y-140943922D01*
X201259637Y-140943922D02*
X201059637Y-140943922D01*
X201059637Y-139343922D02*
X201259637Y-139343922D01*
X200259637Y-139343922D02*
X200759637Y-139343922D01*
X199759637Y-139343922D02*
X199959637Y-139343922D01*
X199959637Y-139343922D02*
G75*
G03X200259637Y-139343922I150000J150000D01*
G01*
X200759637Y-139343922D02*
G75*
G03X201059637Y-139343922I150000J150000D01*
G01*
X201059637Y-140943922D02*
G75*
G03X200759637Y-140943922I-150000J-150000D01*
G01*
X200259637Y-140943922D02*
G75*
G03X199959637Y-140943922I-150000J-150000D01*
G01*
X199759637Y-140943922D02*
X199759637Y-139343922D01*
X201259637Y-139343922D02*
X201259637Y-140943922D01*
X204453770Y-138393922D02*
X204653770Y-138393922D01*
X204003770Y-140943922D02*
X203803770Y-140943922D01*
X204803770Y-140943922D02*
X204303770Y-140943922D01*
X205303770Y-140943922D02*
X205103770Y-140943922D01*
X205103770Y-139343922D02*
X205303770Y-139343922D01*
X204303770Y-139343922D02*
X204803770Y-139343922D01*
X203803770Y-139343922D02*
X204003770Y-139343922D01*
X204003770Y-139343922D02*
G75*
G03X204303770Y-139343922I150000J150000D01*
G01*
X204803770Y-139343922D02*
G75*
G03X205103770Y-139343922I150000J150000D01*
G01*
X205103770Y-140943922D02*
G75*
G03X204803770Y-140943922I-150000J-150000D01*
G01*
X204303770Y-140943922D02*
G75*
G03X204003770Y-140943922I-150000J-150000D01*
G01*
X203803770Y-140943922D02*
X203803770Y-139343922D01*
X205303770Y-139343922D02*
X205303770Y-140943922D01*
X208491845Y-138393922D02*
X208691845Y-138393922D01*
X208041845Y-140943922D02*
X207841845Y-140943922D01*
X208841845Y-140943922D02*
X208341845Y-140943922D01*
X209341845Y-140943922D02*
X209141845Y-140943922D01*
X209141845Y-139343922D02*
X209341845Y-139343922D01*
X208341845Y-139343922D02*
X208841845Y-139343922D01*
X207841845Y-139343922D02*
X208041845Y-139343922D01*
X208041845Y-139343922D02*
G75*
G03X208341845Y-139343922I150000J150000D01*
G01*
X208841845Y-139343922D02*
G75*
G03X209141845Y-139343922I150000J150000D01*
G01*
X209141845Y-140943922D02*
G75*
G03X208841845Y-140943922I-150000J-150000D01*
G01*
X208341845Y-140943922D02*
G75*
G03X208041845Y-140943922I-150000J-150000D01*
G01*
X207841845Y-140943922D02*
X207841845Y-139343922D01*
X209341845Y-139343922D02*
X209341845Y-140943922D01*
X212525033Y-138393922D02*
X212725033Y-138393922D01*
X212075033Y-140943922D02*
X211875033Y-140943922D01*
X212875033Y-140943922D02*
X212375033Y-140943922D01*
X213375033Y-140943922D02*
X213175033Y-140943922D01*
X213175033Y-139343922D02*
X213375033Y-139343922D01*
X212375033Y-139343922D02*
X212875033Y-139343922D01*
X211875033Y-139343922D02*
X212075033Y-139343922D01*
X212075033Y-139343922D02*
G75*
G03X212375033Y-139343922I150000J150000D01*
G01*
X212875033Y-139343922D02*
G75*
G03X213175033Y-139343922I150000J150000D01*
G01*
X213175033Y-140943922D02*
G75*
G03X212875033Y-140943922I-150000J-150000D01*
G01*
X212375033Y-140943922D02*
G75*
G03X212075033Y-140943922I-150000J-150000D01*
G01*
X211875033Y-140943922D02*
X211875033Y-139343922D01*
X213375033Y-139343922D02*
X213375033Y-140943922D01*
X216554221Y-138393922D02*
X216754221Y-138393922D01*
X216104221Y-140943922D02*
X215904221Y-140943922D01*
X216904221Y-140943922D02*
X216404221Y-140943922D01*
X217404221Y-140943922D02*
X217204221Y-140943922D01*
X217204221Y-139343922D02*
X217404221Y-139343922D01*
X216404221Y-139343922D02*
X216904221Y-139343922D01*
X215904221Y-139343922D02*
X216104221Y-139343922D01*
X216104221Y-139343922D02*
G75*
G03X216404221Y-139343922I150000J150000D01*
G01*
X216904221Y-139343922D02*
G75*
G03X217204221Y-139343922I150000J150000D01*
G01*
X217204221Y-140943922D02*
G75*
G03X216904221Y-140943922I-150000J-150000D01*
G01*
X216404221Y-140943922D02*
G75*
G03X216104221Y-140943922I-150000J-150000D01*
G01*
X215904221Y-140943922D02*
X215904221Y-139343922D01*
X217404221Y-139343922D02*
X217404221Y-140943922D01*
X220580094Y-138393922D02*
X220780094Y-138393922D01*
X220130094Y-140943922D02*
X219930094Y-140943922D01*
X220930094Y-140943922D02*
X220430094Y-140943922D01*
X221430094Y-140943922D02*
X221230094Y-140943922D01*
X221230094Y-139343922D02*
X221430094Y-139343922D01*
X220430094Y-139343922D02*
X220930094Y-139343922D01*
X219930094Y-139343922D02*
X220130094Y-139343922D01*
X220130094Y-139343922D02*
G75*
G03X220430094Y-139343922I150000J150000D01*
G01*
X220930094Y-139343922D02*
G75*
G03X221230094Y-139343922I150000J150000D01*
G01*
X221230094Y-140943922D02*
G75*
G03X220930094Y-140943922I-150000J-150000D01*
G01*
X220430094Y-140943922D02*
G75*
G03X220130094Y-140943922I-150000J-150000D01*
G01*
X219930094Y-140943922D02*
X219930094Y-139343922D01*
X221430094Y-139343922D02*
X221430094Y-140943922D01*
X168832735Y-144964641D02*
X169032735Y-144964641D01*
X168382735Y-147514641D02*
X168182735Y-147514641D01*
X169182735Y-147514641D02*
X168682735Y-147514641D01*
X169682735Y-147514641D02*
X169482735Y-147514641D01*
X169482735Y-145914641D02*
X169682735Y-145914641D01*
X168682735Y-145914641D02*
X169182735Y-145914641D01*
X168182735Y-145914641D02*
X168382735Y-145914641D01*
X168382735Y-145914641D02*
G75*
G03X168682735Y-145914641I150000J150000D01*
G01*
X169182735Y-145914641D02*
G75*
G03X169482735Y-145914641I150000J150000D01*
G01*
X169482735Y-147514641D02*
G75*
G03X169182735Y-147514641I-150000J-150000D01*
G01*
X168682735Y-147514641D02*
G75*
G03X168382735Y-147514641I-150000J-150000D01*
G01*
X168182735Y-147514641D02*
X168182735Y-145914641D01*
X169682735Y-145914641D02*
X169682735Y-147514641D01*
X172863861Y-144964641D02*
X173063861Y-144964641D01*
X172413861Y-147514641D02*
X172213861Y-147514641D01*
X173213861Y-147514641D02*
X172713861Y-147514641D01*
X173713861Y-147514641D02*
X173513861Y-147514641D01*
X173513861Y-145914641D02*
X173713861Y-145914641D01*
X172713861Y-145914641D02*
X173213861Y-145914641D01*
X172213861Y-145914641D02*
X172413861Y-145914641D01*
X172413861Y-145914641D02*
G75*
G03X172713861Y-145914641I150000J150000D01*
G01*
X173213861Y-145914641D02*
G75*
G03X173513861Y-145914641I150000J150000D01*
G01*
X173513861Y-147514641D02*
G75*
G03X173213861Y-147514641I-150000J-150000D01*
G01*
X172713861Y-147514641D02*
G75*
G03X172413861Y-147514641I-150000J-150000D01*
G01*
X172213861Y-147514641D02*
X172213861Y-145914641D01*
X173713861Y-145914641D02*
X173713861Y-147514641D01*
X176885725Y-144964641D02*
X177085725Y-144964641D01*
X176435725Y-147514641D02*
X176235725Y-147514641D01*
X177235725Y-147514641D02*
X176735725Y-147514641D01*
X177735725Y-147514641D02*
X177535725Y-147514641D01*
X177535725Y-145914641D02*
X177735725Y-145914641D01*
X176735725Y-145914641D02*
X177235725Y-145914641D01*
X176235725Y-145914641D02*
X176435725Y-145914641D01*
X176435725Y-145914641D02*
G75*
G03X176735725Y-145914641I150000J150000D01*
G01*
X177235725Y-145914641D02*
G75*
G03X177535725Y-145914641I150000J150000D01*
G01*
X177535725Y-147514641D02*
G75*
G03X177235725Y-147514641I-150000J-150000D01*
G01*
X176735725Y-147514641D02*
G75*
G03X176435725Y-147514641I-150000J-150000D01*
G01*
X176235725Y-147514641D02*
X176235725Y-145914641D01*
X177735725Y-145914641D02*
X177735725Y-147514641D01*
X180901932Y-144964641D02*
X181101932Y-144964641D01*
X180451932Y-147514641D02*
X180251932Y-147514641D01*
X181251932Y-147514641D02*
X180751932Y-147514641D01*
X181751932Y-147514641D02*
X181551932Y-147514641D01*
X181551932Y-145914641D02*
X181751932Y-145914641D01*
X180751932Y-145914641D02*
X181251932Y-145914641D01*
X180251932Y-145914641D02*
X180451932Y-145914641D01*
X180451932Y-145914641D02*
G75*
G03X180751932Y-145914641I150000J150000D01*
G01*
X181251932Y-145914641D02*
G75*
G03X181551932Y-145914641I150000J150000D01*
G01*
X181551932Y-147514641D02*
G75*
G03X181251932Y-147514641I-150000J-150000D01*
G01*
X180751932Y-147514641D02*
G75*
G03X180451932Y-147514641I-150000J-150000D01*
G01*
X180251932Y-147514641D02*
X180251932Y-145914641D01*
X181751932Y-145914641D02*
X181751932Y-147514641D01*
X184914429Y-144964641D02*
X185114429Y-144964641D01*
X184464429Y-147514641D02*
X184264429Y-147514641D01*
X185264429Y-147514641D02*
X184764429Y-147514641D01*
X185764429Y-147514641D02*
X185564429Y-147514641D01*
X185564429Y-145914641D02*
X185764429Y-145914641D01*
X184764429Y-145914641D02*
X185264429Y-145914641D01*
X184264429Y-145914641D02*
X184464429Y-145914641D01*
X184464429Y-145914641D02*
G75*
G03X184764429Y-145914641I150000J150000D01*
G01*
X185264429Y-145914641D02*
G75*
G03X185564429Y-145914641I150000J150000D01*
G01*
X185564429Y-147514641D02*
G75*
G03X185264429Y-147514641I-150000J-150000D01*
G01*
X184764429Y-147514641D02*
G75*
G03X184464429Y-147514641I-150000J-150000D01*
G01*
X184264429Y-147514641D02*
X184264429Y-145914641D01*
X185764429Y-145914641D02*
X185764429Y-147514641D01*
X188924361Y-144964641D02*
X189124361Y-144964641D01*
X188474361Y-147514641D02*
X188274361Y-147514641D01*
X189274361Y-147514641D02*
X188774361Y-147514641D01*
X189774361Y-147514641D02*
X189574361Y-147514641D01*
X189574361Y-145914641D02*
X189774361Y-145914641D01*
X188774361Y-145914641D02*
X189274361Y-145914641D01*
X188274361Y-145914641D02*
X188474361Y-145914641D01*
X188474361Y-145914641D02*
G75*
G03X188774361Y-145914641I150000J150000D01*
G01*
X189274361Y-145914641D02*
G75*
G03X189574361Y-145914641I150000J150000D01*
G01*
X189574361Y-147514641D02*
G75*
G03X189274361Y-147514641I-150000J-150000D01*
G01*
X188774361Y-147514641D02*
G75*
G03X188474361Y-147514641I-150000J-150000D01*
G01*
X188274361Y-147514641D02*
X188274361Y-145914641D01*
X189774361Y-145914641D02*
X189774361Y-147514641D01*
X192932443Y-144964641D02*
X193132443Y-144964641D01*
X192482443Y-147514641D02*
X192282443Y-147514641D01*
X193282443Y-147514641D02*
X192782443Y-147514641D01*
X193782443Y-147514641D02*
X193582443Y-147514641D01*
X193582443Y-145914641D02*
X193782443Y-145914641D01*
X192782443Y-145914641D02*
X193282443Y-145914641D01*
X192282443Y-145914641D02*
X192482443Y-145914641D01*
X192482443Y-145914641D02*
G75*
G03X192782443Y-145914641I150000J150000D01*
G01*
X193282443Y-145914641D02*
G75*
G03X193582443Y-145914641I150000J150000D01*
G01*
X193582443Y-147514641D02*
G75*
G03X193282443Y-147514641I-150000J-150000D01*
G01*
X192782443Y-147514641D02*
G75*
G03X192482443Y-147514641I-150000J-150000D01*
G01*
X192282443Y-147514641D02*
X192282443Y-145914641D01*
X193782443Y-145914641D02*
X193782443Y-147514641D01*
X196939150Y-144964641D02*
X197139150Y-144964641D01*
X196489150Y-147514641D02*
X196289150Y-147514641D01*
X197289150Y-147514641D02*
X196789150Y-147514641D01*
X197789150Y-147514641D02*
X197589150Y-147514641D01*
X197589150Y-145914641D02*
X197789150Y-145914641D01*
X196789150Y-145914641D02*
X197289150Y-145914641D01*
X196289150Y-145914641D02*
X196489150Y-145914641D01*
X196489150Y-145914641D02*
G75*
G03X196789150Y-145914641I150000J150000D01*
G01*
X197289150Y-145914641D02*
G75*
G03X197589150Y-145914641I150000J150000D01*
G01*
X197589150Y-147514641D02*
G75*
G03X197289150Y-147514641I-150000J-150000D01*
G01*
X196789150Y-147514641D02*
G75*
G03X196489150Y-147514641I-150000J-150000D01*
G01*
X196289150Y-147514641D02*
X196289150Y-145914641D01*
X197789150Y-145914641D02*
X197789150Y-147514641D01*
X200944805Y-144964641D02*
X201144805Y-144964641D01*
X200494805Y-147514641D02*
X200294805Y-147514641D01*
X201294805Y-147514641D02*
X200794805Y-147514641D01*
X201794805Y-147514641D02*
X201594805Y-147514641D01*
X201594805Y-145914641D02*
X201794805Y-145914641D01*
X200794805Y-145914641D02*
X201294805Y-145914641D01*
X200294805Y-145914641D02*
X200494805Y-145914641D01*
X200494805Y-145914641D02*
G75*
G03X200794805Y-145914641I150000J150000D01*
G01*
X201294805Y-145914641D02*
G75*
G03X201594805Y-145914641I150000J150000D01*
G01*
X201594805Y-147514641D02*
G75*
G03X201294805Y-147514641I-150000J-150000D01*
G01*
X200794805Y-147514641D02*
G75*
G03X200494805Y-147514641I-150000J-150000D01*
G01*
X200294805Y-147514641D02*
X200294805Y-145914641D01*
X201794805Y-145914641D02*
X201794805Y-147514641D01*
X204949637Y-144964641D02*
X205149637Y-144964641D01*
X204499637Y-147514641D02*
X204299637Y-147514641D01*
X205299637Y-147514641D02*
X204799637Y-147514641D01*
X205799637Y-147514641D02*
X205599637Y-147514641D01*
X205599637Y-145914641D02*
X205799637Y-145914641D01*
X204799637Y-145914641D02*
X205299637Y-145914641D01*
X204299637Y-145914641D02*
X204499637Y-145914641D01*
X204499637Y-145914641D02*
G75*
G03X204799637Y-145914641I150000J150000D01*
G01*
X205299637Y-145914641D02*
G75*
G03X205599637Y-145914641I150000J150000D01*
G01*
X205599637Y-147514641D02*
G75*
G03X205299637Y-147514641I-150000J-150000D01*
G01*
X204799637Y-147514641D02*
G75*
G03X204499637Y-147514641I-150000J-150000D01*
G01*
X204299637Y-147514641D02*
X204299637Y-145914641D01*
X205799637Y-145914641D02*
X205799637Y-147514641D01*
X208953814Y-144964641D02*
X209153814Y-144964641D01*
X208503814Y-147514641D02*
X208303814Y-147514641D01*
X209303814Y-147514641D02*
X208803814Y-147514641D01*
X209803814Y-147514641D02*
X209603814Y-147514641D01*
X209603814Y-145914641D02*
X209803814Y-145914641D01*
X208803814Y-145914641D02*
X209303814Y-145914641D01*
X208303814Y-145914641D02*
X208503814Y-145914641D01*
X208503814Y-145914641D02*
G75*
G03X208803814Y-145914641I150000J150000D01*
G01*
X209303814Y-145914641D02*
G75*
G03X209603814Y-145914641I150000J150000D01*
G01*
X209603814Y-147514641D02*
G75*
G03X209303814Y-147514641I-150000J-150000D01*
G01*
X208803814Y-147514641D02*
G75*
G03X208503814Y-147514641I-150000J-150000D01*
G01*
X208303814Y-147514641D02*
X208303814Y-145914641D01*
X209803814Y-145914641D02*
X209803814Y-147514641D01*
X212957461Y-144964641D02*
X213157461Y-144964641D01*
X212507461Y-147514641D02*
X212307461Y-147514641D01*
X213307461Y-147514641D02*
X212807461Y-147514641D01*
X213807461Y-147514641D02*
X213607461Y-147514641D01*
X213607461Y-145914641D02*
X213807461Y-145914641D01*
X212807461Y-145914641D02*
X213307461Y-145914641D01*
X212307461Y-145914641D02*
X212507461Y-145914641D01*
X212507461Y-145914641D02*
G75*
G03X212807461Y-145914641I150000J150000D01*
G01*
X213307461Y-145914641D02*
G75*
G03X213607461Y-145914641I150000J150000D01*
G01*
X213607461Y-147514641D02*
G75*
G03X213307461Y-147514641I-150000J-150000D01*
G01*
X212807461Y-147514641D02*
G75*
G03X212507461Y-147514641I-150000J-150000D01*
G01*
X212307461Y-147514641D02*
X212307461Y-145914641D01*
X213807461Y-145914641D02*
X213807461Y-147514641D01*
X216960673Y-144964641D02*
X217160673Y-144964641D01*
X216510673Y-147514641D02*
X216310673Y-147514641D01*
X217310673Y-147514641D02*
X216810673Y-147514641D01*
X217810673Y-147514641D02*
X217610673Y-147514641D01*
X217610673Y-145914641D02*
X217810673Y-145914641D01*
X216810673Y-145914641D02*
X217310673Y-145914641D01*
X216310673Y-145914641D02*
X216510673Y-145914641D01*
X216510673Y-145914641D02*
G75*
G03X216810673Y-145914641I150000J150000D01*
G01*
X217310673Y-145914641D02*
G75*
G03X217610673Y-145914641I150000J150000D01*
G01*
X217610673Y-147514641D02*
G75*
G03X217310673Y-147514641I-150000J-150000D01*
G01*
X216810673Y-147514641D02*
G75*
G03X216510673Y-147514641I-150000J-150000D01*
G01*
X216310673Y-147514641D02*
X216310673Y-145914641D01*
X217810673Y-145914641D02*
X217810673Y-147514641D01*
X220963523Y-144964641D02*
X221163523Y-144964641D01*
X220513523Y-147514641D02*
X220313523Y-147514641D01*
X221313523Y-147514641D02*
X220813523Y-147514641D01*
X221813523Y-147514641D02*
X221613523Y-147514641D01*
X221613523Y-145914641D02*
X221813523Y-145914641D01*
X220813523Y-145914641D02*
X221313523Y-145914641D01*
X220313523Y-145914641D02*
X220513523Y-145914641D01*
X220513523Y-145914641D02*
G75*
G03X220813523Y-145914641I150000J150000D01*
G01*
X221313523Y-145914641D02*
G75*
G03X221613523Y-145914641I150000J150000D01*
G01*
X221613523Y-147514641D02*
G75*
G03X221313523Y-147514641I-150000J-150000D01*
G01*
X220813523Y-147514641D02*
G75*
G03X220513523Y-147514641I-150000J-150000D01*
G01*
X220313523Y-147514641D02*
X220313523Y-145914641D01*
X221813523Y-145914641D02*
X221813523Y-147514641D01*
X168832735Y-151535359D02*
X169032735Y-151535359D01*
X168382735Y-154085359D02*
X168182735Y-154085359D01*
X169182735Y-154085359D02*
X168682735Y-154085359D01*
X169682735Y-154085359D02*
X169482735Y-154085359D01*
X169482735Y-152485359D02*
X169682735Y-152485359D01*
X168682735Y-152485359D02*
X169182735Y-152485359D01*
X168182735Y-152485359D02*
X168382735Y-152485359D01*
X168382735Y-152485359D02*
G75*
G03X168682735Y-152485359I150000J150000D01*
G01*
X169182735Y-152485359D02*
G75*
G03X169482735Y-152485359I150000J150000D01*
G01*
X169482735Y-154085359D02*
G75*
G03X169182735Y-154085359I-150000J-150000D01*
G01*
X168682735Y-154085359D02*
G75*
G03X168382735Y-154085359I-150000J-150000D01*
G01*
X168182735Y-154085359D02*
X168182735Y-152485359D01*
X169682735Y-152485359D02*
X169682735Y-154085359D01*
X172863861Y-151535359D02*
X173063861Y-151535359D01*
X172413861Y-154085359D02*
X172213861Y-154085359D01*
X173213861Y-154085359D02*
X172713861Y-154085359D01*
X173713861Y-154085359D02*
X173513861Y-154085359D01*
X173513861Y-152485359D02*
X173713861Y-152485359D01*
X172713861Y-152485359D02*
X173213861Y-152485359D01*
X172213861Y-152485359D02*
X172413861Y-152485359D01*
X172413861Y-152485359D02*
G75*
G03X172713861Y-152485359I150000J150000D01*
G01*
X173213861Y-152485359D02*
G75*
G03X173513861Y-152485359I150000J150000D01*
G01*
X173513861Y-154085359D02*
G75*
G03X173213861Y-154085359I-150000J-150000D01*
G01*
X172713861Y-154085359D02*
G75*
G03X172413861Y-154085359I-150000J-150000D01*
G01*
X172213861Y-154085359D02*
X172213861Y-152485359D01*
X173713861Y-152485359D02*
X173713861Y-154085359D01*
X176885725Y-151535359D02*
X177085725Y-151535359D01*
X176435725Y-154085359D02*
X176235725Y-154085359D01*
X177235725Y-154085359D02*
X176735725Y-154085359D01*
X177735725Y-154085359D02*
X177535725Y-154085359D01*
X177535725Y-152485359D02*
X177735725Y-152485359D01*
X176735725Y-152485359D02*
X177235725Y-152485359D01*
X176235725Y-152485359D02*
X176435725Y-152485359D01*
X176435725Y-152485359D02*
G75*
G03X176735725Y-152485359I150000J150000D01*
G01*
X177235725Y-152485359D02*
G75*
G03X177535725Y-152485359I150000J150000D01*
G01*
X177535725Y-154085359D02*
G75*
G03X177235725Y-154085359I-150000J-150000D01*
G01*
X176735725Y-154085359D02*
G75*
G03X176435725Y-154085359I-150000J-150000D01*
G01*
X176235725Y-154085359D02*
X176235725Y-152485359D01*
X177735725Y-152485359D02*
X177735725Y-154085359D01*
X180901932Y-151535359D02*
X181101932Y-151535359D01*
X180451932Y-154085359D02*
X180251932Y-154085359D01*
X181251932Y-154085359D02*
X180751932Y-154085359D01*
X181751932Y-154085359D02*
X181551932Y-154085359D01*
X181551932Y-152485359D02*
X181751932Y-152485359D01*
X180751932Y-152485359D02*
X181251932Y-152485359D01*
X180251932Y-152485359D02*
X180451932Y-152485359D01*
X180451932Y-152485359D02*
G75*
G03X180751932Y-152485359I150000J150000D01*
G01*
X181251932Y-152485359D02*
G75*
G03X181551932Y-152485359I150000J150000D01*
G01*
X181551932Y-154085359D02*
G75*
G03X181251932Y-154085359I-150000J-150000D01*
G01*
X180751932Y-154085359D02*
G75*
G03X180451932Y-154085359I-150000J-150000D01*
G01*
X180251932Y-154085359D02*
X180251932Y-152485359D01*
X181751932Y-152485359D02*
X181751932Y-154085359D01*
X184914429Y-151535359D02*
X185114429Y-151535359D01*
X184464429Y-154085359D02*
X184264429Y-154085359D01*
X185264429Y-154085359D02*
X184764429Y-154085359D01*
X185764429Y-154085359D02*
X185564429Y-154085359D01*
X185564429Y-152485359D02*
X185764429Y-152485359D01*
X184764429Y-152485359D02*
X185264429Y-152485359D01*
X184264429Y-152485359D02*
X184464429Y-152485359D01*
X184464429Y-152485359D02*
G75*
G03X184764429Y-152485359I150000J150000D01*
G01*
X185264429Y-152485359D02*
G75*
G03X185564429Y-152485359I150000J150000D01*
G01*
X185564429Y-154085359D02*
G75*
G03X185264429Y-154085359I-150000J-150000D01*
G01*
X184764429Y-154085359D02*
G75*
G03X184464429Y-154085359I-150000J-150000D01*
G01*
X184264429Y-154085359D02*
X184264429Y-152485359D01*
X185764429Y-152485359D02*
X185764429Y-154085359D01*
X188924361Y-151535359D02*
X189124361Y-151535359D01*
X188474361Y-154085359D02*
X188274361Y-154085359D01*
X189274361Y-154085359D02*
X188774361Y-154085359D01*
X189774361Y-154085359D02*
X189574361Y-154085359D01*
X189574361Y-152485359D02*
X189774361Y-152485359D01*
X188774361Y-152485359D02*
X189274361Y-152485359D01*
X188274361Y-152485359D02*
X188474361Y-152485359D01*
X188474361Y-152485359D02*
G75*
G03X188774361Y-152485359I150000J150000D01*
G01*
X189274361Y-152485359D02*
G75*
G03X189574361Y-152485359I150000J150000D01*
G01*
X189574361Y-154085359D02*
G75*
G03X189274361Y-154085359I-150000J-150000D01*
G01*
X188774361Y-154085359D02*
G75*
G03X188474361Y-154085359I-150000J-150000D01*
G01*
X188274361Y-154085359D02*
X188274361Y-152485359D01*
X189774361Y-152485359D02*
X189774361Y-154085359D01*
X192932443Y-151535359D02*
X193132443Y-151535359D01*
X192482443Y-154085359D02*
X192282443Y-154085359D01*
X193282443Y-154085359D02*
X192782443Y-154085359D01*
X193782443Y-154085359D02*
X193582443Y-154085359D01*
X193582443Y-152485359D02*
X193782443Y-152485359D01*
X192782443Y-152485359D02*
X193282443Y-152485359D01*
X192282443Y-152485359D02*
X192482443Y-152485359D01*
X192482443Y-152485359D02*
G75*
G03X192782443Y-152485359I150000J150000D01*
G01*
X193282443Y-152485359D02*
G75*
G03X193582443Y-152485359I150000J150000D01*
G01*
X193582443Y-154085359D02*
G75*
G03X193282443Y-154085359I-150000J-150000D01*
G01*
X192782443Y-154085359D02*
G75*
G03X192482443Y-154085359I-150000J-150000D01*
G01*
X192282443Y-154085359D02*
X192282443Y-152485359D01*
X193782443Y-152485359D02*
X193782443Y-154085359D01*
X196939150Y-151535359D02*
X197139150Y-151535359D01*
X196489150Y-154085359D02*
X196289150Y-154085359D01*
X197289150Y-154085359D02*
X196789150Y-154085359D01*
X197789150Y-154085359D02*
X197589150Y-154085359D01*
X197589150Y-152485359D02*
X197789150Y-152485359D01*
X196789150Y-152485359D02*
X197289150Y-152485359D01*
X196289150Y-152485359D02*
X196489150Y-152485359D01*
X196489150Y-152485359D02*
G75*
G03X196789150Y-152485359I150000J150000D01*
G01*
X197289150Y-152485359D02*
G75*
G03X197589150Y-152485359I150000J150000D01*
G01*
X197589150Y-154085359D02*
G75*
G03X197289150Y-154085359I-150000J-150000D01*
G01*
X196789150Y-154085359D02*
G75*
G03X196489150Y-154085359I-150000J-150000D01*
G01*
X196289150Y-154085359D02*
X196289150Y-152485359D01*
X197789150Y-152485359D02*
X197789150Y-154085359D01*
X200944805Y-151535359D02*
X201144805Y-151535359D01*
X200494805Y-154085359D02*
X200294805Y-154085359D01*
X201294805Y-154085359D02*
X200794805Y-154085359D01*
X201794805Y-154085359D02*
X201594805Y-154085359D01*
X201594805Y-152485359D02*
X201794805Y-152485359D01*
X200794805Y-152485359D02*
X201294805Y-152485359D01*
X200294805Y-152485359D02*
X200494805Y-152485359D01*
X200494805Y-152485359D02*
G75*
G03X200794805Y-152485359I150000J150000D01*
G01*
X201294805Y-152485359D02*
G75*
G03X201594805Y-152485359I150000J150000D01*
G01*
X201594805Y-154085359D02*
G75*
G03X201294805Y-154085359I-150000J-150000D01*
G01*
X200794805Y-154085359D02*
G75*
G03X200494805Y-154085359I-150000J-150000D01*
G01*
X200294805Y-154085359D02*
X200294805Y-152485359D01*
X201794805Y-152485359D02*
X201794805Y-154085359D01*
X204949637Y-151535359D02*
X205149637Y-151535359D01*
X204499637Y-154085359D02*
X204299637Y-154085359D01*
X205299637Y-154085359D02*
X204799637Y-154085359D01*
X205799637Y-154085359D02*
X205599637Y-154085359D01*
X205599637Y-152485359D02*
X205799637Y-152485359D01*
X204799637Y-152485359D02*
X205299637Y-152485359D01*
X204299637Y-152485359D02*
X204499637Y-152485359D01*
X204499637Y-152485359D02*
G75*
G03X204799637Y-152485359I150000J150000D01*
G01*
X205299637Y-152485359D02*
G75*
G03X205599637Y-152485359I150000J150000D01*
G01*
X205599637Y-154085359D02*
G75*
G03X205299637Y-154085359I-150000J-150000D01*
G01*
X204799637Y-154085359D02*
G75*
G03X204499637Y-154085359I-150000J-150000D01*
G01*
X204299637Y-154085359D02*
X204299637Y-152485359D01*
X205799637Y-152485359D02*
X205799637Y-154085359D01*
X208953814Y-151535359D02*
X209153814Y-151535359D01*
X208503814Y-154085359D02*
X208303814Y-154085359D01*
X209303814Y-154085359D02*
X208803814Y-154085359D01*
X209803814Y-154085359D02*
X209603814Y-154085359D01*
X209603814Y-152485359D02*
X209803814Y-152485359D01*
X208803814Y-152485359D02*
X209303814Y-152485359D01*
X208303814Y-152485359D02*
X208503814Y-152485359D01*
X208503814Y-152485359D02*
G75*
G03X208803814Y-152485359I150000J150000D01*
G01*
X209303814Y-152485359D02*
G75*
G03X209603814Y-152485359I150000J150000D01*
G01*
X209603814Y-154085359D02*
G75*
G03X209303814Y-154085359I-150000J-150000D01*
G01*
X208803814Y-154085359D02*
G75*
G03X208503814Y-154085359I-150000J-150000D01*
G01*
X208303814Y-154085359D02*
X208303814Y-152485359D01*
X209803814Y-152485359D02*
X209803814Y-154085359D01*
X212957461Y-151535359D02*
X213157461Y-151535359D01*
X212507461Y-154085359D02*
X212307461Y-154085359D01*
X213307461Y-154085359D02*
X212807461Y-154085359D01*
X213807461Y-154085359D02*
X213607461Y-154085359D01*
X213607461Y-152485359D02*
X213807461Y-152485359D01*
X212807461Y-152485359D02*
X213307461Y-152485359D01*
X212307461Y-152485359D02*
X212507461Y-152485359D01*
X212507461Y-152485359D02*
G75*
G03X212807461Y-152485359I150000J150000D01*
G01*
X213307461Y-152485359D02*
G75*
G03X213607461Y-152485359I150000J150000D01*
G01*
X213607461Y-154085359D02*
G75*
G03X213307461Y-154085359I-150000J-150000D01*
G01*
X212807461Y-154085359D02*
G75*
G03X212507461Y-154085359I-150000J-150000D01*
G01*
X212307461Y-154085359D02*
X212307461Y-152485359D01*
X213807461Y-152485359D02*
X213807461Y-154085359D01*
X216960673Y-151535359D02*
X217160673Y-151535359D01*
X216510673Y-154085359D02*
X216310673Y-154085359D01*
X217310673Y-154085359D02*
X216810673Y-154085359D01*
X217810673Y-154085359D02*
X217610673Y-154085359D01*
X217610673Y-152485359D02*
X217810673Y-152485359D01*
X216810673Y-152485359D02*
X217310673Y-152485359D01*
X216310673Y-152485359D02*
X216510673Y-152485359D01*
X216510673Y-152485359D02*
G75*
G03X216810673Y-152485359I150000J150000D01*
G01*
X217310673Y-152485359D02*
G75*
G03X217610673Y-152485359I150000J150000D01*
G01*
X217610673Y-154085359D02*
G75*
G03X217310673Y-154085359I-150000J-150000D01*
G01*
X216810673Y-154085359D02*
G75*
G03X216510673Y-154085359I-150000J-150000D01*
G01*
X216310673Y-154085359D02*
X216310673Y-152485359D01*
X217810673Y-152485359D02*
X217810673Y-154085359D01*
X220963523Y-151535359D02*
X221163523Y-151535359D01*
X220513523Y-154085359D02*
X220313523Y-154085359D01*
X221313523Y-154085359D02*
X220813523Y-154085359D01*
X221813523Y-154085359D02*
X221613523Y-154085359D01*
X221613523Y-152485359D02*
X221813523Y-152485359D01*
X220813523Y-152485359D02*
X221313523Y-152485359D01*
X220313523Y-152485359D02*
X220513523Y-152485359D01*
X220513523Y-152485359D02*
G75*
G03X220813523Y-152485359I150000J150000D01*
G01*
X221313523Y-152485359D02*
G75*
G03X221613523Y-152485359I150000J150000D01*
G01*
X221613523Y-154085359D02*
G75*
G03X221313523Y-154085359I-150000J-150000D01*
G01*
X220813523Y-154085359D02*
G75*
G03X220513523Y-154085359I-150000J-150000D01*
G01*
X220313523Y-154085359D02*
X220313523Y-152485359D01*
X221813523Y-152485359D02*
X221813523Y-154085359D01*
X167338457Y-158106078D02*
X167538457Y-158106078D01*
X166888457Y-160656078D02*
X166688457Y-160656078D01*
X167688457Y-160656078D02*
X167188457Y-160656078D01*
X168188457Y-160656078D02*
X167988457Y-160656078D01*
X167988457Y-159056078D02*
X168188457Y-159056078D01*
X167188457Y-159056078D02*
X167688457Y-159056078D01*
X166688457Y-159056078D02*
X166888457Y-159056078D01*
X166888457Y-159056078D02*
G75*
G03X167188457Y-159056078I150000J150000D01*
G01*
X167688457Y-159056078D02*
G75*
G03X167988457Y-159056078I150000J150000D01*
G01*
X167988457Y-160656078D02*
G75*
G03X167688457Y-160656078I-150000J-150000D01*
G01*
X167188457Y-160656078D02*
G75*
G03X166888457Y-160656078I-150000J-150000D01*
G01*
X166688457Y-160656078D02*
X166688457Y-159056078D01*
X168188457Y-159056078D02*
X168188457Y-160656078D01*
X171648338Y-158106078D02*
X171848338Y-158106078D01*
X171198338Y-160656078D02*
X170998338Y-160656078D01*
X171998338Y-160656078D02*
X171498338Y-160656078D01*
X172498338Y-160656078D02*
X172298338Y-160656078D01*
X172298338Y-159056078D02*
X172498338Y-159056078D01*
X171498338Y-159056078D02*
X171998338Y-159056078D01*
X170998338Y-159056078D02*
X171198338Y-159056078D01*
X171198338Y-159056078D02*
G75*
G03X171498338Y-159056078I150000J150000D01*
G01*
X171998338Y-159056078D02*
G75*
G03X172298338Y-159056078I150000J150000D01*
G01*
X172298338Y-160656078D02*
G75*
G03X171998338Y-160656078I-150000J-150000D01*
G01*
X171498338Y-160656078D02*
G75*
G03X171198338Y-160656078I-150000J-150000D01*
G01*
X170998338Y-160656078D02*
X170998338Y-159056078D01*
X172498338Y-159056078D02*
X172498338Y-160656078D01*
X175859212Y-158106078D02*
X176059212Y-158106078D01*
X175409212Y-160656078D02*
X175209212Y-160656078D01*
X176209212Y-160656078D02*
X175709212Y-160656078D01*
X176709212Y-160656078D02*
X176509212Y-160656078D01*
X176509212Y-159056078D02*
X176709212Y-159056078D01*
X175709212Y-159056078D02*
X176209212Y-159056078D01*
X175209212Y-159056078D02*
X175409212Y-159056078D01*
X175409212Y-159056078D02*
G75*
G03X175709212Y-159056078I150000J150000D01*
G01*
X176209212Y-159056078D02*
G75*
G03X176509212Y-159056078I150000J150000D01*
G01*
X176509212Y-160656078D02*
G75*
G03X176209212Y-160656078I-150000J-150000D01*
G01*
X175709212Y-160656078D02*
G75*
G03X175409212Y-160656078I-150000J-150000D01*
G01*
X175209212Y-160656078D02*
X175209212Y-159056078D01*
X176709212Y-159056078D02*
X176709212Y-160656078D01*
X180012641Y-158106078D02*
X180212641Y-158106078D01*
X179562641Y-160656078D02*
X179362641Y-160656078D01*
X180362641Y-160656078D02*
X179862641Y-160656078D01*
X180862641Y-160656078D02*
X180662641Y-160656078D01*
X180662641Y-159056078D02*
X180862641Y-159056078D01*
X179862641Y-159056078D02*
X180362641Y-159056078D01*
X179362641Y-159056078D02*
X179562641Y-159056078D01*
X179562641Y-159056078D02*
G75*
G03X179862641Y-159056078I150000J150000D01*
G01*
X180362641Y-159056078D02*
G75*
G03X180662641Y-159056078I150000J150000D01*
G01*
X180662641Y-160656078D02*
G75*
G03X180362641Y-160656078I-150000J-150000D01*
G01*
X179862641Y-160656078D02*
G75*
G03X179562641Y-160656078I-150000J-150000D01*
G01*
X179362641Y-160656078D02*
X179362641Y-159056078D01*
X180862641Y-159056078D02*
X180862641Y-160656078D01*
X184129543Y-158106078D02*
X184329543Y-158106078D01*
X183679543Y-160656078D02*
X183479543Y-160656078D01*
X184479543Y-160656078D02*
X183979543Y-160656078D01*
X184979543Y-160656078D02*
X184779543Y-160656078D01*
X184779543Y-159056078D02*
X184979543Y-159056078D01*
X183979543Y-159056078D02*
X184479543Y-159056078D01*
X183479543Y-159056078D02*
X183679543Y-159056078D01*
X183679543Y-159056078D02*
G75*
G03X183979543Y-159056078I150000J150000D01*
G01*
X184479543Y-159056078D02*
G75*
G03X184779543Y-159056078I150000J150000D01*
G01*
X184779543Y-160656078D02*
G75*
G03X184479543Y-160656078I-150000J-150000D01*
G01*
X183979543Y-160656078D02*
G75*
G03X183679543Y-160656078I-150000J-150000D01*
G01*
X183479543Y-160656078D02*
X183479543Y-159056078D01*
X184979543Y-159056078D02*
X184979543Y-160656078D01*
X188221691Y-158106078D02*
X188421691Y-158106078D01*
X187771691Y-160656078D02*
X187571691Y-160656078D01*
X188571691Y-160656078D02*
X188071691Y-160656078D01*
X189071691Y-160656078D02*
X188871691Y-160656078D01*
X188871691Y-159056078D02*
X189071691Y-159056078D01*
X188071691Y-159056078D02*
X188571691Y-159056078D01*
X187571691Y-159056078D02*
X187771691Y-159056078D01*
X187771691Y-159056078D02*
G75*
G03X188071691Y-159056078I150000J150000D01*
G01*
X188571691Y-159056078D02*
G75*
G03X188871691Y-159056078I150000J150000D01*
G01*
X188871691Y-160656078D02*
G75*
G03X188571691Y-160656078I-150000J-150000D01*
G01*
X188071691Y-160656078D02*
G75*
G03X187771691Y-160656078I-150000J-150000D01*
G01*
X187571691Y-160656078D02*
X187571691Y-159056078D01*
X189071691Y-159056078D02*
X189071691Y-160656078D01*
X192296256Y-158106078D02*
X192496256Y-158106078D01*
X191846256Y-160656078D02*
X191646256Y-160656078D01*
X192646256Y-160656078D02*
X192146256Y-160656078D01*
X193146256Y-160656078D02*
X192946256Y-160656078D01*
X192946256Y-159056078D02*
X193146256Y-159056078D01*
X192146256Y-159056078D02*
X192646256Y-159056078D01*
X191646256Y-159056078D02*
X191846256Y-159056078D01*
X191846256Y-159056078D02*
G75*
G03X192146256Y-159056078I150000J150000D01*
G01*
X192646256Y-159056078D02*
G75*
G03X192946256Y-159056078I150000J150000D01*
G01*
X192946256Y-160656078D02*
G75*
G03X192646256Y-160656078I-150000J-150000D01*
G01*
X192146256Y-160656078D02*
G75*
G03X191846256Y-160656078I-150000J-150000D01*
G01*
X191646256Y-160656078D02*
X191646256Y-159056078D01*
X193146256Y-159056078D02*
X193146256Y-160656078D01*
X196357862Y-158106078D02*
X196557862Y-158106078D01*
X195907862Y-160656078D02*
X195707862Y-160656078D01*
X196707862Y-160656078D02*
X196207862Y-160656078D01*
X197207862Y-160656078D02*
X197007862Y-160656078D01*
X197007862Y-159056078D02*
X197207862Y-159056078D01*
X196207862Y-159056078D02*
X196707862Y-159056078D01*
X195707862Y-159056078D02*
X195907862Y-159056078D01*
X195907862Y-159056078D02*
G75*
G03X196207862Y-159056078I150000J150000D01*
G01*
X196707862Y-159056078D02*
G75*
G03X197007862Y-159056078I150000J150000D01*
G01*
X197007862Y-160656078D02*
G75*
G03X196707862Y-160656078I-150000J-150000D01*
G01*
X196207862Y-160656078D02*
G75*
G03X195907862Y-160656078I-150000J-150000D01*
G01*
X195707862Y-160656078D02*
X195707862Y-159056078D01*
X197207862Y-159056078D02*
X197207862Y-160656078D01*
X200409637Y-158106078D02*
X200609637Y-158106078D01*
X199959637Y-160656078D02*
X199759637Y-160656078D01*
X200759637Y-160656078D02*
X200259637Y-160656078D01*
X201259637Y-160656078D02*
X201059637Y-160656078D01*
X201059637Y-159056078D02*
X201259637Y-159056078D01*
X200259637Y-159056078D02*
X200759637Y-159056078D01*
X199759637Y-159056078D02*
X199959637Y-159056078D01*
X199959637Y-159056078D02*
G75*
G03X200259637Y-159056078I150000J150000D01*
G01*
X200759637Y-159056078D02*
G75*
G03X201059637Y-159056078I150000J150000D01*
G01*
X201059637Y-160656078D02*
G75*
G03X200759637Y-160656078I-150000J-150000D01*
G01*
X200259637Y-160656078D02*
G75*
G03X199959637Y-160656078I-150000J-150000D01*
G01*
X199759637Y-160656078D02*
X199759637Y-159056078D01*
X201259637Y-159056078D02*
X201259637Y-160656078D01*
X204453770Y-158106078D02*
X204653770Y-158106078D01*
X204003770Y-160656078D02*
X203803770Y-160656078D01*
X204803770Y-160656078D02*
X204303770Y-160656078D01*
X205303770Y-160656078D02*
X205103770Y-160656078D01*
X205103770Y-159056078D02*
X205303770Y-159056078D01*
X204303770Y-159056078D02*
X204803770Y-159056078D01*
X203803770Y-159056078D02*
X204003770Y-159056078D01*
X204003770Y-159056078D02*
G75*
G03X204303770Y-159056078I150000J150000D01*
G01*
X204803770Y-159056078D02*
G75*
G03X205103770Y-159056078I150000J150000D01*
G01*
X205103770Y-160656078D02*
G75*
G03X204803770Y-160656078I-150000J-150000D01*
G01*
X204303770Y-160656078D02*
G75*
G03X204003770Y-160656078I-150000J-150000D01*
G01*
X203803770Y-160656078D02*
X203803770Y-159056078D01*
X205303770Y-159056078D02*
X205303770Y-160656078D01*
X208491845Y-158106078D02*
X208691845Y-158106078D01*
X208041845Y-160656078D02*
X207841845Y-160656078D01*
X208841845Y-160656078D02*
X208341845Y-160656078D01*
X209341845Y-160656078D02*
X209141845Y-160656078D01*
X209141845Y-159056078D02*
X209341845Y-159056078D01*
X208341845Y-159056078D02*
X208841845Y-159056078D01*
X207841845Y-159056078D02*
X208041845Y-159056078D01*
X208041845Y-159056078D02*
G75*
G03X208341845Y-159056078I150000J150000D01*
G01*
X208841845Y-159056078D02*
G75*
G03X209141845Y-159056078I150000J150000D01*
G01*
X209141845Y-160656078D02*
G75*
G03X208841845Y-160656078I-150000J-150000D01*
G01*
X208341845Y-160656078D02*
G75*
G03X208041845Y-160656078I-150000J-150000D01*
G01*
X207841845Y-160656078D02*
X207841845Y-159056078D01*
X209341845Y-159056078D02*
X209341845Y-160656078D01*
X212525033Y-158106078D02*
X212725033Y-158106078D01*
X212075033Y-160656078D02*
X211875033Y-160656078D01*
X212875033Y-160656078D02*
X212375033Y-160656078D01*
X213375033Y-160656078D02*
X213175033Y-160656078D01*
X213175033Y-159056078D02*
X213375033Y-159056078D01*
X212375033Y-159056078D02*
X212875033Y-159056078D01*
X211875033Y-159056078D02*
X212075033Y-159056078D01*
X212075033Y-159056078D02*
G75*
G03X212375033Y-159056078I150000J150000D01*
G01*
X212875033Y-159056078D02*
G75*
G03X213175033Y-159056078I150000J150000D01*
G01*
X213175033Y-160656078D02*
G75*
G03X212875033Y-160656078I-150000J-150000D01*
G01*
X212375033Y-160656078D02*
G75*
G03X212075033Y-160656078I-150000J-150000D01*
G01*
X211875033Y-160656078D02*
X211875033Y-159056078D01*
X213375033Y-159056078D02*
X213375033Y-160656078D01*
X216554221Y-158106078D02*
X216754221Y-158106078D01*
X216104221Y-160656078D02*
X215904221Y-160656078D01*
X216904221Y-160656078D02*
X216404221Y-160656078D01*
X217404221Y-160656078D02*
X217204221Y-160656078D01*
X217204221Y-159056078D02*
X217404221Y-159056078D01*
X216404221Y-159056078D02*
X216904221Y-159056078D01*
X215904221Y-159056078D02*
X216104221Y-159056078D01*
X216104221Y-159056078D02*
G75*
G03X216404221Y-159056078I150000J150000D01*
G01*
X216904221Y-159056078D02*
G75*
G03X217204221Y-159056078I150000J150000D01*
G01*
X217204221Y-160656078D02*
G75*
G03X216904221Y-160656078I-150000J-150000D01*
G01*
X216404221Y-160656078D02*
G75*
G03X216104221Y-160656078I-150000J-150000D01*
G01*
X215904221Y-160656078D02*
X215904221Y-159056078D01*
X217404221Y-159056078D02*
X217404221Y-160656078D01*
X220580094Y-158106078D02*
X220780094Y-158106078D01*
X220130094Y-160656078D02*
X219930094Y-160656078D01*
X220930094Y-160656078D02*
X220430094Y-160656078D01*
X221430094Y-160656078D02*
X221230094Y-160656078D01*
X221230094Y-159056078D02*
X221430094Y-159056078D01*
X220430094Y-159056078D02*
X220930094Y-159056078D01*
X219930094Y-159056078D02*
X220130094Y-159056078D01*
X220130094Y-159056078D02*
G75*
G03X220430094Y-159056078I150000J150000D01*
G01*
X220930094Y-159056078D02*
G75*
G03X221230094Y-159056078I150000J150000D01*
G01*
X221230094Y-160656078D02*
G75*
G03X220930094Y-160656078I-150000J-150000D01*
G01*
X220430094Y-160656078D02*
G75*
G03X220130094Y-160656078I-150000J-150000D01*
G01*
X219930094Y-160656078D02*
X219930094Y-159056078D01*
X221430094Y-159056078D02*
X221430094Y-160656078D01*
X168986457Y-164676796D02*
X169186457Y-164676796D01*
X168536457Y-167226796D02*
X168336457Y-167226796D01*
X169336457Y-167226796D02*
X168836457Y-167226796D01*
X169836457Y-167226796D02*
X169636457Y-167226796D01*
X169636457Y-165626796D02*
X169836457Y-165626796D01*
X168836457Y-165626796D02*
X169336457Y-165626796D01*
X168336457Y-165626796D02*
X168536457Y-165626796D01*
X168536457Y-165626796D02*
G75*
G03X168836457Y-165626796I150000J150000D01*
G01*
X169336457Y-165626796D02*
G75*
G03X169636457Y-165626796I150000J150000D01*
G01*
X169636457Y-167226796D02*
G75*
G03X169336457Y-167226796I-150000J-150000D01*
G01*
X168836457Y-167226796D02*
G75*
G03X168536457Y-167226796I-150000J-150000D01*
G01*
X168336457Y-167226796D02*
X168336457Y-165626796D01*
X169836457Y-165626796D02*
X169836457Y-167226796D01*
X173673584Y-164676796D02*
X173873584Y-164676796D01*
X173223584Y-167226796D02*
X173023584Y-167226796D01*
X174023584Y-167226796D02*
X173523584Y-167226796D01*
X174523584Y-167226796D02*
X174323584Y-167226796D01*
X174323584Y-165626796D02*
X174523584Y-165626796D01*
X173523584Y-165626796D02*
X174023584Y-165626796D01*
X173023584Y-165626796D02*
X173223584Y-165626796D01*
X173223584Y-165626796D02*
G75*
G03X173523584Y-165626796I150000J150000D01*
G01*
X174023584Y-165626796D02*
G75*
G03X174323584Y-165626796I150000J150000D01*
G01*
X174323584Y-167226796D02*
G75*
G03X174023584Y-167226796I-150000J-150000D01*
G01*
X173523584Y-167226796D02*
G75*
G03X173223584Y-167226796I-150000J-150000D01*
G01*
X173023584Y-167226796D02*
X173023584Y-165626796D01*
X174523584Y-165626796D02*
X174523584Y-167226796D01*
X178150199Y-164676796D02*
X178350199Y-164676796D01*
X177700199Y-167226796D02*
X177500199Y-167226796D01*
X178500199Y-167226796D02*
X178000199Y-167226796D01*
X179000199Y-167226796D02*
X178800199Y-167226796D01*
X178800199Y-165626796D02*
X179000199Y-165626796D01*
X178000199Y-165626796D02*
X178500199Y-165626796D01*
X177500199Y-165626796D02*
X177700199Y-165626796D01*
X177700199Y-165626796D02*
G75*
G03X178000199Y-165626796I150000J150000D01*
G01*
X178500199Y-165626796D02*
G75*
G03X178800199Y-165626796I150000J150000D01*
G01*
X178800199Y-167226796D02*
G75*
G03X178500199Y-167226796I-150000J-150000D01*
G01*
X178000199Y-167226796D02*
G75*
G03X177700199Y-167226796I-150000J-150000D01*
G01*
X177500199Y-167226796D02*
X177500199Y-165626796D01*
X179000199Y-165626796D02*
X179000199Y-167226796D01*
X182503132Y-164676796D02*
X182703132Y-164676796D01*
X182053132Y-167226796D02*
X181853132Y-167226796D01*
X182853132Y-167226796D02*
X182353132Y-167226796D01*
X183353132Y-167226796D02*
X183153132Y-167226796D01*
X183153132Y-165626796D02*
X183353132Y-165626796D01*
X182353132Y-165626796D02*
X182853132Y-165626796D01*
X181853132Y-165626796D02*
X182053132Y-165626796D01*
X182053132Y-165626796D02*
G75*
G03X182353132Y-165626796I150000J150000D01*
G01*
X182853132Y-165626796D02*
G75*
G03X183153132Y-165626796I150000J150000D01*
G01*
X183153132Y-167226796D02*
G75*
G03X182853132Y-167226796I-150000J-150000D01*
G01*
X182353132Y-167226796D02*
G75*
G03X182053132Y-167226796I-150000J-150000D01*
G01*
X181853132Y-167226796D02*
X181853132Y-165626796D01*
X183353132Y-165626796D02*
X183353132Y-167226796D01*
X186776207Y-164676796D02*
X186976207Y-164676796D01*
X186326207Y-167226796D02*
X186126207Y-167226796D01*
X187126207Y-167226796D02*
X186626207Y-167226796D01*
X187626207Y-167226796D02*
X187426207Y-167226796D01*
X187426207Y-165626796D02*
X187626207Y-165626796D01*
X186626207Y-165626796D02*
X187126207Y-165626796D01*
X186126207Y-165626796D02*
X186326207Y-165626796D01*
X186326207Y-165626796D02*
G75*
G03X186626207Y-165626796I150000J150000D01*
G01*
X187126207Y-165626796D02*
G75*
G03X187426207Y-165626796I150000J150000D01*
G01*
X187426207Y-167226796D02*
G75*
G03X187126207Y-167226796I-150000J-150000D01*
G01*
X186626207Y-167226796D02*
G75*
G03X186326207Y-167226796I-150000J-150000D01*
G01*
X186126207Y-167226796D02*
X186126207Y-165626796D01*
X187626207Y-165626796D02*
X187626207Y-167226796D01*
X190994344Y-164676796D02*
X191194344Y-164676796D01*
X190544344Y-167226796D02*
X190344344Y-167226796D01*
X191344344Y-167226796D02*
X190844344Y-167226796D01*
X191844344Y-167226796D02*
X191644344Y-167226796D01*
X191644344Y-165626796D02*
X191844344Y-165626796D01*
X190844344Y-165626796D02*
X191344344Y-165626796D01*
X190344344Y-165626796D02*
X190544344Y-165626796D01*
X190544344Y-165626796D02*
G75*
G03X190844344Y-165626796I150000J150000D01*
G01*
X191344344Y-165626796D02*
G75*
G03X191644344Y-165626796I150000J150000D01*
G01*
X191644344Y-167226796D02*
G75*
G03X191344344Y-167226796I-150000J-150000D01*
G01*
X190844344Y-167226796D02*
G75*
G03X190544344Y-167226796I-150000J-150000D01*
G01*
X190344344Y-167226796D02*
X190344344Y-165626796D01*
X191844344Y-165626796D02*
X191844344Y-167226796D01*
X195172901Y-164676796D02*
X195372901Y-164676796D01*
X194722901Y-167226796D02*
X194522901Y-167226796D01*
X195522901Y-167226796D02*
X195022901Y-167226796D01*
X196022901Y-167226796D02*
X195822901Y-167226796D01*
X195822901Y-165626796D02*
X196022901Y-165626796D01*
X195022901Y-165626796D02*
X195522901Y-165626796D01*
X194522901Y-165626796D02*
X194722901Y-165626796D01*
X194722901Y-165626796D02*
G75*
G03X195022901Y-165626796I150000J150000D01*
G01*
X195522901Y-165626796D02*
G75*
G03X195822901Y-165626796I150000J150000D01*
G01*
X195822901Y-167226796D02*
G75*
G03X195522901Y-167226796I-150000J-150000D01*
G01*
X195022901Y-167226796D02*
G75*
G03X194722901Y-167226796I-150000J-150000D01*
G01*
X194522901Y-167226796D02*
X194522901Y-165626796D01*
X196022901Y-165626796D02*
X196022901Y-167226796D01*
X199321919Y-164676796D02*
X199521919Y-164676796D01*
X198871919Y-167226796D02*
X198671919Y-167226796D01*
X199671919Y-167226796D02*
X199171919Y-167226796D01*
X200171919Y-167226796D02*
X199971919Y-167226796D01*
X199971919Y-165626796D02*
X200171919Y-165626796D01*
X199171919Y-165626796D02*
X199671919Y-165626796D01*
X198671919Y-165626796D02*
X198871919Y-165626796D01*
X198871919Y-165626796D02*
G75*
G03X199171919Y-165626796I150000J150000D01*
G01*
X199671919Y-165626796D02*
G75*
G03X199971919Y-165626796I150000J150000D01*
G01*
X199971919Y-167226796D02*
G75*
G03X199671919Y-167226796I-150000J-150000D01*
G01*
X199171919Y-167226796D02*
G75*
G03X198871919Y-167226796I-150000J-150000D01*
G01*
X198671919Y-167226796D02*
X198671919Y-165626796D01*
X200171919Y-165626796D02*
X200171919Y-167226796D01*
X203448263Y-164676796D02*
X203648263Y-164676796D01*
X202998263Y-167226796D02*
X202798263Y-167226796D01*
X203798263Y-167226796D02*
X203298263Y-167226796D01*
X204298263Y-167226796D02*
X204098263Y-167226796D01*
X204098263Y-165626796D02*
X204298263Y-165626796D01*
X203298263Y-165626796D02*
X203798263Y-165626796D01*
X202798263Y-165626796D02*
X202998263Y-165626796D01*
X202998263Y-165626796D02*
G75*
G03X203298263Y-165626796I150000J150000D01*
G01*
X203798263Y-165626796D02*
G75*
G03X204098263Y-165626796I150000J150000D01*
G01*
X204098263Y-167226796D02*
G75*
G03X203798263Y-167226796I-150000J-150000D01*
G01*
X203298263Y-167226796D02*
G75*
G03X202998263Y-167226796I-150000J-150000D01*
G01*
X202798263Y-167226796D02*
X202798263Y-165626796D01*
X204298263Y-165626796D02*
X204298263Y-167226796D01*
X207556803Y-164676796D02*
X207756803Y-164676796D01*
X207106803Y-167226796D02*
X206906803Y-167226796D01*
X207906803Y-167226796D02*
X207406803Y-167226796D01*
X208406803Y-167226796D02*
X208206803Y-167226796D01*
X208206803Y-165626796D02*
X208406803Y-165626796D01*
X207406803Y-165626796D02*
X207906803Y-165626796D01*
X206906803Y-165626796D02*
X207106803Y-165626796D01*
X207106803Y-165626796D02*
G75*
G03X207406803Y-165626796I150000J150000D01*
G01*
X207906803Y-165626796D02*
G75*
G03X208206803Y-165626796I150000J150000D01*
G01*
X208206803Y-167226796D02*
G75*
G03X207906803Y-167226796I-150000J-150000D01*
G01*
X207406803Y-167226796D02*
G75*
G03X207106803Y-167226796I-150000J-150000D01*
G01*
X206906803Y-167226796D02*
X206906803Y-165626796D01*
X208406803Y-165626796D02*
X208406803Y-167226796D01*
X211651092Y-164676796D02*
X211851092Y-164676796D01*
X211201092Y-167226796D02*
X211001092Y-167226796D01*
X212001092Y-167226796D02*
X211501092Y-167226796D01*
X212501092Y-167226796D02*
X212301092Y-167226796D01*
X212301092Y-165626796D02*
X212501092Y-165626796D01*
X211501092Y-165626796D02*
X212001092Y-165626796D01*
X211001092Y-165626796D02*
X211201092Y-165626796D01*
X211201092Y-165626796D02*
G75*
G03X211501092Y-165626796I150000J150000D01*
G01*
X212001092Y-165626796D02*
G75*
G03X212301092Y-165626796I150000J150000D01*
G01*
X212301092Y-167226796D02*
G75*
G03X212001092Y-167226796I-150000J-150000D01*
G01*
X211501092Y-167226796D02*
G75*
G03X211201092Y-167226796I-150000J-150000D01*
G01*
X211001092Y-167226796D02*
X211001092Y-165626796D01*
X212501092Y-165626796D02*
X212501092Y-167226796D01*
X215733790Y-164676796D02*
X215933790Y-164676796D01*
X215283790Y-167226796D02*
X215083790Y-167226796D01*
X216083790Y-167226796D02*
X215583790Y-167226796D01*
X216583790Y-167226796D02*
X216383790Y-167226796D01*
X216383790Y-165626796D02*
X216583790Y-165626796D01*
X215583790Y-165626796D02*
X216083790Y-165626796D01*
X215083790Y-165626796D02*
X215283790Y-165626796D01*
X215283790Y-165626796D02*
G75*
G03X215583790Y-165626796I150000J150000D01*
G01*
X216083790Y-165626796D02*
G75*
G03X216383790Y-165626796I150000J150000D01*
G01*
X216383790Y-167226796D02*
G75*
G03X216083790Y-167226796I-150000J-150000D01*
G01*
X215583790Y-167226796D02*
G75*
G03X215283790Y-167226796I-150000J-150000D01*
G01*
X215083790Y-167226796D02*
X215083790Y-165626796D01*
X216583790Y-165626796D02*
X216583790Y-167226796D01*
X219806926Y-164676796D02*
X220006926Y-164676796D01*
X219356926Y-167226796D02*
X219156926Y-167226796D01*
X220156926Y-167226796D02*
X219656926Y-167226796D01*
X220656926Y-167226796D02*
X220456926Y-167226796D01*
X220456926Y-165626796D02*
X220656926Y-165626796D01*
X219656926Y-165626796D02*
X220156926Y-165626796D01*
X219156926Y-165626796D02*
X219356926Y-165626796D01*
X219356926Y-165626796D02*
G75*
G03X219656926Y-165626796I150000J150000D01*
G01*
X220156926Y-165626796D02*
G75*
G03X220456926Y-165626796I150000J150000D01*
G01*
X220456926Y-167226796D02*
G75*
G03X220156926Y-167226796I-150000J-150000D01*
G01*
X219656926Y-167226796D02*
G75*
G03X219356926Y-167226796I-150000J-150000D01*
G01*
X219156926Y-167226796D02*
X219156926Y-165626796D01*
X220656926Y-165626796D02*
X220656926Y-167226796D01*
X164086148Y-171247515D02*
X164286148Y-171247515D01*
X163636148Y-173797515D02*
X163436148Y-173797515D01*
X164436148Y-173797515D02*
X163936148Y-173797515D01*
X164936148Y-173797515D02*
X164736148Y-173797515D01*
X164736148Y-172197515D02*
X164936148Y-172197515D01*
X163936148Y-172197515D02*
X164436148Y-172197515D01*
X163436148Y-172197515D02*
X163636148Y-172197515D01*
X163636148Y-172197515D02*
G75*
G03X163936148Y-172197515I150000J150000D01*
G01*
X164436148Y-172197515D02*
G75*
G03X164736148Y-172197515I150000J150000D01*
G01*
X164736148Y-173797515D02*
G75*
G03X164436148Y-173797515I-150000J-150000D01*
G01*
X163936148Y-173797515D02*
G75*
G03X163636148Y-173797515I-150000J-150000D01*
G01*
X163436148Y-173797515D02*
X163436148Y-172197515D01*
X164936148Y-172197515D02*
X164936148Y-173797515D01*
X169953360Y-171247515D02*
X170153360Y-171247515D01*
X169503360Y-173797515D02*
X169303360Y-173797515D01*
X170303360Y-173797515D02*
X169803360Y-173797515D01*
X170803360Y-173797515D02*
X170603360Y-173797515D01*
X170603360Y-172197515D02*
X170803360Y-172197515D01*
X169803360Y-172197515D02*
X170303360Y-172197515D01*
X169303360Y-172197515D02*
X169503360Y-172197515D01*
X169503360Y-172197515D02*
G75*
G03X169803360Y-172197515I150000J150000D01*
G01*
X170303360Y-172197515D02*
G75*
G03X170603360Y-172197515I150000J150000D01*
G01*
X170603360Y-173797515D02*
G75*
G03X170303360Y-173797515I-150000J-150000D01*
G01*
X169803360Y-173797515D02*
G75*
G03X169503360Y-173797515I-150000J-150000D01*
G01*
X169303360Y-173797515D02*
X169303360Y-172197515D01*
X170803360Y-172197515D02*
X170803360Y-173797515D01*
X175099756Y-171247515D02*
X175299756Y-171247515D01*
X174649756Y-173797515D02*
X174449756Y-173797515D01*
X175449756Y-173797515D02*
X174949756Y-173797515D01*
X175949756Y-173797515D02*
X175749756Y-173797515D01*
X175749756Y-172197515D02*
X175949756Y-172197515D01*
X174949756Y-172197515D02*
X175449756Y-172197515D01*
X174449756Y-172197515D02*
X174649756Y-172197515D01*
X174649756Y-172197515D02*
G75*
G03X174949756Y-172197515I150000J150000D01*
G01*
X175449756Y-172197515D02*
G75*
G03X175749756Y-172197515I150000J150000D01*
G01*
X175749756Y-173797515D02*
G75*
G03X175449756Y-173797515I-150000J-150000D01*
G01*
X174949756Y-173797515D02*
G75*
G03X174649756Y-173797515I-150000J-150000D01*
G01*
X174449756Y-173797515D02*
X174449756Y-172197515D01*
X175949756Y-172197515D02*
X175949756Y-173797515D01*
X179898636Y-171247515D02*
X180098636Y-171247515D01*
X179448636Y-173797515D02*
X179248636Y-173797515D01*
X180248636Y-173797515D02*
X179748636Y-173797515D01*
X180748636Y-173797515D02*
X180548636Y-173797515D01*
X180548636Y-172197515D02*
X180748636Y-172197515D01*
X179748636Y-172197515D02*
X180248636Y-172197515D01*
X179248636Y-172197515D02*
X179448636Y-172197515D01*
X179448636Y-172197515D02*
G75*
G03X179748636Y-172197515I150000J150000D01*
G01*
X180248636Y-172197515D02*
G75*
G03X180548636Y-172197515I150000J150000D01*
G01*
X180548636Y-173797515D02*
G75*
G03X180248636Y-173797515I-150000J-150000D01*
G01*
X179748636Y-173797515D02*
G75*
G03X179448636Y-173797515I-150000J-150000D01*
G01*
X179248636Y-173797515D02*
X179248636Y-172197515D01*
X180748636Y-172197515D02*
X180748636Y-173797515D01*
X184494922Y-171247515D02*
X184694922Y-171247515D01*
X184044922Y-173797515D02*
X183844922Y-173797515D01*
X184844922Y-173797515D02*
X184344922Y-173797515D01*
X185344922Y-173797515D02*
X185144922Y-173797515D01*
X185144922Y-172197515D02*
X185344922Y-172197515D01*
X184344922Y-172197515D02*
X184844922Y-172197515D01*
X183844922Y-172197515D02*
X184044922Y-172197515D01*
X184044922Y-172197515D02*
G75*
G03X184344922Y-172197515I150000J150000D01*
G01*
X184844922Y-172197515D02*
G75*
G03X185144922Y-172197515I150000J150000D01*
G01*
X185144922Y-173797515D02*
G75*
G03X184844922Y-173797515I-150000J-150000D01*
G01*
X184344922Y-173797515D02*
G75*
G03X184044922Y-173797515I-150000J-150000D01*
G01*
X183844922Y-173797515D02*
X183844922Y-172197515D01*
X185344922Y-172197515D02*
X185344922Y-173797515D01*
X188960198Y-171247515D02*
X189160198Y-171247515D01*
X188510198Y-173797515D02*
X188310198Y-173797515D01*
X189310198Y-173797515D02*
X188810198Y-173797515D01*
X189810198Y-173797515D02*
X189610198Y-173797515D01*
X189610198Y-172197515D02*
X189810198Y-172197515D01*
X188810198Y-172197515D02*
X189310198Y-172197515D01*
X188310198Y-172197515D02*
X188510198Y-172197515D01*
X188510198Y-172197515D02*
G75*
G03X188810198Y-172197515I150000J150000D01*
G01*
X189310198Y-172197515D02*
G75*
G03X189610198Y-172197515I150000J150000D01*
G01*
X189610198Y-173797515D02*
G75*
G03X189310198Y-173797515I-150000J-150000D01*
G01*
X188810198Y-173797515D02*
G75*
G03X188510198Y-173797515I-150000J-150000D01*
G01*
X188310198Y-173797515D02*
X188310198Y-172197515D01*
X189810198Y-172197515D02*
X189810198Y-173797515D01*
X193334888Y-171247515D02*
X193534888Y-171247515D01*
X192884888Y-173797515D02*
X192684888Y-173797515D01*
X193684888Y-173797515D02*
X193184888Y-173797515D01*
X194184888Y-173797515D02*
X193984888Y-173797515D01*
X193984888Y-172197515D02*
X194184888Y-172197515D01*
X193184888Y-172197515D02*
X193684888Y-172197515D01*
X192684888Y-172197515D02*
X192884888Y-172197515D01*
X192884888Y-172197515D02*
G75*
G03X193184888Y-172197515I150000J150000D01*
G01*
X193684888Y-172197515D02*
G75*
G03X193984888Y-172197515I150000J150000D01*
G01*
X193984888Y-173797515D02*
G75*
G03X193684888Y-173797515I-150000J-150000D01*
G01*
X193184888Y-173797515D02*
G75*
G03X192884888Y-173797515I-150000J-150000D01*
G01*
X192684888Y-173797515D02*
X192684888Y-172197515D01*
X194184888Y-172197515D02*
X194184888Y-173797515D01*
X197643900Y-171247515D02*
X197843900Y-171247515D01*
X197193900Y-173797515D02*
X196993900Y-173797515D01*
X197993900Y-173797515D02*
X197493900Y-173797515D01*
X198493900Y-173797515D02*
X198293900Y-173797515D01*
X198293900Y-172197515D02*
X198493900Y-172197515D01*
X197493900Y-172197515D02*
X197993900Y-172197515D01*
X196993900Y-172197515D02*
X197193900Y-172197515D01*
X197193900Y-172197515D02*
G75*
G03X197493900Y-172197515I150000J150000D01*
G01*
X197993900Y-172197515D02*
G75*
G03X198293900Y-172197515I150000J150000D01*
G01*
X198293900Y-173797515D02*
G75*
G03X197993900Y-173797515I-150000J-150000D01*
G01*
X197493900Y-173797515D02*
G75*
G03X197193900Y-173797515I-150000J-150000D01*
G01*
X196993900Y-173797515D02*
X196993900Y-172197515D01*
X198493900Y-172197515D02*
X198493900Y-173797515D01*
X201903562Y-171247515D02*
X202103562Y-171247515D01*
X201453562Y-173797515D02*
X201253562Y-173797515D01*
X202253562Y-173797515D02*
X201753562Y-173797515D01*
X202753562Y-173797515D02*
X202553562Y-173797515D01*
X202553562Y-172197515D02*
X202753562Y-172197515D01*
X201753562Y-172197515D02*
X202253562Y-172197515D01*
X201253562Y-172197515D02*
X201453562Y-172197515D01*
X201453562Y-172197515D02*
G75*
G03X201753562Y-172197515I150000J150000D01*
G01*
X202253562Y-172197515D02*
G75*
G03X202553562Y-172197515I150000J150000D01*
G01*
X202553562Y-173797515D02*
G75*
G03X202253562Y-173797515I-150000J-150000D01*
G01*
X201753562Y-173797515D02*
G75*
G03X201453562Y-173797515I-150000J-150000D01*
G01*
X201253562Y-173797515D02*
X201253562Y-172197515D01*
X202753562Y-172197515D02*
X202753562Y-173797515D01*
X206125091Y-171247515D02*
X206325091Y-171247515D01*
X205675091Y-173797515D02*
X205475091Y-173797515D01*
X206475091Y-173797515D02*
X205975091Y-173797515D01*
X206975091Y-173797515D02*
X206775091Y-173797515D01*
X206775091Y-172197515D02*
X206975091Y-172197515D01*
X205975091Y-172197515D02*
X206475091Y-172197515D01*
X205475091Y-172197515D02*
X205675091Y-172197515D01*
X205675091Y-172197515D02*
G75*
G03X205975091Y-172197515I150000J150000D01*
G01*
X206475091Y-172197515D02*
G75*
G03X206775091Y-172197515I150000J150000D01*
G01*
X206775091Y-173797515D02*
G75*
G03X206475091Y-173797515I-150000J-150000D01*
G01*
X205975091Y-173797515D02*
G75*
G03X205675091Y-173797515I-150000J-150000D01*
G01*
X205475091Y-173797515D02*
X205475091Y-172197515D01*
X206975091Y-172197515D02*
X206975091Y-173797515D01*
X210316482Y-171247515D02*
X210516482Y-171247515D01*
X209866482Y-173797515D02*
X209666482Y-173797515D01*
X210666482Y-173797515D02*
X210166482Y-173797515D01*
X211166482Y-173797515D02*
X210966482Y-173797515D01*
X210966482Y-172197515D02*
X211166482Y-172197515D01*
X210166482Y-172197515D02*
X210666482Y-172197515D01*
X209666482Y-172197515D02*
X209866482Y-172197515D01*
X209866482Y-172197515D02*
G75*
G03X210166482Y-172197515I150000J150000D01*
G01*
X210666482Y-172197515D02*
G75*
G03X210966482Y-172197515I150000J150000D01*
G01*
X210966482Y-173797515D02*
G75*
G03X210666482Y-173797515I-150000J-150000D01*
G01*
X210166482Y-173797515D02*
G75*
G03X209866482Y-173797515I-150000J-150000D01*
G01*
X209666482Y-173797515D02*
X209666482Y-172197515D01*
X211166482Y-172197515D02*
X211166482Y-173797515D01*
X214483603Y-171247515D02*
X214683603Y-171247515D01*
X214033603Y-173797515D02*
X213833603Y-173797515D01*
X214833603Y-173797515D02*
X214333603Y-173797515D01*
X215333603Y-173797515D02*
X215133603Y-173797515D01*
X215133603Y-172197515D02*
X215333603Y-172197515D01*
X214333603Y-172197515D02*
X214833603Y-172197515D01*
X213833603Y-172197515D02*
X214033603Y-172197515D01*
X214033603Y-172197515D02*
G75*
G03X214333603Y-172197515I150000J150000D01*
G01*
X214833603Y-172197515D02*
G75*
G03X215133603Y-172197515I150000J150000D01*
G01*
X215133603Y-173797515D02*
G75*
G03X214833603Y-173797515I-150000J-150000D01*
G01*
X214333603Y-173797515D02*
G75*
G03X214033603Y-173797515I-150000J-150000D01*
G01*
X213833603Y-173797515D02*
X213833603Y-172197515D01*
X215333603Y-172197515D02*
X215333603Y-173797515D01*
X218630868Y-171247515D02*
X218830868Y-171247515D01*
X218180868Y-173797515D02*
X217980868Y-173797515D01*
X218980868Y-173797515D02*
X218480868Y-173797515D01*
X219480868Y-173797515D02*
X219280868Y-173797515D01*
X219280868Y-172197515D02*
X219480868Y-172197515D01*
X218480868Y-172197515D02*
X218980868Y-172197515D01*
X217980868Y-172197515D02*
X218180868Y-172197515D01*
X218180868Y-172197515D02*
G75*
G03X218480868Y-172197515I150000J150000D01*
G01*
X218980868Y-172197515D02*
G75*
G03X219280868Y-172197515I150000J150000D01*
G01*
X219280868Y-173797515D02*
G75*
G03X218980868Y-173797515I-150000J-150000D01*
G01*
X218480868Y-173797515D02*
G75*
G03X218180868Y-173797515I-150000J-150000D01*
G01*
X217980868Y-173797515D02*
X217980868Y-172197515D01*
X219480868Y-172197515D02*
X219480868Y-173797515D01*
X163492002Y-177818233D02*
X163692002Y-177818233D01*
X163042002Y-180368233D02*
X162842002Y-180368233D01*
X163842002Y-180368233D02*
X163342002Y-180368233D01*
X164342002Y-180368233D02*
X164142002Y-180368233D01*
X164142002Y-178768233D02*
X164342002Y-178768233D01*
X163342002Y-178768233D02*
X163842002Y-178768233D01*
X162842002Y-178768233D02*
X163042002Y-178768233D01*
X163042002Y-178768233D02*
G75*
G03X163342002Y-178768233I150000J150000D01*
G01*
X163842002Y-178768233D02*
G75*
G03X164142002Y-178768233I150000J150000D01*
G01*
X164142002Y-180368233D02*
G75*
G03X163842002Y-180368233I-150000J-150000D01*
G01*
X163342002Y-180368233D02*
G75*
G03X163042002Y-180368233I-150000J-150000D01*
G01*
X162842002Y-180368233D02*
X162842002Y-178768233D01*
X164342002Y-178768233D02*
X164342002Y-180368233D01*
X170336070Y-177818233D02*
X170536070Y-177818233D01*
X169886070Y-180368233D02*
X169686070Y-180368233D01*
X170686070Y-180368233D02*
X170186070Y-180368233D01*
X171186070Y-180368233D02*
X170986070Y-180368233D01*
X170986070Y-178768233D02*
X171186070Y-178768233D01*
X170186070Y-178768233D02*
X170686070Y-178768233D01*
X169686070Y-178768233D02*
X169886070Y-178768233D01*
X169886070Y-178768233D02*
G75*
G03X170186070Y-178768233I150000J150000D01*
G01*
X170686070Y-178768233D02*
G75*
G03X170986070Y-178768233I150000J150000D01*
G01*
X170986070Y-180368233D02*
G75*
G03X170686070Y-180368233I-150000J-150000D01*
G01*
X170186070Y-180368233D02*
G75*
G03X169886070Y-180368233I-150000J-150000D01*
G01*
X169686070Y-180368233D02*
X169686070Y-178768233D01*
X171186070Y-178768233D02*
X171186070Y-180368233D01*
X176025149Y-177818233D02*
X176225149Y-177818233D01*
X175575149Y-180368233D02*
X175375149Y-180368233D01*
X176375149Y-180368233D02*
X175875149Y-180368233D01*
X176875149Y-180368233D02*
X176675149Y-180368233D01*
X176675149Y-178768233D02*
X176875149Y-178768233D01*
X175875149Y-178768233D02*
X176375149Y-178768233D01*
X175375149Y-178768233D02*
X175575149Y-178768233D01*
X175575149Y-178768233D02*
G75*
G03X175875149Y-178768233I150000J150000D01*
G01*
X176375149Y-178768233D02*
G75*
G03X176675149Y-178768233I150000J150000D01*
G01*
X176675149Y-180368233D02*
G75*
G03X176375149Y-180368233I-150000J-150000D01*
G01*
X175875149Y-180368233D02*
G75*
G03X175575149Y-180368233I-150000J-150000D01*
G01*
X175375149Y-180368233D02*
X175375149Y-178768233D01*
X176875149Y-178768233D02*
X176875149Y-180368233D01*
X181195589Y-177818233D02*
X181395589Y-177818233D01*
X180745589Y-180368233D02*
X180545589Y-180368233D01*
X181545589Y-180368233D02*
X181045589Y-180368233D01*
X182045589Y-180368233D02*
X181845589Y-180368233D01*
X181845589Y-178768233D02*
X182045589Y-178768233D01*
X181045589Y-178768233D02*
X181545589Y-178768233D01*
X180545589Y-178768233D02*
X180745589Y-178768233D01*
X180745589Y-178768233D02*
G75*
G03X181045589Y-178768233I150000J150000D01*
G01*
X181545589Y-178768233D02*
G75*
G03X181845589Y-178768233I150000J150000D01*
G01*
X181845589Y-180368233D02*
G75*
G03X181545589Y-180368233I-150000J-150000D01*
G01*
X181045589Y-180368233D02*
G75*
G03X180745589Y-180368233I-150000J-150000D01*
G01*
X180545589Y-180368233D02*
X180545589Y-178768233D01*
X182045589Y-178768233D02*
X182045589Y-180368233D01*
X186070490Y-177818233D02*
X186270490Y-177818233D01*
X185620490Y-180368233D02*
X185420490Y-180368233D01*
X186420490Y-180368233D02*
X185920490Y-180368233D01*
X186920490Y-180368233D02*
X186720490Y-180368233D01*
X186720490Y-178768233D02*
X186920490Y-178768233D01*
X185920490Y-178768233D02*
X186420490Y-178768233D01*
X185420490Y-178768233D02*
X185620490Y-178768233D01*
X185620490Y-178768233D02*
G75*
G03X185920490Y-178768233I150000J150000D01*
G01*
X186420490Y-178768233D02*
G75*
G03X186720490Y-178768233I150000J150000D01*
G01*
X186720490Y-180368233D02*
G75*
G03X186420490Y-180368233I-150000J-150000D01*
G01*
X185920490Y-180368233D02*
G75*
G03X185620490Y-180368233I-150000J-150000D01*
G01*
X185420490Y-180368233D02*
X185420490Y-178768233D01*
X186920490Y-178768233D02*
X186920490Y-180368233D01*
X190755780Y-177818233D02*
X190955780Y-177818233D01*
X190305780Y-180368233D02*
X190105780Y-180368233D01*
X191105780Y-180368233D02*
X190605780Y-180368233D01*
X191605780Y-180368233D02*
X191405780Y-180368233D01*
X191405780Y-178768233D02*
X191605780Y-178768233D01*
X190605780Y-178768233D02*
X191105780Y-178768233D01*
X190105780Y-178768233D02*
X190305780Y-178768233D01*
X190305780Y-178768233D02*
G75*
G03X190605780Y-178768233I150000J150000D01*
G01*
X191105780Y-178768233D02*
G75*
G03X191405780Y-178768233I150000J150000D01*
G01*
X191405780Y-180368233D02*
G75*
G03X191105780Y-180368233I-150000J-150000D01*
G01*
X190605780Y-180368233D02*
G75*
G03X190305780Y-180368233I-150000J-150000D01*
G01*
X190105780Y-180368233D02*
X190105780Y-178768233D01*
X191605780Y-178768233D02*
X191605780Y-180368233D01*
X195310189Y-177818233D02*
X195510189Y-177818233D01*
X194860189Y-180368233D02*
X194660189Y-180368233D01*
X195660189Y-180368233D02*
X195160189Y-180368233D01*
X196160189Y-180368233D02*
X195960189Y-180368233D01*
X195960189Y-178768233D02*
X196160189Y-178768233D01*
X195160189Y-178768233D02*
X195660189Y-178768233D01*
X194660189Y-178768233D02*
X194860189Y-178768233D01*
X194860189Y-178768233D02*
G75*
G03X195160189Y-178768233I150000J150000D01*
G01*
X195660189Y-178768233D02*
G75*
G03X195960189Y-178768233I150000J150000D01*
G01*
X195960189Y-180368233D02*
G75*
G03X195660189Y-180368233I-150000J-150000D01*
G01*
X195160189Y-180368233D02*
G75*
G03X194860189Y-180368233I-150000J-150000D01*
G01*
X194660189Y-180368233D02*
X194660189Y-178768233D01*
X196160189Y-178768233D02*
X196160189Y-180368233D01*
X199769587Y-177818233D02*
X199969587Y-177818233D01*
X199319587Y-180368233D02*
X199119587Y-180368233D01*
X200119587Y-180368233D02*
X199619587Y-180368233D01*
X200619587Y-180368233D02*
X200419587Y-180368233D01*
X200419587Y-178768233D02*
X200619587Y-178768233D01*
X199619587Y-178768233D02*
X200119587Y-178768233D01*
X199119587Y-178768233D02*
X199319587Y-178768233D01*
X199319587Y-178768233D02*
G75*
G03X199619587Y-178768233I150000J150000D01*
G01*
X200119587Y-178768233D02*
G75*
G03X200419587Y-178768233I150000J150000D01*
G01*
X200419587Y-180368233D02*
G75*
G03X200119587Y-180368233I-150000J-150000D01*
G01*
X199619587Y-180368233D02*
G75*
G03X199319587Y-180368233I-150000J-150000D01*
G01*
X199119587Y-180368233D02*
X199119587Y-178768233D01*
X200619587Y-178768233D02*
X200619587Y-180368233D01*
X204157406Y-177818233D02*
X204357406Y-177818233D01*
X203707406Y-180368233D02*
X203507406Y-180368233D01*
X204507406Y-180368233D02*
X204007406Y-180368233D01*
X205007406Y-180368233D02*
X204807406Y-180368233D01*
X204807406Y-178768233D02*
X205007406Y-178768233D01*
X204007406Y-178768233D02*
X204507406Y-178768233D01*
X203507406Y-178768233D02*
X203707406Y-178768233D01*
X203707406Y-178768233D02*
G75*
G03X204007406Y-178768233I150000J150000D01*
G01*
X204507406Y-178768233D02*
G75*
G03X204807406Y-178768233I150000J150000D01*
G01*
X204807406Y-180368233D02*
G75*
G03X204507406Y-180368233I-150000J-150000D01*
G01*
X204007406Y-180368233D02*
G75*
G03X203707406Y-180368233I-150000J-150000D01*
G01*
X203507406Y-180368233D02*
X203507406Y-178768233D01*
X205007406Y-178768233D02*
X205007406Y-180368233D01*
X208489731Y-177818233D02*
X208689731Y-177818233D01*
X208039731Y-180368233D02*
X207839731Y-180368233D01*
X208839731Y-180368233D02*
X208339731Y-180368233D01*
X209339731Y-180368233D02*
X209139731Y-180368233D01*
X209139731Y-178768233D02*
X209339731Y-178768233D01*
X208339731Y-178768233D02*
X208839731Y-178768233D01*
X207839731Y-178768233D02*
X208039731Y-178768233D01*
X208039731Y-178768233D02*
G75*
G03X208339731Y-178768233I150000J150000D01*
G01*
X208839731Y-178768233D02*
G75*
G03X209139731Y-178768233I150000J150000D01*
G01*
X209139731Y-180368233D02*
G75*
G03X208839731Y-180368233I-150000J-150000D01*
G01*
X208339731Y-180368233D02*
G75*
G03X208039731Y-180368233I-150000J-150000D01*
G01*
X207839731Y-180368233D02*
X207839731Y-178768233D01*
X209339731Y-178768233D02*
X209339731Y-180368233D01*
X212778033Y-177818233D02*
X212978033Y-177818233D01*
X212328033Y-180368233D02*
X212128033Y-180368233D01*
X213128033Y-180368233D02*
X212628033Y-180368233D01*
X213628033Y-180368233D02*
X213428033Y-180368233D01*
X213428033Y-178768233D02*
X213628033Y-178768233D01*
X212628033Y-178768233D02*
X213128033Y-178768233D01*
X212128033Y-178768233D02*
X212328033Y-178768233D01*
X212328033Y-178768233D02*
G75*
G03X212628033Y-178768233I150000J150000D01*
G01*
X213128033Y-178768233D02*
G75*
G03X213428033Y-178768233I150000J150000D01*
G01*
X213428033Y-180368233D02*
G75*
G03X213128033Y-180368233I-150000J-150000D01*
G01*
X212628033Y-180368233D02*
G75*
G03X212328033Y-180368233I-150000J-150000D01*
G01*
X212128033Y-180368233D02*
X212128033Y-178768233D01*
X213628033Y-178768233D02*
X213628033Y-180368233D01*
X217030749Y-177818233D02*
X217230749Y-177818233D01*
X216580749Y-180368233D02*
X216380749Y-180368233D01*
X217380749Y-180368233D02*
X216880749Y-180368233D01*
X217880749Y-180368233D02*
X217680749Y-180368233D01*
X217680749Y-178768233D02*
X217880749Y-178768233D01*
X216880749Y-178768233D02*
X217380749Y-178768233D01*
X216380749Y-178768233D02*
X216580749Y-178768233D01*
X216580749Y-178768233D02*
G75*
G03X216880749Y-178768233I150000J150000D01*
G01*
X217380749Y-178768233D02*
G75*
G03X217680749Y-178768233I150000J150000D01*
G01*
X217680749Y-180368233D02*
G75*
G03X217380749Y-180368233I-150000J-150000D01*
G01*
X216880749Y-180368233D02*
G75*
G03X216580749Y-180368233I-150000J-150000D01*
G01*
X216380749Y-180368233D02*
X216380749Y-178768233D01*
X217880749Y-178768233D02*
X217880749Y-180368233D01*
X161978475Y-184388952D02*
X162178475Y-184388952D01*
X161528475Y-186938952D02*
X161328475Y-186938952D01*
X162328475Y-186938952D02*
X161828475Y-186938952D01*
X162828475Y-186938952D02*
X162628475Y-186938952D01*
X162628475Y-185338952D02*
X162828475Y-185338952D01*
X161828475Y-185338952D02*
X162328475Y-185338952D01*
X161328475Y-185338952D02*
X161528475Y-185338952D01*
X161528475Y-185338952D02*
G75*
G03X161828475Y-185338952I150000J150000D01*
G01*
X162328475Y-185338952D02*
G75*
G03X162628475Y-185338952I150000J150000D01*
G01*
X162628475Y-186938952D02*
G75*
G03X162328475Y-186938952I-150000J-150000D01*
G01*
X161828475Y-186938952D02*
G75*
G03X161528475Y-186938952I-150000J-150000D01*
G01*
X161328475Y-186938952D02*
X161328475Y-185338952D01*
X162828475Y-185338952D02*
X162828475Y-186938952D01*
X170167709Y-184388952D02*
X170367709Y-184388952D01*
X169717709Y-186938952D02*
X169517709Y-186938952D01*
X170517709Y-186938952D02*
X170017709Y-186938952D01*
X171017709Y-186938952D02*
X170817709Y-186938952D01*
X170817709Y-185338952D02*
X171017709Y-185338952D01*
X170017709Y-185338952D02*
X170517709Y-185338952D01*
X169517709Y-185338952D02*
X169717709Y-185338952D01*
X169717709Y-185338952D02*
G75*
G03X170017709Y-185338952I150000J150000D01*
G01*
X170517709Y-185338952D02*
G75*
G03X170817709Y-185338952I150000J150000D01*
G01*
X170817709Y-186938952D02*
G75*
G03X170517709Y-186938952I-150000J-150000D01*
G01*
X170017709Y-186938952D02*
G75*
G03X169717709Y-186938952I-150000J-150000D01*
G01*
X169517709Y-186938952D02*
X169517709Y-185338952D01*
X171017709Y-185338952D02*
X171017709Y-186938952D01*
X176502076Y-184388952D02*
X176702076Y-184388952D01*
X176052076Y-186938952D02*
X175852076Y-186938952D01*
X176852076Y-186938952D02*
X176352076Y-186938952D01*
X177352076Y-186938952D02*
X177152076Y-186938952D01*
X177152076Y-185338952D02*
X177352076Y-185338952D01*
X176352076Y-185338952D02*
X176852076Y-185338952D01*
X175852076Y-185338952D02*
X176052076Y-185338952D01*
X176052076Y-185338952D02*
G75*
G03X176352076Y-185338952I150000J150000D01*
G01*
X176852076Y-185338952D02*
G75*
G03X177152076Y-185338952I150000J150000D01*
G01*
X177152076Y-186938952D02*
G75*
G03X176852076Y-186938952I-150000J-150000D01*
G01*
X176352076Y-186938952D02*
G75*
G03X176052076Y-186938952I-150000J-150000D01*
G01*
X175852076Y-186938952D02*
X175852076Y-185338952D01*
X177352076Y-185338952D02*
X177352076Y-186938952D01*
X182095666Y-184388952D02*
X182295666Y-184388952D01*
X181645666Y-186938952D02*
X181445666Y-186938952D01*
X182445666Y-186938952D02*
X181945666Y-186938952D01*
X182945666Y-186938952D02*
X182745666Y-186938952D01*
X182745666Y-185338952D02*
X182945666Y-185338952D01*
X181945666Y-185338952D02*
X182445666Y-185338952D01*
X181445666Y-185338952D02*
X181645666Y-185338952D01*
X181645666Y-185338952D02*
G75*
G03X181945666Y-185338952I150000J150000D01*
G01*
X182445666Y-185338952D02*
G75*
G03X182745666Y-185338952I150000J150000D01*
G01*
X182745666Y-186938952D02*
G75*
G03X182445666Y-186938952I-150000J-150000D01*
G01*
X181945666Y-186938952D02*
G75*
G03X181645666Y-186938952I-150000J-150000D01*
G01*
X181445666Y-186938952D02*
X181445666Y-185338952D01*
X182945666Y-185338952D02*
X182945666Y-186938952D01*
X187282501Y-184388952D02*
X187482501Y-184388952D01*
X186832501Y-186938952D02*
X186632501Y-186938952D01*
X187632501Y-186938952D02*
X187132501Y-186938952D01*
X188132501Y-186938952D02*
X187932501Y-186938952D01*
X187932501Y-185338952D02*
X188132501Y-185338952D01*
X187132501Y-185338952D02*
X187632501Y-185338952D01*
X186632501Y-185338952D02*
X186832501Y-185338952D01*
X186832501Y-185338952D02*
G75*
G03X187132501Y-185338952I150000J150000D01*
G01*
X187632501Y-185338952D02*
G75*
G03X187932501Y-185338952I150000J150000D01*
G01*
X187932501Y-186938952D02*
G75*
G03X187632501Y-186938952I-150000J-150000D01*
G01*
X187132501Y-186938952D02*
G75*
G03X186832501Y-186938952I-150000J-150000D01*
G01*
X186632501Y-186938952D02*
X186632501Y-185338952D01*
X188132501Y-185338952D02*
X188132501Y-186938952D01*
X192212431Y-184388952D02*
X192412431Y-184388952D01*
X191762431Y-186938952D02*
X191562431Y-186938952D01*
X192562431Y-186938952D02*
X192062431Y-186938952D01*
X193062431Y-186938952D02*
X192862431Y-186938952D01*
X192862431Y-185338952D02*
X193062431Y-185338952D01*
X192062431Y-185338952D02*
X192562431Y-185338952D01*
X191562431Y-185338952D02*
X191762431Y-185338952D01*
X191762431Y-185338952D02*
G75*
G03X192062431Y-185338952I150000J150000D01*
G01*
X192562431Y-185338952D02*
G75*
G03X192862431Y-185338952I150000J150000D01*
G01*
X192862431Y-186938952D02*
G75*
G03X192562431Y-186938952I-150000J-150000D01*
G01*
X192062431Y-186938952D02*
G75*
G03X191762431Y-186938952I-150000J-150000D01*
G01*
X191562431Y-186938952D02*
X191562431Y-185338952D01*
X193062431Y-185338952D02*
X193062431Y-186938952D01*
X196966254Y-184388952D02*
X197166254Y-184388952D01*
X196516254Y-186938952D02*
X196316254Y-186938952D01*
X197316254Y-186938952D02*
X196816254Y-186938952D01*
X197816254Y-186938952D02*
X197616254Y-186938952D01*
X197616254Y-185338952D02*
X197816254Y-185338952D01*
X196816254Y-185338952D02*
X197316254Y-185338952D01*
X196316254Y-185338952D02*
X196516254Y-185338952D01*
X196516254Y-185338952D02*
G75*
G03X196816254Y-185338952I150000J150000D01*
G01*
X197316254Y-185338952D02*
G75*
G03X197616254Y-185338952I150000J150000D01*
G01*
X197616254Y-186938952D02*
G75*
G03X197316254Y-186938952I-150000J-150000D01*
G01*
X196816254Y-186938952D02*
G75*
G03X196516254Y-186938952I-150000J-150000D01*
G01*
X196316254Y-186938952D02*
X196316254Y-185338952D01*
X197816254Y-185338952D02*
X197816254Y-186938952D01*
X201592579Y-184388952D02*
X201792579Y-184388952D01*
X201142579Y-186938952D02*
X200942579Y-186938952D01*
X201942579Y-186938952D02*
X201442579Y-186938952D01*
X202442579Y-186938952D02*
X202242579Y-186938952D01*
X202242579Y-185338952D02*
X202442579Y-185338952D01*
X201442579Y-185338952D02*
X201942579Y-185338952D01*
X200942579Y-185338952D02*
X201142579Y-185338952D01*
X201142579Y-185338952D02*
G75*
G03X201442579Y-185338952I150000J150000D01*
G01*
X201942579Y-185338952D02*
G75*
G03X202242579Y-185338952I150000J150000D01*
G01*
X202242579Y-186938952D02*
G75*
G03X201942579Y-186938952I-150000J-150000D01*
G01*
X201442579Y-186938952D02*
G75*
G03X201142579Y-186938952I-150000J-150000D01*
G01*
X200942579Y-186938952D02*
X200942579Y-185338952D01*
X202442579Y-185338952D02*
X202442579Y-186938952D01*
X206122888Y-184388952D02*
X206322888Y-184388952D01*
X205672888Y-186938952D02*
X205472888Y-186938952D01*
X206472888Y-186938952D02*
X205972888Y-186938952D01*
X206972888Y-186938952D02*
X206772888Y-186938952D01*
X206772888Y-185338952D02*
X206972888Y-185338952D01*
X205972888Y-185338952D02*
X206472888Y-185338952D01*
X205472888Y-185338952D02*
X205672888Y-185338952D01*
X205672888Y-185338952D02*
G75*
G03X205972888Y-185338952I150000J150000D01*
G01*
X206472888Y-185338952D02*
G75*
G03X206772888Y-185338952I150000J150000D01*
G01*
X206772888Y-186938952D02*
G75*
G03X206472888Y-186938952I-150000J-150000D01*
G01*
X205972888Y-186938952D02*
G75*
G03X205672888Y-186938952I-150000J-150000D01*
G01*
X205472888Y-186938952D02*
X205472888Y-185338952D01*
X206972888Y-185338952D02*
X206972888Y-186938952D01*
X210578692Y-184388952D02*
X210778692Y-184388952D01*
X210128692Y-186938952D02*
X209928692Y-186938952D01*
X210928692Y-186938952D02*
X210428692Y-186938952D01*
X211428692Y-186938952D02*
X211228692Y-186938952D01*
X211228692Y-185338952D02*
X211428692Y-185338952D01*
X210428692Y-185338952D02*
X210928692Y-185338952D01*
X209928692Y-185338952D02*
X210128692Y-185338952D01*
X210128692Y-185338952D02*
G75*
G03X210428692Y-185338952I150000J150000D01*
G01*
X210928692Y-185338952D02*
G75*
G03X211228692Y-185338952I150000J150000D01*
G01*
X211228692Y-186938952D02*
G75*
G03X210928692Y-186938952I-150000J-150000D01*
G01*
X210428692Y-186938952D02*
G75*
G03X210128692Y-186938952I-150000J-150000D01*
G01*
X209928692Y-186938952D02*
X209928692Y-185338952D01*
X211428692Y-185338952D02*
X211428692Y-186938952D01*
X214975296Y-184388952D02*
X215175296Y-184388952D01*
X214525296Y-186938952D02*
X214325296Y-186938952D01*
X215325296Y-186938952D02*
X214825296Y-186938952D01*
X215825296Y-186938952D02*
X215625296Y-186938952D01*
X215625296Y-185338952D02*
X215825296Y-185338952D01*
X214825296Y-185338952D02*
X215325296Y-185338952D01*
X214325296Y-185338952D02*
X214525296Y-185338952D01*
X214525296Y-185338952D02*
G75*
G03X214825296Y-185338952I150000J150000D01*
G01*
X215325296Y-185338952D02*
G75*
G03X215625296Y-185338952I150000J150000D01*
G01*
X215625296Y-186938952D02*
G75*
G03X215325296Y-186938952I-150000J-150000D01*
G01*
X214825296Y-186938952D02*
G75*
G03X214525296Y-186938952I-150000J-150000D01*
G01*
X214325296Y-186938952D02*
X214325296Y-185338952D01*
X215825296Y-185338952D02*
X215825296Y-186938952D01*
X159102603Y-190959670D02*
X159302603Y-190959670D01*
X158652603Y-193509670D02*
X158452603Y-193509670D01*
X159452603Y-193509670D02*
X158952603Y-193509670D01*
X159952603Y-193509670D02*
X159752603Y-193509670D01*
X159752603Y-191909670D02*
X159952603Y-191909670D01*
X158952603Y-191909670D02*
X159452603Y-191909670D01*
X158452603Y-191909670D02*
X158652603Y-191909670D01*
X158652603Y-191909670D02*
G75*
G03X158952603Y-191909670I150000J150000D01*
G01*
X159452603Y-191909670D02*
G75*
G03X159752603Y-191909670I150000J150000D01*
G01*
X159752603Y-193509670D02*
G75*
G03X159452603Y-193509670I-150000J-150000D01*
G01*
X158952603Y-193509670D02*
G75*
G03X158652603Y-193509670I-150000J-150000D01*
G01*
X158452603Y-193509670D02*
X158452603Y-191909670D01*
X159952603Y-191909670D02*
X159952603Y-193509670D01*
X169434031Y-190959670D02*
X169634031Y-190959670D01*
X168984031Y-193509670D02*
X168784031Y-193509670D01*
X169784031Y-193509670D02*
X169284031Y-193509670D01*
X170284031Y-193509670D02*
X170084031Y-193509670D01*
X170084031Y-191909670D02*
X170284031Y-191909670D01*
X169284031Y-191909670D02*
X169784031Y-191909670D01*
X168784031Y-191909670D02*
X168984031Y-191909670D01*
X168984031Y-191909670D02*
G75*
G03X169284031Y-191909670I150000J150000D01*
G01*
X169784031Y-191909670D02*
G75*
G03X170084031Y-191909670I150000J150000D01*
G01*
X170084031Y-193509670D02*
G75*
G03X169784031Y-193509670I-150000J-150000D01*
G01*
X169284031Y-193509670D02*
G75*
G03X168984031Y-193509670I-150000J-150000D01*
G01*
X168784031Y-193509670D02*
X168784031Y-191909670D01*
X170284031Y-191909670D02*
X170284031Y-193509670D01*
X176554621Y-190959670D02*
X176754621Y-190959670D01*
X176104621Y-193509670D02*
X175904621Y-193509670D01*
X176904621Y-193509670D02*
X176404621Y-193509670D01*
X177404621Y-193509670D02*
X177204621Y-193509670D01*
X177204621Y-191909670D02*
X177404621Y-191909670D01*
X176404621Y-191909670D02*
X176904621Y-191909670D01*
X175904621Y-191909670D02*
X176104621Y-191909670D01*
X176104621Y-191909670D02*
G75*
G03X176404621Y-191909670I150000J150000D01*
G01*
X176904621Y-191909670D02*
G75*
G03X177204621Y-191909670I150000J150000D01*
G01*
X177204621Y-193509670D02*
G75*
G03X176904621Y-193509670I-150000J-150000D01*
G01*
X176404621Y-193509670D02*
G75*
G03X176104621Y-193509670I-150000J-150000D01*
G01*
X175904621Y-193509670D02*
X175904621Y-191909670D01*
X177404621Y-191909670D02*
X177404621Y-193509670D01*
X182631625Y-190959670D02*
X182831625Y-190959670D01*
X182181625Y-193509670D02*
X181981625Y-193509670D01*
X182981625Y-193509670D02*
X182481625Y-193509670D01*
X183481625Y-193509670D02*
X183281625Y-193509670D01*
X183281625Y-191909670D02*
X183481625Y-191909670D01*
X182481625Y-191909670D02*
X182981625Y-191909670D01*
X181981625Y-191909670D02*
X182181625Y-191909670D01*
X182181625Y-191909670D02*
G75*
G03X182481625Y-191909670I150000J150000D01*
G01*
X182981625Y-191909670D02*
G75*
G03X183281625Y-191909670I150000J150000D01*
G01*
X183281625Y-193509670D02*
G75*
G03X182981625Y-193509670I-150000J-150000D01*
G01*
X182481625Y-193509670D02*
G75*
G03X182181625Y-193509670I-150000J-150000D01*
G01*
X181981625Y-193509670D02*
X181981625Y-191909670D01*
X183481625Y-191909670D02*
X183481625Y-193509670D01*
X188165516Y-190959670D02*
X188365516Y-190959670D01*
X187715516Y-193509670D02*
X187515516Y-193509670D01*
X188515516Y-193509670D02*
X188015516Y-193509670D01*
X189015516Y-193509670D02*
X188815516Y-193509670D01*
X188815516Y-191909670D02*
X189015516Y-191909670D01*
X188015516Y-191909670D02*
X188515516Y-191909670D01*
X187515516Y-191909670D02*
X187715516Y-191909670D01*
X187715516Y-191909670D02*
G75*
G03X188015516Y-191909670I150000J150000D01*
G01*
X188515516Y-191909670D02*
G75*
G03X188815516Y-191909670I150000J150000D01*
G01*
X188815516Y-193509670D02*
G75*
G03X188515516Y-193509670I-150000J-150000D01*
G01*
X188015516Y-193509670D02*
G75*
G03X187715516Y-193509670I-150000J-150000D01*
G01*
X187515516Y-193509670D02*
X187515516Y-191909670D01*
X189015516Y-191909670D02*
X189015516Y-193509670D01*
X193364240Y-190959670D02*
X193564240Y-190959670D01*
X192914240Y-193509670D02*
X192714240Y-193509670D01*
X193714240Y-193509670D02*
X193214240Y-193509670D01*
X194214240Y-193509670D02*
X194014240Y-193509670D01*
X194014240Y-191909670D02*
X194214240Y-191909670D01*
X193214240Y-191909670D02*
X193714240Y-191909670D01*
X192714240Y-191909670D02*
X192914240Y-191909670D01*
X192914240Y-191909670D02*
G75*
G03X193214240Y-191909670I150000J150000D01*
G01*
X193714240Y-191909670D02*
G75*
G03X194014240Y-191909670I150000J150000D01*
G01*
X194014240Y-193509670D02*
G75*
G03X193714240Y-193509670I-150000J-150000D01*
G01*
X193214240Y-193509670D02*
G75*
G03X192914240Y-193509670I-150000J-150000D01*
G01*
X192714240Y-193509670D02*
X192714240Y-191909670D01*
X194214240Y-191909670D02*
X194214240Y-193509670D01*
X198335840Y-190959670D02*
X198535840Y-190959670D01*
X197885840Y-193509670D02*
X197685840Y-193509670D01*
X198685840Y-193509670D02*
X198185840Y-193509670D01*
X199185840Y-193509670D02*
X198985840Y-193509670D01*
X198985840Y-191909670D02*
X199185840Y-191909670D01*
X198185840Y-191909670D02*
X198685840Y-191909670D01*
X197685840Y-191909670D02*
X197885840Y-191909670D01*
X197885840Y-191909670D02*
G75*
G03X198185840Y-191909670I150000J150000D01*
G01*
X198685840Y-191909670D02*
G75*
G03X198985840Y-191909670I150000J150000D01*
G01*
X198985840Y-193509670D02*
G75*
G03X198685840Y-193509670I-150000J-150000D01*
G01*
X198185840Y-193509670D02*
G75*
G03X197885840Y-193509670I-150000J-150000D01*
G01*
X197685840Y-193509670D02*
X197685840Y-191909670D01*
X199185840Y-191909670D02*
X199185840Y-193509670D01*
X203143977Y-190959670D02*
X203343977Y-190959670D01*
X202693977Y-193509670D02*
X202493977Y-193509670D01*
X203493977Y-193509670D02*
X202993977Y-193509670D01*
X203993977Y-193509670D02*
X203793977Y-193509670D01*
X203793977Y-191909670D02*
X203993977Y-191909670D01*
X202993977Y-191909670D02*
X203493977Y-191909670D01*
X202493977Y-191909670D02*
X202693977Y-191909670D01*
X202693977Y-191909670D02*
G75*
G03X202993977Y-191909670I150000J150000D01*
G01*
X203493977Y-191909670D02*
G75*
G03X203793977Y-191909670I150000J150000D01*
G01*
X203793977Y-193509670D02*
G75*
G03X203493977Y-193509670I-150000J-150000D01*
G01*
X202993977Y-193509670D02*
G75*
G03X202693977Y-193509670I-150000J-150000D01*
G01*
X202493977Y-193509670D02*
X202493977Y-191909670D01*
X203993977Y-191909670D02*
X203993977Y-193509670D01*
X207829367Y-190959670D02*
X208029367Y-190959670D01*
X207379367Y-193509670D02*
X207179367Y-193509670D01*
X208179367Y-193509670D02*
X207679367Y-193509670D01*
X208679367Y-193509670D02*
X208479367Y-193509670D01*
X208479367Y-191909670D02*
X208679367Y-191909670D01*
X207679367Y-191909670D02*
X208179367Y-191909670D01*
X207179367Y-191909670D02*
X207379367Y-191909670D01*
X207379367Y-191909670D02*
G75*
G03X207679367Y-191909670I150000J150000D01*
G01*
X208179367Y-191909670D02*
G75*
G03X208479367Y-191909670I150000J150000D01*
G01*
X208479367Y-193509670D02*
G75*
G03X208179367Y-193509670I-150000J-150000D01*
G01*
X207679367Y-193509670D02*
G75*
G03X207379367Y-193509670I-150000J-150000D01*
G01*
X207179367Y-193509670D02*
X207179367Y-191909670D01*
X208679367Y-191909670D02*
X208679367Y-193509670D01*
X212419613Y-190959670D02*
X212619613Y-190959670D01*
X211969613Y-193509670D02*
X211769613Y-193509670D01*
X212769613Y-193509670D02*
X212269613Y-193509670D01*
X213269613Y-193509670D02*
X213069613Y-193509670D01*
X213069613Y-191909670D02*
X213269613Y-191909670D01*
X212269613Y-191909670D02*
X212769613Y-191909670D01*
X211769613Y-191909670D02*
X211969613Y-191909670D01*
X211969613Y-191909670D02*
G75*
G03X212269613Y-191909670I150000J150000D01*
G01*
X212769613Y-191909670D02*
G75*
G03X213069613Y-191909670I150000J150000D01*
G01*
X213069613Y-193509670D02*
G75*
G03X212769613Y-193509670I-150000J-150000D01*
G01*
X212269613Y-193509670D02*
G75*
G03X211969613Y-193509670I-150000J-150000D01*
G01*
X211769613Y-193509670D02*
X211769613Y-191909670D01*
X213269613Y-191909670D02*
X213269613Y-193509670D01*
X150966570Y-197530389D02*
X151166570Y-197530389D01*
X150516570Y-200080389D02*
X150316570Y-200080389D01*
X151316570Y-200080389D02*
X150816570Y-200080389D01*
X151816570Y-200080389D02*
X151616570Y-200080389D01*
X151616570Y-198480389D02*
X151816570Y-198480389D01*
X150816570Y-198480389D02*
X151316570Y-198480389D01*
X150316570Y-198480389D02*
X150516570Y-198480389D01*
X150516570Y-198480389D02*
G75*
G03X150816570Y-198480389I150000J150000D01*
G01*
X151316570Y-198480389D02*
G75*
G03X151616570Y-198480389I150000J150000D01*
G01*
X151616570Y-200080389D02*
G75*
G03X151316570Y-200080389I-150000J-150000D01*
G01*
X150816570Y-200080389D02*
G75*
G03X150516570Y-200080389I-150000J-150000D01*
G01*
X150316570Y-200080389D02*
X150316570Y-198480389D01*
X151816570Y-198480389D02*
X151816570Y-200080389D01*
X168066673Y-197530389D02*
X168266673Y-197530389D01*
X167616673Y-200080389D02*
X167416673Y-200080389D01*
X168416673Y-200080389D02*
X167916673Y-200080389D01*
X168916673Y-200080389D02*
X168716673Y-200080389D01*
X168716673Y-198480389D02*
X168916673Y-198480389D01*
X167916673Y-198480389D02*
X168416673Y-198480389D01*
X167416673Y-198480389D02*
X167616673Y-198480389D01*
X167616673Y-198480389D02*
G75*
G03X167916673Y-198480389I150000J150000D01*
G01*
X168416673Y-198480389D02*
G75*
G03X168716673Y-198480389I150000J150000D01*
G01*
X168716673Y-200080389D02*
G75*
G03X168416673Y-200080389I-150000J-150000D01*
G01*
X167916673Y-200080389D02*
G75*
G03X167616673Y-200080389I-150000J-150000D01*
G01*
X167416673Y-200080389D02*
X167416673Y-198480389D01*
X168916673Y-198480389D02*
X168916673Y-200080389D01*
X176185328Y-197530389D02*
X176385328Y-197530389D01*
X175735328Y-200080389D02*
X175535328Y-200080389D01*
X176535328Y-200080389D02*
X176035328Y-200080389D01*
X177035328Y-200080389D02*
X176835328Y-200080389D01*
X176835328Y-198480389D02*
X177035328Y-198480389D01*
X176035328Y-198480389D02*
X176535328Y-198480389D01*
X175535328Y-198480389D02*
X175735328Y-198480389D01*
X175735328Y-198480389D02*
G75*
G03X176035328Y-198480389I150000J150000D01*
G01*
X176535328Y-198480389D02*
G75*
G03X176835328Y-198480389I150000J150000D01*
G01*
X176835328Y-200080389D02*
G75*
G03X176535328Y-200080389I-150000J-150000D01*
G01*
X176035328Y-200080389D02*
G75*
G03X175735328Y-200080389I-150000J-150000D01*
G01*
X175535328Y-200080389D02*
X175535328Y-198480389D01*
X177035328Y-198480389D02*
X177035328Y-200080389D01*
X182821253Y-197530389D02*
X183021253Y-197530389D01*
X182371253Y-200080389D02*
X182171253Y-200080389D01*
X183171253Y-200080389D02*
X182671253Y-200080389D01*
X183671253Y-200080389D02*
X183471253Y-200080389D01*
X183471253Y-198480389D02*
X183671253Y-198480389D01*
X182671253Y-198480389D02*
X183171253Y-198480389D01*
X182171253Y-198480389D02*
X182371253Y-198480389D01*
X182371253Y-198480389D02*
G75*
G03X182671253Y-198480389I150000J150000D01*
G01*
X183171253Y-198480389D02*
G75*
G03X183471253Y-198480389I150000J150000D01*
G01*
X183471253Y-200080389D02*
G75*
G03X183171253Y-200080389I-150000J-150000D01*
G01*
X182671253Y-200080389D02*
G75*
G03X182371253Y-200080389I-150000J-150000D01*
G01*
X182171253Y-200080389D02*
X182171253Y-198480389D01*
X183671253Y-198480389D02*
X183671253Y-200080389D01*
X188741980Y-197530389D02*
X188941980Y-197530389D01*
X188291980Y-200080389D02*
X188091980Y-200080389D01*
X189091980Y-200080389D02*
X188591980Y-200080389D01*
X189591980Y-200080389D02*
X189391980Y-200080389D01*
X189391980Y-198480389D02*
X189591980Y-198480389D01*
X188591980Y-198480389D02*
X189091980Y-198480389D01*
X188091980Y-198480389D02*
X188291980Y-198480389D01*
X188291980Y-198480389D02*
G75*
G03X188591980Y-198480389I150000J150000D01*
G01*
X189091980Y-198480389D02*
G75*
G03X189391980Y-198480389I150000J150000D01*
G01*
X189391980Y-200080389D02*
G75*
G03X189091980Y-200080389I-150000J-150000D01*
G01*
X188591980Y-200080389D02*
G75*
G03X188291980Y-200080389I-150000J-150000D01*
G01*
X188091980Y-200080389D02*
X188091980Y-198480389D01*
X189591980Y-198480389D02*
X189591980Y-200080389D01*
X194234973Y-197530389D02*
X194434973Y-197530389D01*
X193784973Y-200080389D02*
X193584973Y-200080389D01*
X194584973Y-200080389D02*
X194084973Y-200080389D01*
X195084973Y-200080389D02*
X194884973Y-200080389D01*
X194884973Y-198480389D02*
X195084973Y-198480389D01*
X194084973Y-198480389D02*
X194584973Y-198480389D01*
X193584973Y-198480389D02*
X193784973Y-198480389D01*
X193784973Y-198480389D02*
G75*
G03X194084973Y-198480389I150000J150000D01*
G01*
X194584973Y-198480389D02*
G75*
G03X194884973Y-198480389I150000J150000D01*
G01*
X194884973Y-200080389D02*
G75*
G03X194584973Y-200080389I-150000J-150000D01*
G01*
X194084973Y-200080389D02*
G75*
G03X193784973Y-200080389I-150000J-150000D01*
G01*
X193584973Y-200080389D02*
X193584973Y-198480389D01*
X195084973Y-198480389D02*
X195084973Y-200080389D01*
X199442712Y-197530389D02*
X199642712Y-197530389D01*
X198992712Y-200080389D02*
X198792712Y-200080389D01*
X199792712Y-200080389D02*
X199292712Y-200080389D01*
X200292712Y-200080389D02*
X200092712Y-200080389D01*
X200092712Y-198480389D02*
X200292712Y-198480389D01*
X199292712Y-198480389D02*
X199792712Y-198480389D01*
X198792712Y-198480389D02*
X198992712Y-198480389D01*
X198992712Y-198480389D02*
G75*
G03X199292712Y-198480389I150000J150000D01*
G01*
X199792712Y-198480389D02*
G75*
G03X200092712Y-198480389I150000J150000D01*
G01*
X200092712Y-200080389D02*
G75*
G03X199792712Y-200080389I-150000J-150000D01*
G01*
X199292712Y-200080389D02*
G75*
G03X198992712Y-200080389I-150000J-150000D01*
G01*
X198792712Y-200080389D02*
X198792712Y-198480389D01*
X200292712Y-198480389D02*
X200292712Y-200080389D01*
X204446959Y-197530389D02*
X204646959Y-197530389D01*
X203996959Y-200080389D02*
X203796959Y-200080389D01*
X204796959Y-200080389D02*
X204296959Y-200080389D01*
X205296959Y-200080389D02*
X205096959Y-200080389D01*
X205096959Y-198480389D02*
X205296959Y-198480389D01*
X204296959Y-198480389D02*
X204796959Y-198480389D01*
X203796959Y-198480389D02*
X203996959Y-198480389D01*
X203996959Y-198480389D02*
G75*
G03X204296959Y-198480389I150000J150000D01*
G01*
X204796959Y-198480389D02*
G75*
G03X205096959Y-198480389I150000J150000D01*
G01*
X205096959Y-200080389D02*
G75*
G03X204796959Y-200080389I-150000J-150000D01*
G01*
X204296959Y-200080389D02*
G75*
G03X203996959Y-200080389I-150000J-150000D01*
G01*
X203796959Y-200080389D02*
X203796959Y-198480389D01*
X205296959Y-198480389D02*
X205296959Y-200080389D01*
X209299168Y-197530389D02*
X209499168Y-197530389D01*
X208849168Y-200080389D02*
X208649168Y-200080389D01*
X209649168Y-200080389D02*
X209149168Y-200080389D01*
X210149168Y-200080389D02*
X209949168Y-200080389D01*
X209949168Y-198480389D02*
X210149168Y-198480389D01*
X209149168Y-198480389D02*
X209649168Y-198480389D01*
X208649168Y-198480389D02*
X208849168Y-198480389D01*
X208849168Y-198480389D02*
G75*
G03X209149168Y-198480389I150000J150000D01*
G01*
X209649168Y-198480389D02*
G75*
G03X209949168Y-198480389I150000J150000D01*
G01*
X209949168Y-200080389D02*
G75*
G03X209649168Y-200080389I-150000J-150000D01*
G01*
X209149168Y-200080389D02*
G75*
G03X208849168Y-200080389I-150000J-150000D01*
G01*
X208649168Y-200080389D02*
X208649168Y-198480389D01*
X210149168Y-198480389D02*
X210149168Y-200080389D01*
D14*
X75976260Y-154099560D02*
X81676020Y-154099560D01*
X81676020Y-154099560D02*
X81676020Y-145900440D01*
X81676020Y-145900440D02*
X75976260Y-145900440D01*
X75976260Y-145900440D02*
X75976260Y-154099560D01*
D15*
X80833600Y-157618800D02*
X81646400Y-157618800D01*
X81621000Y-156501200D02*
X80833600Y-156501200D01*
X81646400Y-156247200D02*
X81646400Y-157872800D01*
X81646400Y-157872800D02*
X80833600Y-157872800D01*
X80833600Y-157872800D02*
X80833600Y-156247200D01*
X80833600Y-156247200D02*
X81646400Y-156247200D01*
D11*
X101356137Y-210871974D02*
X98951974Y-208467811D01*
X101351974Y-210871973D02*
G75*
G02X97254918Y-212569031I-2400000J-1D01*
G01*
X98951973Y-208471974D02*
G75*
G03X97254918Y-212569031I1J-2400000D01*
G01*
M02*
